<?xml version="1.0" encoding="utf-8"?>
<!-- Generator: Adobe Illustrator 26.0.1, SVG Export Plug-In . SVG Version: 6.00 Build 0)  -->
<svg version="1.1" id="Layer_1" xmlns="http://www.w3.org/2000/svg" xmlns:xlink="http://www.w3.org/1999/xlink" x="0px" y="0px"
	 viewBox="0 0 403.34 184.52" style="enable-background:new 0 0 403.34 184.52;" xml:space="preserve">
<style type="text/css">
	.st0{fill:#24AFB2;}
	.st1{fill:#273773;}
</style>
<g>
	<path class="st0" d="M116.8,107.66c-20.14,0-37.6,16.9-37.6,37.6c0,22.42,15.78,37.59,37.6,37.59c20.14,0,37.6-16.9,37.6-37.59
		C154.4,122.84,138.62,107.66,116.8,107.66z"/>
	<path d="M162.37,136.53c0-15.44,11.08-26.18,26.18-26.18h6.71v17.45h-5.37c-5.03,0-8.73,3.36-8.73,8.73v43.64h-18.8V136.53z"/>
	<path d="M259.63,92.44v22.28c-6.04-4.36-12.75-6.04-19.8-6.04c-19.8,0-36.59,16.45-36.59,36.59c0,21.82,15.78,36.59,37.6,36.59
		c20.14,0,37.59-16.45,37.59-36.59V92.44H259.63z M240.83,164.39c-10.74,0-18.8-8.39-18.8-19.13c0-11.08,8.06-19.13,18.8-19.13
		c11.08,0,18.8,8.06,18.8,19.13C259.63,156,251.91,164.39,240.83,164.39z"/>
	<g>
		<path d="M361.59,145.26c-1.34-22.83-15.78-36.59-37.6-36.59c-20.14,0-37.6,16.45-37.6,36.59c0,21.82,15.78,36.59,37.6,36.59
			c10.07,0,19.13-4.03,25.85-10.74l-11.41-11.75c-5.04,4.7-8.39,6.38-14.43,6.38c-9.4,0-16.78-5.71-19.13-14.1h56.73V145.26z
			 M305.2,137.2c2.68-7.72,9.4-13.43,18.8-13.43c9.73,0,16.45,5.37,19.13,13.43H305.2z"/>
	</g>
	<path d="M369.56,136.53c0-15.44,11.08-26.18,26.18-26.18h6.71v17.45h-5.37c-5.03,0-8.73,3.36-8.73,8.73v43.64h-18.8V136.53z"/>
	<g>
		<g>
			<path d="M116.8,1.67c-20.14,0-37.6,16.45-37.6,36.59c0,21.82,15.78,36.59,37.6,36.59c20.14,0,37.6-16.45,37.6-36.59
				C154.4,16.43,138.62,1.67,116.8,1.67z M116.8,57.39c-10.74,0-18.8-8.39-18.8-19.13c0-11.08,8.06-19.13,18.8-19.13
				c11.08,0,18.8,8.06,18.8,19.13C135.6,48.99,127.88,57.39,116.8,57.39z"/>
		</g>
		<path d="M160.78,38.25c0-21.82,18.8-36.59,37.93-36.59c21.82,0,37.26,14.77,37.26,36.59v34.91h-18.8V38.25
			c0-11.08-7.72-19.13-18.8-19.13c-10.74,0-18.8,8.06-18.8,19.13v34.91h-18.8V38.25z"/>
		<path d="M245.7,38.25c0-21.82,18.8-36.59,37.93-36.59c21.82,0,37.26,14.77,37.26,36.59v34.91h-18.8V38.25
			c0-11.08-7.72-19.13-18.8-19.13c-10.74,0-18.8,8.06-18.8,19.13v34.91h-18.8V38.25z"/>
		<g>
			<path d="M364.86,1.67c-20.14,0-37.6,16.45-37.6,36.59c0,21.82,14.77,36.59,35.92,36.59c8.73,0,16.45-3.02,20.81-7.72v6.04h18.46
				V38.25C402.46,16.43,386.68,1.67,364.86,1.67z M364.86,57.39c-10.74,0-18.8-8.39-18.8-19.13c0-11.08,8.06-19.13,18.8-19.13
				c11.08,0,18.8,8.06,18.8,19.13C383.66,48.99,375.94,57.39,364.86,57.39z"/>
		</g>
	</g>
	<path class="st1" d="M37.51,1.67c0.02,0.01,0.05,0.02,0.07,0.02c-0.35-0.01-0.7-0.02-1.05-0.02c-3.26,0-6.45,0.46-9.5,1.29
		c-3.11,0.85-6.08,2.11-8.83,3.71C8.26,12.66,1.9,23.63,1.9,36.99c0,19.79,14.84,35.26,34.63,35.26c0.3,0,0.59-0.01,0.89-0.02
		c6.63-0.15,12.59-1.93,17.58-4.98v7.18c0,11.02-7.46,19.44-18.47,19.44s-18.47-7.78-18.47-18.79H0.89
		c0,21.39,14.26,34.67,35.64,34.67c19.45,0,36.3-14.26,36.3-35.32V43.79v0V1.67H37.51z M36.53,55.46c-10.37,0-18.15-8.1-18.15-18.47
		c0-10.69,7.78-18.47,18.15-18.47c10.7,0,18.15,7.78,18.15,18.47C54.68,47.36,47.23,55.46,36.53,55.46z"/>
</g>
</svg>
