<?xml version="1.0" encoding="utf-8"?>
<!-- Generator: Adobe Illustrator 26.0.1, SVG Export Plug-In . SVG Version: 6.00 Build 0)  -->
<svg version="1.1" id="Layer_1" xmlns="http://www.w3.org/2000/svg" xmlns:xlink="http://www.w3.org/1999/xlink" x="0px" y="0px"
	 viewBox="0 0 93.04 42" style="enable-background:new 0 0 93.04 42;" xml:space="preserve">
<style type="text/css">
	.st0{fill:#24AFB2;}
	.st1{fill:#FFFFFF;}
</style>
<path class="st0" d="M27.1,24.53c-4.61,0-8.6,3.87-8.6,8.6c0,5.13,3.61,8.6,8.6,8.6c4.61,0,8.6-3.87,8.6-8.6
	C35.7,28,32.09,24.53,27.1,24.53z"/>
<path class="st0" d="M37.52,31.13c0-3.53,2.54-5.99,5.99-5.99h1.54v3.99h-1.23c-1.15,0-2,0.77-2,2v9.99h-4.3V31.13z"/>
<path class="st0" d="M59.78,21.04v5.1c-1.38-1-2.92-1.38-4.53-1.38c-4.53,0-8.37,3.76-8.37,8.37c0,4.99,3.61,8.37,8.6,8.37
	c4.61,0,8.6-3.76,8.6-8.37V21.04H59.78z M55.48,37.51c-2.46,0-4.3-1.92-4.3-4.38c0-2.53,1.84-4.38,4.3-4.38
	c2.53,0,4.3,1.84,4.3,4.38C59.78,35.59,58.01,37.51,55.48,37.51z"/>
<g>
	<path class="st0" d="M83.11,33.13c-0.31-5.22-3.61-8.37-8.6-8.37c-4.61,0-8.6,3.76-8.6,8.37c0,4.99,3.61,8.37,8.6,8.37
		c2.3,0,4.38-0.92,5.91-2.46l-2.61-2.69c-1.15,1.08-1.92,1.46-3.3,1.46c-2.15,0-3.84-1.31-4.38-3.23h12.98V33.13z M70.21,31.29
		c0.61-1.77,2.15-3.07,4.3-3.07c2.23,0,3.76,1.23,4.38,3.07H70.21z"/>
</g>
<path class="st0" d="M84.94,31.13c0-3.53,2.54-5.99,5.99-5.99h1.54v3.99h-1.23c-1.15,0-2,0.77-2,2v9.99h-4.3V31.13z"/>
<g>
	<g>
		<path class="st1" d="M27.1,0.27c-4.61,0-8.6,3.76-8.6,8.37c0,4.99,3.61,8.37,8.6,8.37c4.61,0,8.6-3.76,8.6-8.37
			C35.7,3.65,32.09,0.27,27.1,0.27z M27.1,13.02c-2.46,0-4.3-1.92-4.3-4.38c0-2.53,1.84-4.38,4.3-4.38c2.54,0,4.3,1.84,4.3,4.38
			C31.4,11.1,29.63,13.02,27.1,13.02z"/>
	</g>
	<path class="st1" d="M37.16,8.64c0-4.99,4.3-8.37,8.68-8.37c4.99,0,8.53,3.38,8.53,8.37v7.99h-4.3V8.64c0-2.53-1.77-4.38-4.3-4.38
		c-2.46,0-4.3,1.84-4.3,4.38v7.99h-4.3V8.64z"/>
	<path class="st1" d="M56.59,8.64c0-4.99,4.3-8.37,8.68-8.37c4.99,0,8.53,3.38,8.53,8.37v7.99h-4.3V8.64c0-2.53-1.77-4.38-4.3-4.38
		c-2.46,0-4.3,1.84-4.3,4.38v7.99h-4.3V8.64z"/>
	<g>
		<path class="st1" d="M83.86,0.27c-4.61,0-8.6,3.76-8.6,8.37c0,4.99,3.38,8.37,8.22,8.37c2,0,3.76-0.69,4.76-1.77v1.38h4.22V8.64
			C92.47,3.65,88.86,0.27,83.86,0.27z M83.86,13.02c-2.46,0-4.3-1.92-4.3-4.38c0-2.53,1.84-4.38,4.3-4.38c2.53,0,4.3,1.84,4.3,4.38
			C88.16,11.1,86.4,13.02,83.86,13.02z"/>
	</g>
</g>
<path class="st1" d="M8.95,0.27c0.01,0,0.01,0,0.02,0.01c-0.08,0-0.16-0.01-0.24-0.01c-0.75,0-1.48,0.1-2.17,0.3
	c-0.71,0.2-1.39,0.48-2.02,0.85C2.26,2.78,0.8,5.29,0.8,8.35c0,4.53,3.4,8.07,7.93,8.07c0.07,0,0.14,0,0.2,0
	c1.52-0.03,2.88-0.44,4.02-1.14v1.64c0,2.52-1.71,4.45-4.23,4.45s-4.23-1.78-4.23-4.3H0.57c0,4.89,3.26,7.94,8.16,7.94
	c4.45,0,8.31-3.26,8.31-8.08V9.91v0V0.27H8.95z M8.73,12.58c-2.37,0-4.15-1.85-4.15-4.23c0-2.45,1.78-4.23,4.15-4.23
	c2.45,0,4.15,1.78,4.15,4.23C12.88,10.72,11.18,12.58,8.73,12.58z"/>
</svg>
