<?xml version="1.0" encoding="utf-8"?>
<!-- Generator: Adobe Illustrator 27.0.0, SVG Export Plug-In . SVG Version: 6.00 Build 0)  -->
<svg version="1.1" id="Layer_1" xmlns="http://www.w3.org/2000/svg" xmlns:xlink="http://www.w3.org/1999/xlink" x="0px" y="0px"
	 width="148px" height="31.3px" viewBox="0 0 148 31.3" style="enable-background:new 0 0 148 31.3;" xml:space="preserve">
<style type="text/css">
	.st0{fill:#252D3D;}
	.st1{fill:url(#SVGID_1_);}
	.st2{fill:url(#SVGID_00000161613844608426847410000007832591493798054300_);}
	.st3{fill:url(#SVGID_00000073713299619946013050000007987304020651085456_);}
</style>
<g>
	<g>
		<path class="st0" d="M50,22.1h-9.8l-1.6,3.5h-3.8L43.2,7H47l8.4,18.7h-3.8L50,22.1z M45.1,10.9l-3.5,8h6.9L45.1,10.9z"/>
		<path class="st0" d="M56.5,31.2V12.5h3l0.2,1.8c1-1.5,2.8-2.1,4.3-2.1c4.1,0,6.8,3,6.8,6.9c0,3.8-2.4,6.9-6.6,6.9
			c-1.4,0-3.4-0.4-4.4-1.9v7H56.5z M67.5,19.1c0-2.1-1.4-3.7-3.7-3.7c-2.3,0-3.7,1.7-3.7,3.7c0,2.1,1.5,3.7,3.7,3.7
			C66,22.8,67.5,21.2,67.5,19.1z"/>
		<path class="st0" d="M84.5,24c-1.5,1.5-3.1,2.1-5.1,2.1c-3.8,0-7-2.3-7-7s3.2-7,7-7c1.9,0,3.3,0.5,4.8,1.9l-2.1,2.2
			c-0.8-0.7-1.7-1-2.6-1c-2.2,0-3.8,1.6-3.8,3.9c0,2.5,1.7,3.8,3.7,3.8c1,0,2.1-0.3,2.9-1.1L84.5,24z"/>
		<path class="st0" d="M99.3,19.1c0,3.8-2.6,6.9-6.9,6.9c-4.3,0-6.8-3.1-6.8-6.9c0-3.8,2.6-6.9,6.8-6.9
			C96.6,12.2,99.3,15.3,99.3,19.1z M88.8,19.1c0,2,1.2,3.9,3.6,3.9c2.4,0,3.6-1.9,3.6-3.9c0-2-1.4-3.9-3.6-3.9
			C90,15.2,88.8,17.1,88.8,19.1z"/>
		<path class="st0" d="M101.5,31.2V12.5h3l0.2,1.8c1-1.5,2.8-2.1,4.3-2.1c4.1,0,6.8,3,6.8,6.9c0,3.8-2.4,6.9-6.6,6.9
			c-1.4,0-3.4-0.4-4.4-1.9v7H101.5z M112.5,19.1c0-2.1-1.4-3.7-3.7-3.7c-2.3,0-3.7,1.7-3.7,3.7c0,2.1,1.5,3.7,3.7,3.7
			C111,22.8,112.5,21.2,112.5,19.1z"/>
		<path class="st0" d="M128.6,12.5h3.1v13.2h-3.1l-0.2-1.9c-0.7,1.5-2.8,2.3-4.3,2.3c-3.9,0-6.8-2.4-6.8-7c0-4.5,3-6.9,6.9-6.9
			c1.8,0,3.4,0.8,4.2,2.1L128.6,12.5z M120.7,19.1c0,2.5,1.7,4,3.9,4c5.1,0,5.1-8,0-8C122.4,15.1,120.7,16.6,120.7,19.1z"/>
		<path class="st0" d="M147.2,12.5l-8,18.7h-3.6l2.5-5.7l-5.3-12.9h3.8l2,5.7l1.3,3.7l1.4-3.6l2.4-5.8H147.2z"/>
	</g>
	<linearGradient id="SVGID_1_" gradientUnits="userSpaceOnUse" x1="3.2614" y1="27.1807" x2="13.294" y2="13.135">
		<stop  offset="0" style="stop-color:#2CCFE5"/>
		<stop  offset="1" style="stop-color:#2A64E6"/>
	</linearGradient>
	<path class="st1" d="M7.9,13l-6,8.2c-2.6,3.6-0.1,8.6,4.4,8.6L19.1,13H7.9z"/>
	
		<linearGradient id="SVGID_00000166667196056788734900000011545297539981319557_" gradientUnits="userSpaceOnUse" x1="20.0578" y1="3.6375" x2="27.3121" y2="18.1462">
		<stop  offset="0" style="stop-color:#2CCFE5"/>
		<stop  offset="1" style="stop-color:#2A64E6"/>
	</linearGradient>
	<path style="fill:url(#SVGID_00000166667196056788734900000011545297539981319557_);" d="M14.1,3.6l11.6,18.7l5.8-7.6l-7.5-12
		c-2-3.2-6.5-3.4-8.8-0.5L14.1,3.6z"/>
	
		<linearGradient id="SVGID_00000108277887833064735270000003733568003261027245_" gradientUnits="userSpaceOnUse" x1="22.8028" y1="21.0652" x2="15.5484" y2="26.7761">
		<stop  offset="0" style="stop-color:#2CCFE5"/>
		<stop  offset="1" style="stop-color:#2A64E6"/>
	</linearGradient>
	<path style="fill:url(#SVGID_00000108277887833064735270000003733568003261027245_);" d="M25,23.2H12.7l3.4,4.9
		c1.2,1.7,3.6,1.8,4.9,0.1L25,23.2z"/>
</g>
</svg>
