<?xml version="1.0" standalone="no"?>
<!DOCTYPE svg PUBLIC "-//W3C//DTD SVG 20010904//EN"
 "http://www.w3.org/TR/2001/REC-SVG-20010904/DTD/svg10.dtd">
<svg version="1.0" xmlns="http://www.w3.org/2000/svg"
 width="291.000000pt" height="79.000000pt" viewBox="0 0 291.000000 79.000000"
 preserveAspectRatio="xMidYMid meet">

<g transform="translate(0.000000,79.000000) scale(0.100000,-0.100000)"
fill="#000000" stroke="none">
<path d="M1940 445 l0 -246 58 3 c56 3 57 4 60 34 l3 31 34 -34 c30 -30 38
-33 95 -33 113 0 165 55 165 175 0 129 -56 190 -169 182 -53 -3 -62 -7 -93
-40 -18 -20 -34 -37 -36 -37 -1 0 -2 46 -2 102 l0 103 -57 3 -58 3 0 -246z
m284 -11 c20 -19 21 -84 2 -110 -12 -15 -27 -19 -79 -19 -78 0 -97 13 -97 67
0 68 11 78 90 78 49 0 73 -4 84 -16z"/>
<path d="M2420 445 l0 -245 60 0 60 0 0 245 0 245 -60 0 -60 0 0 -245z"/>
<path d="M229 542 c-15 -9 -36 -28 -48 -42 l-20 -25 -1 38 0 37 -60 0 -60 0 2
-232 3 -233 58 -3 57 -3 0 101 0 101 40 -42 39 -41 70 4 c57 3 75 8 96 28 43
40 58 79 58 151 0 78 -20 121 -73 156 -41 29 -122 31 -161 5z m99 -104 c7 -7
12 -36 12 -65 0 -48 -3 -54 -26 -63 -38 -15 -107 -12 -132 6 -17 12 -22 25
-22 63 0 26 5 52 12 59 7 7 40 12 78 12 38 0 71 -5 78 -12z"/>
<path d="M583 540 c-51 -31 -66 -63 -70 -148 -3 -60 0 -85 14 -112 27 -53 75
-80 140 -80 62 0 101 19 126 59 l16 26 1 -42 0 -43 60 0 60 0 -2 178 -3 177
-57 3 -58 3 0 -43 -1 -43 -20 28 c-12 15 -34 34 -50 42 -40 21 -117 19 -156
-5z m215 -102 c14 -14 16 -96 3 -117 -14 -22 -115 -27 -146 -7 -21 14 -25 24
-25 64 0 27 5 53 12 60 7 7 40 12 78 12 38 0 71 -5 78 -12z"/>
<path d="M988 555 c-3 -4 25 -83 63 -178 38 -94 69 -175 69 -179 0 -4 -22 -8
-50 -8 l-50 0 0 -56 0 -57 68 5 c74 6 124 26 147 62 17 25 175 395 175 408 0
4 -27 8 -60 8 -71 0 -72 -1 -120 -138 -18 -51 -35 -90 -39 -87 -3 4 -22 54
-42 113 l-36 107 -59 3 c-33 2 -63 0 -66 -3z"/>
<path d="M1515 550 c-56 -23 -85 -83 -85 -178 0 -115 55 -172 164 -172 56 0
61 2 98 40 l38 41 0 -41 0 -40 60 0 60 0 0 175 0 175 -60 0 -60 0 0 -42 0 -43
-21 33 c-12 18 -34 39 -50 47 -30 16 -111 19 -144 5z m203 -112 c7 -7 12 -33
12 -60 0 -40 -4 -50 -25 -64 -31 -20 -132 -15 -146 7 -13 21 -11 103 3 117 7
7 40 12 78 12 38 0 71 -5 78 -12z"/>
<path d="M2630 330 c-24 -24 -26 -77 -4 -108 13 -19 24 -22 78 -22 74 0 96 17
96 73 0 55 -27 77 -95 77 -42 0 -60 -5 -75 -20z"/>
</g>
</svg>
