<svg width="98.2677" height="98.2677" viewBox="0 0 73.7 73.7" xmlns="http://www.w3.org/2000/svg" xmlns:xlink="http://www.w3.org/1999/xlink" overflow="hidden"><g><circle cx="36.85" cy="36.85" r="36.85" fill="#FFFFFF"/><path d="M36.85 71.92C17.4814 71.92 1.78 56.2186 1.78 36.85 1.78 17.4814 17.4814 1.78 36.85 1.78 56.2186 1.78 71.92 17.4814 71.92 36.85 71.898 56.2095 56.2095 71.898 36.85 71.92ZM36.85 4.64C19.0609 4.64 4.64 19.0609 4.64 36.85 4.64 54.6391 19.0609 69.06 36.85 69.06 54.6391 69.06 69.06 54.6391 69.06 36.85 69.038 19.07 54.63 4.66204 36.85 4.64Z" fill="#231F20"/><g><path d="M23.42 20.81 23.1 20.81C22.0321 20.8098 20.969 20.9545 19.94 21.24 18.9104 21.5197 17.922 21.9332 17 22.47 13.5295 24.6224 11.4652 28.4578 11.58 32.54 11.414 38.8394 16.3861 44.0806 22.6855 44.2466 22.8236 44.2502 22.9618 44.2514 23.1 44.25L23.39 44.25C25.4482 44.2251 27.4631 43.6558 29.23 42.6L29.23 45C29.23 48.66 26.76 51.46 23.1 51.46 19.8379 51.5711 17.1034 49.0167 16.9922 45.7546 16.9858 45.5664 16.9884 45.378 17 45.19L11.3 45.19C11.3 52.29 16.03 56.71 23.14 56.71 29.6 56.71 35.14 51.97 35.14 44.97L35.14 34.8 35.14 34.8 35.14 20.8ZM23.1 38.68C19.7863 38.6809 17.0993 35.9953 17.0984 32.6816 17.0984 32.6344 17.0989 32.5872 17.1 32.54 16.9781 29.2783 19.5234 26.5353 22.7851 26.4134 22.89 26.4095 22.995 26.4083 23.1 26.41 26.324 26.3176 29.0125 28.8563 29.1049 32.0803 29.1093 32.2335 29.1077 32.3869 29.1 32.54 29.2274 35.8015 26.6868 38.5488 23.4253 38.6763 23.3169 38.6805 23.2084 38.6817 23.1 38.68Z" fill="#231F20"/><path d="M62.44 32.52C62.6937 26.3065 57.8623 21.0637 51.6487 20.81 51.3426 20.7975 51.0361 20.7975 50.73 20.81 44.4481 20.614 39.1966 25.5476 39.0006 31.8295 38.9934 32.0596 38.9932 32.2899 39 32.52 38.883 38.8702 43.9361 44.1129 50.2863 44.2298 50.4242 44.2324 50.5621 44.2324 50.7 44.23 56.9818 44.4316 62.2375 39.5026 62.4391 33.2208 62.4466 32.9873 62.4469 32.7536 62.44 32.52Z" fill="#231F20"/></g></g></svg>