<?xml version="1.0" encoding="UTF-8"?><svg xmlns="http://www.w3.org/2000/svg" xmlns:xlink="http://www.w3.org/1999/xlink" data-name="Слой 1" width="506.68" height="128.54"><defs><linearGradient id="a" x1="55.6" y1="132.85" x2="55.6" y2="10.26" gradientUnits="userSpaceOnUse"><stop offset="0" stop-color="#777"/><stop offset=".07" stop-color="#676767"/><stop offset=".26" stop-color="#424242"/><stop offset=".45" stop-color="#252525"/><stop offset=".64" stop-color="#111"/><stop offset=".82" stop-color="#040404"/><stop offset="1"/></linearGradient><linearGradient id="c" x1="160.28" y1="135.6" x2="160.28" y2="41.42" xlink:href="#a" gradientTransform="translate(-7.66 -7.23)"/><linearGradient id="d" x1="255.31" y1="135.43" x2="255.31" y2="41.42" xlink:href="#a" gradientTransform="translate(-7.66 -7.23)"/><linearGradient id="e" x1="328.23" y1="133.71" x2="328.23" y2="7.23" xlink:href="#a" gradientTransform="translate(-7.66 -7.23)"/><linearGradient id="f" x1="406.48" y1="135.77" x2="406.48" y2="41.42" xlink:href="#a" gradientTransform="translate(-7.66 -7.23)"/><linearGradient id="g" x1="488.35" y1="132.85" x2="488.35" y2="41.94" xlink:href="#a" gradientTransform="translate(-7.66 -7.23)"/><linearGradient xlink:href="#a" id="b" gradientUnits="userSpaceOnUse" x1="55.6" y1="132.85" x2="55.6" y2="10.26" gradientTransform="translate(-7.66 -7.23)"/></defs><path d="M0 3.03h53.2q19.78 0 31.24 9.38 11.46 9.38 11.45 28 0 17.57-10.67 27.81-10.67 10.24-29.1 10.22h-34.6v47.18H0zm21.52 17.91v40.11h30q23.41 0 23.42-20.14 0-20-25.31-20z" fill="url(#b)"/><path d="M153.05 34.19q20.31 0 32.37 12.74 12.06 12.74 12 34.27 0 21.69-12 34.43-12 12.74-32.37 12.74-20.84 0-33.05-12.74-12.21-12.74-12.23-34.43 0-21.53 12.31-34.27 12.31-12.74 32.97-12.74zm18 23.85q-6.63-8.35-18.33-8.35t-18.38 8.43q-6.72 8.45-6.72 23.08 0 15 6.72 23.41t18.59 8.44q11.53 0 18.16-8.53 6.63-8.53 6.63-23.5-.05-14.62-6.68-22.98z" fill="url(#c)"/><path d="M284.62 57l-19 5.6q-1.69-14.11-19.28-14.12-7.59 0-11.71 2.76a8.63 8.63 0 0 0-4.1 7.53 13.39 13.39 0 0 0 .25 2.76 5.07 5.07 0 0 0 1 2.15c.51.63 1 1.18 1.37 1.64a6.22 6.22 0 0 0 2.19 1.45l2.49 1.12a23.74 23.74 0 0 0 3.19 1l3.53.94c.86.23 2.26.55 4.22 1 1.96.45 3.44.72 4.47.95q6.72 1.55 9.73 2.32a78.39 78.39 0 0 1 8.78 3.1 29 29 0 0 1 8.52 4.82 25 25 0 0 1 5.07 6.84 21.16 21.16 0 0 1 2.33 10.07q0 13.43-10.51 21.35-10.51 7.92-28.23 7.92-18.95 0-29.1-7.92C213.06 115 210.6 111 207.6 103l20.15-5.79q1.59 16.7 21.59 16.7 8.61 0 13.86-3.53a10.82 10.82 0 0 0 5.25-9.38 9.25 9.25 0 0 0-1.29-5 10.16 10.16 0 0 0-4.22-3.53 34.11 34.11 0 0 0-5.6-2.24q-2.67-.76-7.15-1.8a28.62 28.62 0 0 0-2.92-.69q-18.94-4.65-24.11-7.23-12.22-5.85-12.22-19.46 0-12.57 9.64-19.71 9.64-7.14 26.69-7.15 16.35 0 26.77 7.06c6.9 4.71 8.58 8.75 10.58 15.75z" fill="url(#d)"/><path d="M346.74 36.77v14.3h-17.91V97.9q0 4.13.18 5.76a12.07 12.07 0 0 0 1 3.62 4.67 4.67 0 0 0 3 2.67 20.27 20.27 0 0 0 5.94.69 68.91 68.91 0 0 0 7.75-.35v15.48a114.18 114.18 0 0 1-13.26.69 46.33 46.33 0 0 1-9-.78 37.56 37.56 0 0 1-6.45-1.81 9.39 9.39 0 0 1-4.31-3.53q-1.71-2.49-2.67-4.13a15.67 15.67 0 0 1-1.37-5.77q-.44-4.12-.43-6.28V51.07H294.4v-14.3h14.81V14.09L328.83 0v36.77z" fill="url(#e)"/><path d="M440.23 97.9q-3.28 14.46-14.21 22.55-10.93 8.09-26.08 8.09-20.14 0-31.94-13t-11.79-33.31q0-20.83 12.13-34.46 12.13-13.63 30.9-13.6 19.45 0 30.82 13.35 11.37 13.35 11.36 36.41V86h-65.58q.33 13.43 6.71 20.74 6.38 7.31 17.73 7.32 8.1 0 13.17-3.87t8-12.31zm-18.43-25q-.85-11.19-7-17.65-6.15-6.46-15.75-6.45-9.64 0-15.58 6.2-5.94 6.2-7.32 17.9z" fill="url(#f)"/><path d="M506.68 53.82c-3.44-.34-5.74-.52-6.88-.52q-25.66 0-25.66 33.23v39.09h-19.45V36.77h18.42v17.74q9.47-19.8 29.79-19.8z" fill="url(#g)"/></svg>