<svg width="24" height="24" viewBox="0 0 24 24" fill="none" xmlns="http://www.w3.org/2000/svg">
<g clip-path="url(#clip0_3400_2251)">
<path d="M0.327151 12.0311C0.0691603 12.1261 -0.0638194 12.4121 0.0301617 12.6711L0.344166 13.5351L2.73504 11.1441L0.327151 12.0311Z" fill="#273773"/>
<path d="M2.59009 19.7109L4.03004 23.6707C4.07504 23.7957 4.16902 23.8977 4.28901 23.9527C4.35599 23.9837 4.42799 23.9997 4.49999 23.9997C4.559 23.9997 4.61699 23.9897 4.673 23.9687L6.26196 23.3828L2.59009 19.7109Z" fill="#273773"/>
<path d="M23.9694 16.33L22.3214 11.7991L18.3666 15.754L20.3265 15.032C20.5835 14.934 20.8735 15.068 20.9685 15.328C21.0645 15.587 20.9315 15.875 20.6725 15.97L18.1826 16.888C18.1256 16.909 18.0676 16.9189 18.0096 16.9189C17.8066 16.9189 17.6146 16.7939 17.5406 16.5919C17.5396 16.5889 17.5406 16.5859 17.5396 16.5829L13.3488 20.7738L23.6724 16.9699C23.9314 16.875 24.0643 16.5889 23.9694 16.33Z" fill="#273773"/>
<path d="M23.8535 8.14631L15.8538 0.146573C15.6588 -0.0484202 15.3418 -0.0484202 15.1468 0.146573L0.147343 15.146C-0.0476496 15.341 -0.0476496 15.658 0.147343 15.853L8.14708 23.8528C8.24406 23.9508 8.37207 23.9998 8.50008 23.9998C8.62809 23.9998 8.75606 23.9508 8.85407 23.8538L23.8535 8.85428C24.0485 8.65831 24.0485 8.34229 23.8535 8.14631ZM5.85417 13.8541L3.85423 15.854C3.75622 15.951 3.62825 16 3.50024 16C3.37223 16 3.24427 15.951 3.14625 15.854C2.95126 15.659 2.95126 15.342 3.14625 15.147L5.1462 13.1471C5.34119 12.9521 5.6582 12.9521 5.85319 13.1471C6.04818 13.3421 6.04917 13.6581 5.85417 13.8541ZM14.4889 14.4891C14.1349 14.8431 13.6539 15.0131 13.1189 15.0131C12.2349 15.0131 11.202 14.5501 10.338 13.6851C9.70599 13.0531 9.26201 12.2971 9.08904 11.5572C8.89705 10.7322 9.05506 10.0143 9.53401 9.53428C10.013 9.05429 10.731 8.89628 11.5569 9.08931C12.2969 9.26232 13.0529 9.70527 13.6848 10.3382C15.0738 11.7262 15.4278 13.5501 14.4889 14.4891ZM20.8536 8.85428L18.8537 10.8542C18.7557 10.9512 18.6277 11.0002 18.4997 11.0002C18.3717 11.0002 18.2437 10.9513 18.1457 10.8542C17.9507 10.6592 17.9507 10.3422 18.1457 10.1472L20.1457 8.14729C20.3407 7.9523 20.6577 7.9523 20.8527 8.14729C21.0477 8.34229 21.0486 8.65831 20.8536 8.85428Z" fill="#273773"/>
</g>
<defs>
<clipPath id="clip0_3400_2251">
<rect width="24" height="24" fill="white"/>
</clipPath>
</defs>
</svg>
