<svg width="26" height="24" viewBox="0 0 26 24" fill="none" xmlns="http://www.w3.org/2000/svg">
<path d="M25.4042 4.86563L22.6661 0.614063C22.4224 0.234375 21.9875 0 21.524 0H4.47412C4.0106 0 3.57575 0.234375 3.33204 0.614063L0.58915 4.86563C-0.825303 7.05938 0.426679 10.1109 3.06922 10.4625C3.26036 10.4859 3.45629 10.5 3.64743 10.5C4.89463 10.5 6.00326 9.96562 6.76305 9.14062C7.52284 9.96562 8.63146 10.5 9.87867 10.5C11.1259 10.5 12.2345 9.96562 12.9943 9.14062C13.7541 9.96562 14.8627 10.5 16.1099 10.5C17.3619 10.5 18.4657 9.96562 19.2255 9.14062C19.9901 9.96562 21.0939 10.5 22.3411 10.5C22.5371 10.5 22.7282 10.4859 22.9194 10.4625C25.5715 10.1156 26.8282 7.06406 25.409 4.86563H25.4042ZM23.1153 11.9484H23.1105C22.8572 11.9812 22.5992 12 22.3364 12C21.7438 12 21.1752 11.9109 20.6448 11.7516V18H5.35337V11.7469C4.81817 11.9109 4.24475 12 3.65221 12C3.38939 12 3.12656 11.9812 2.8733 11.9484H2.86852C2.6726 11.9203 2.48146 11.8875 2.2951 11.8406V21C2.2951 22.6547 3.66654 24 5.35337 24H20.6448C22.3316 24 23.703 22.6547 23.703 21V11.8406C23.5119 11.8875 23.3208 11.925 23.1153 11.9484Z" fill="#273773"/>
</svg>
