<svg width="28" height="26" viewBox="0 0 28 26" fill="none" xmlns="http://www.w3.org/2000/svg">
<path fill-rule="evenodd" clip-rule="evenodd" d="M24.8797 13.6005C27.8732 12.2699 28.8598 8.35196 27.1529 5.60679L26.5659 4.66289H26.5629L24.6228 1.53533C24.0346 0.585091 22.9913 0 21.8683 0H6.12994C5.0073 0 3.96433 0.58469 3.37606 1.53435L0.845083 5.60728C-0.857317 8.34846 0.126009 12.27 3.11853 13.6014V22.125C3.11853 24.2457 4.81508 26 6.94156 26H21.0567C23.1832 26 24.8797 24.2457 24.8797 22.125V13.6005ZM5.11853 14.057V22.125C5.11853 23.1757 5.95389 24 6.94156 24H21.0567C22.0443 24 22.8797 23.1757 22.8797 22.125V14.0567C22.7958 14.0605 22.7101 14.0625 22.6226 14.0625C21.5675 14.0625 20.5896 13.7805 19.7482 13.3009C18.9061 13.7812 17.9268 14.0625 16.8707 14.0625C15.8177 14.0625 14.8379 13.7814 13.9947 13.3011C13.1515 13.7814 12.1717 14.0625 11.1187 14.0625C10.0658 14.0625 9.08602 13.7814 8.24279 13.3011C7.39956 13.7814 6.41981 14.0625 5.36684 14.0625C5.28311 14.0625 5.20022 14.0606 5.11853 14.057ZM7.54179 11.3816C7.80023 11.2027 8.03557 10.9934 8.24279 10.7598C8.45002 10.9934 8.68536 11.2027 8.9438 11.3816C9.56004 11.8083 10.3076 12.0625 11.1187 12.0625C11.9299 12.0625 12.6775 11.8083 13.2937 11.3816C13.5521 11.2027 13.7875 10.9934 13.9947 10.7598C14.2019 10.9934 14.4373 11.2027 14.6957 11.3816C15.312 11.8083 16.0596 12.0625 16.8707 12.0625C17.6921 12.0625 18.4444 11.8038 19.0627 11.3702C19.3143 11.1938 19.5438 10.9884 19.7466 10.7598C19.9527 10.9907 20.1856 11.1978 20.4406 11.3754C21.0589 11.8058 21.8076 12.0625 22.6226 12.0625C22.8034 12.0625 22.9799 12.049 23.1563 12.0266C25.6044 11.6941 26.7645 8.76973 25.4544 6.66289H25.45L22.9225 2.58848C22.6976 2.22461 22.2962 2 21.8683 2H6.12994C5.70207 2 5.30067 2.22461 5.07571 2.58848L2.54381 6.66289C1.23816 8.76523 2.39384 11.6896 4.83311 12.0266C5.00955 12.049 5.1904 12.0625 5.36684 12.0625C6.17794 12.0625 6.92555 11.8083 7.54179 11.3816Z" fill="#273773"/>
</svg>
