<svg width="40" height="40" viewBox="0 0 40 40" fill="none" xmlns="http://www.w3.org/2000/svg">
<path fill-rule="evenodd" clip-rule="evenodd" d="M25.6606 8.04845C25.2183 8.15048 24.7382 8.37564 24.4456 8.61826C24.0837 8.91826 9.89352 23.1861 9.98188 23.1611C10.0365 23.1456 10.3161 23.1232 10.6032 23.1112C11.5435 23.0721 12.1262 23.2861 12.7253 23.8907C13.2707 24.4411 13.4952 24.9883 13.4979 25.7734L13.4993 26.2008L20.8065 18.8948C25.1355 14.5665 28.1698 11.5029 28.2514 11.378C28.4735 11.0376 28.5895 10.6838 28.6122 10.2767C28.6492 9.61145 28.4541 9.09145 28.0123 8.67798C27.7035 8.389 27.4924 8.263 27.0878 8.12618C26.7034 7.99621 26.043 7.96022 25.6606 8.04845ZM10.5227 9.83788C9.89261 10.0186 9.36237 10.4629 9.07382 11.0521C8.69116 11.8334 8.64879 12.6064 8.95077 13.2985C9.19874 13.867 9.39671 14.0908 11.667 16.3709L13.8552 18.5686L15.5849 16.8382L17.3147 15.1077L14.8704 12.6607C13.5261 11.3148 12.3476 10.1611 12.2515 10.0968C11.9267 9.87943 11.6757 9.8091 11.1742 9.79502C10.8655 9.78631 10.6541 9.80023 10.5227 9.83788ZM15.7648 10.7538C15.7648 11.521 15.7553 11.6351 15.6484 12.1582L15.532 12.7275L16.5725 13.7683L17.6129 14.8092L18.3701 14.0517L19.1273 13.2942L17.4461 11.6065L15.7648 9.91887V10.7538ZM29.3377 11.4328C29.2175 11.4644 28.985 11.5547 28.8211 11.6336C28.5289 11.7742 28.3781 11.9218 21.1801 19.1178C17.1415 23.1553 13.8372 26.4677 13.8372 26.4788C13.8372 26.49 14.0116 26.5001 14.2247 26.5013C14.6494 26.5036 14.9249 26.557 15.2856 26.7067C16.0318 27.0165 16.6349 27.7286 16.8439 28.5468C16.918 28.8366 16.9286 29.55 16.8638 29.8787C16.8422 29.988 16.8329 30.0858 16.843 30.0959C16.8531 30.106 20.1498 26.8228 24.169 22.7998L31.4766 15.4854L31.6759 15.0679C31.9091 14.5791 32.0009 14.2053 32 13.7479C31.9985 13.0262 31.771 12.4447 31.3091 11.9821C31.0028 11.6753 30.7578 11.53 30.3824 11.4327C30.0864 11.356 29.63 11.356 29.3377 11.4328ZM25.9399 21.6281L25.1858 22.3833L26.9794 24.1827C28.5032 25.7115 28.7912 26.0186 28.8936 26.2239C29.3031 27.0452 29.1969 27.9532 28.6075 28.6693C28.1202 29.2614 27.1383 29.4034 26.4692 28.9784C25.4747 28.3468 25.4306 26.9604 26.39 26.4909C26.5768 26.3994 26.6651 26.3812 26.9131 26.383C27.2614 26.3856 27.4309 26.4482 27.6669 26.6615C28.0355 26.9946 28.1781 27.6058 27.9072 27.6918C27.7824 27.7314 27.6287 27.6149 27.6287 27.4807C27.6287 27.3147 27.4665 27.0277 27.3162 26.9278C27.0604 26.7578 26.6974 26.7703 26.4334 26.9584C26.2268 27.1056 26.1381 27.3027 26.1393 27.6124C26.1412 28.0888 26.3666 28.4461 26.8029 28.6642C27.0009 28.7632 27.0941 28.7853 27.3125 28.7853C27.8157 28.7853 28.1592 28.6012 28.423 28.1898C28.9972 27.2947 28.6529 26.0989 27.6911 25.6475C26.6084 25.1393 25.3077 25.5708 24.7588 26.6202C24.4437 27.2227 24.3454 28.0003 24.503 28.6462C24.7355 29.5992 25.451 30.3453 26.4562 30.6829C26.7485 30.781 26.8255 30.7896 27.4101 30.7896C28.0015 30.7896 28.0697 30.7818 28.3839 30.6774C29.5076 30.3041 30.3714 29.5582 30.8669 28.5332C31.1495 27.9485 31.2253 27.6024 31.2253 26.8967C31.2253 26.181 31.1495 25.8434 30.8504 25.2267L30.6576 24.8289L28.6832 22.851C27.5973 21.763 26.7055 20.8729 26.7014 20.8729C26.6973 20.8729 26.3546 21.2128 25.9399 21.6281ZM23.1472 24.4218L21.4284 26.1416L22.7303 27.4436C23.8555 28.5688 24.1702 28.8655 24.0749 28.7112C24.0632 28.6923 24.0356 28.5177 24.0136 28.3232C23.903 27.3466 24.2603 26.3287 24.932 25.7066C25.4548 25.2223 26.0831 24.9909 26.8089 25.0151C27.0194 25.0222 27.1916 25.0189 27.1916 25.0078C27.1915 24.9817 24.9119 22.7019 24.8859 22.7019C24.875 22.7019 24.0926 23.4759 23.1472 24.4218ZM10.3992 23.5377C8.84958 23.6985 7.91386 24.8531 8.00627 26.4903C8.05229 27.3058 8.41727 28.1683 9.10005 29.075C10.1222 30.4325 11.6848 31.5851 12.9429 31.9097C13.2972 32.0011 13.3943 32.0101 13.8372 31.9929C14.3674 31.9722 14.761 31.8844 15.1026 31.7107C15.9919 31.2583 16.458 30.4321 16.4723 29.2823C16.4816 28.5418 16.3001 28.0696 15.8215 27.5882C15.2831 27.0468 14.479 26.8086 13.7614 26.9778C12.8293 27.1976 12.1505 28.0967 12.2168 29.0236C12.2394 29.3387 12.346 29.5931 12.5507 29.8197C12.7554 30.0464 12.9537 30.1661 13.2505 30.2422C13.9936 30.4326 14.7244 29.9172 14.7794 29.1638C14.8006 28.8734 14.6953 28.6374 14.4617 28.4515C14.3385 28.3534 14.2656 28.3288 14.0605 28.3157C13.6547 28.2898 13.4094 28.4733 13.3029 28.8822C13.2691 29.0121 13.219 29.1326 13.1915 29.15C13.0946 29.2116 12.9645 29.1828 12.9008 29.0856C12.758 28.8676 12.9959 28.306 13.3267 28.0799C13.5791 27.9073 13.766 27.8583 14.091 27.8795C14.5499 27.9095 14.9068 28.1512 15.1081 28.5683C15.2311 28.8231 15.2435 29.2986 15.1353 29.6103C14.9793 30.06 14.5635 30.4699 14.0955 30.6353C13.8051 30.738 13.2889 30.731 12.9826 30.6202C12.0913 30.298 11.6187 29.4034 11.8256 28.4302C11.8601 28.2676 11.8823 28.1285 11.8748 28.121C11.8673 28.1136 11.7565 28.1347 11.6286 28.1681C10.4251 28.4817 9.29941 27.6451 9.30255 26.4394C9.30387 25.9358 9.45947 25.5707 9.81427 25.2387C10.5719 24.5297 11.6582 24.6718 12.0479 25.5308C12.1534 25.7633 12.1559 26.2352 12.053 26.4619C11.8942 26.8117 11.5578 27.0716 11.1829 27.1341C11.0559 27.1553 10.9877 27.1462 10.9146 27.0983C10.7358 26.9811 10.8333 26.7178 11.0555 26.7178C11.224 26.7178 11.4926 26.5564 11.6036 26.3885C11.6885 26.2602 11.7092 26.1834 11.7067 26.0057C11.703 25.7449 11.6291 25.5836 11.4351 25.4133C10.9627 24.9983 10.1117 25.2836 9.81157 25.9575C9.68522 26.2412 9.69734 26.6665 9.8409 26.9855C9.97035 27.2733 10.2471 27.5542 10.5297 27.6848C10.6854 27.7568 10.7878 27.7712 11.1345 27.7702C11.4905 27.7691 11.5877 27.7539 11.7964 27.667C13.211 27.0775 13.5205 25.29 12.4023 24.1673C11.8992 23.6622 11.2293 23.4516 10.3992 23.5377Z" fill="black"/>
<path fill-rule="evenodd" clip-rule="evenodd" d="M20 38.3333C30.1252 38.3333 38.3333 30.1252 38.3333 20C38.3333 9.87478 30.1252 1.66667 20 1.66667C9.87478 1.66667 1.66667 9.87478 1.66667 20C1.66667 30.1252 9.87478 38.3333 20 38.3333ZM20 40C31.0457 40 40 31.0457 40 20C40 8.9543 31.0457 0 20 0C8.9543 0 0 8.9543 0 20C0 31.0457 8.9543 40 20 40Z" fill="#273773"/>
</svg>
