<svg width="40" height="40" viewBox="0 0 40 40" fill="none" xmlns="http://www.w3.org/2000/svg">
<path fill-rule="evenodd" clip-rule="evenodd" d="M19.4362 3.02739C19.914 3.12447 20.1911 3.73229 19.9799 4.22044C19.6186 5.0562 18.1745 4.74949 18.1745 3.83689C18.1745 3.27362 18.7694 2.89201 19.4362 3.02739ZM22.4854 5.14057C23.6081 5.83837 22.9352 7.60803 21.5503 7.60029C20.4341 7.59404 19.7168 6.70254 20.1029 5.80113C20.5076 4.85646 21.5595 4.56482 22.4854 5.14057ZM18.2582 6.49053C18.976 7.19435 18.6006 8.03398 17.5683 8.03398C16.5472 8.03398 16.1257 7.08523 16.858 6.435C17.3578 5.99162 17.7662 6.00776 18.2582 6.49053ZM24.4188 8.60694C24.6045 8.67345 24.7219 9.13233 24.7219 9.79246C24.7219 10.7914 24.6693 10.8871 23.9944 11.1131L23.2669 11.3568V14.1292V16.9017L26.0156 21.1311C27.5273 23.4573 29.4915 26.4177 30.3805 27.7099C32.1999 30.355 32.3944 31.1612 31.4215 32.0248C30.4166 32.9167 29.458 32.9989 20.04 33C10.4373 33.0013 9.28641 32.8997 8.46848 31.9768C7.58823 30.9837 7.82126 30.3016 10.2692 26.7044C11.5229 24.8619 13.4871 21.9012 14.6341 20.1248L16.7196 16.8948V14.0787C16.7196 11.5102 16.6813 11.2625 16.2831 11.2625C15.5689 11.2625 15.2646 10.8064 15.2646 9.73585C15.2646 9.0133 15.3737 8.68851 15.6482 8.5951C16.1046 8.4397 23.9813 8.45025 24.4188 8.60694ZM23.5094 9.92396C23.5094 10.0163 23.182 10.2016 22.7819 10.3357L22.0544 10.5794V13.9097V17.2398L23.6624 19.7934C24.5468 21.198 26.4564 24.1017 27.9061 26.2461C29.4566 28.5399 30.5417 30.3754 30.5417 30.7045C30.5417 31.7607 30.1329 31.8119 21.0845 31.8868C11.8859 31.9632 10.3643 31.8803 9.67174 31.2656C9.0672 30.729 9.16831 30.5101 11.7746 26.7091C12.9279 25.0266 14.7852 22.2242 15.9019 20.4815L17.932 17.3128V13.9461V10.5794L17.2046 10.3357C16.8045 10.2016 16.4771 10.0163 16.4771 9.92396C16.4771 9.83141 18.0594 9.75587 19.9932 9.75587C21.9271 9.75587 23.5094 9.83141 23.5094 9.92396ZM20.1841 18.2837C20.4819 18.5478 20.3728 19.3771 20.0049 19.6481C19.8094 19.7921 19.4256 19.8435 19.1423 19.7637C18.7408 19.6507 18.6479 19.4746 18.7063 18.9389C18.7662 18.3913 18.9015 18.2452 19.396 18.194C19.7345 18.1589 20.0893 18.1993 20.1841 18.2837ZM22.6352 22.0886C22.9218 22.2748 23.0387 22.5809 22.9847 23.0034C22.9124 23.5675 22.8113 23.6385 22.0823 23.6385C21.0037 23.6385 20.6009 22.8839 21.3328 22.2343C21.8968 21.7337 22.06 21.7154 22.6352 22.0886ZM18.8943 23.3026C19.4988 24.3053 18.0317 25.0856 17.3518 24.1228C17.1587 23.8495 17.1587 23.6428 17.3518 23.3695C17.7446 22.8133 18.5773 22.7772 18.8943 23.3026ZM26.2489 24.9603C26.6742 25.0703 28.838 27.8591 29.8092 29.5485C30.8897 31.4283 30.5558 31.4946 19.9932 31.4946C10.8743 31.4946 10.0932 31.427 9.85433 30.616C9.72799 30.1875 9.86573 29.9411 11.8697 27.0096C13.3111 24.9009 13.7435 24.6433 15.2074 25.0206C15.6429 25.1327 16.4536 25.5699 17.0091 25.9919C17.5647 26.414 18.2177 26.7595 18.4604 26.7595C18.7029 26.7595 19.8897 26.3645 21.0976 25.8817C23.2121 25.0367 25.1816 24.6844 26.2489 24.9603Z" fill="black"/>
<path fill-rule="evenodd" clip-rule="evenodd" d="M20 38.3333C30.1252 38.3333 38.3333 30.1252 38.3333 20C38.3333 9.87478 30.1252 1.66667 20 1.66667C9.87478 1.66667 1.66667 9.87478 1.66667 20C1.66667 30.1252 9.87478 38.3333 20 38.3333ZM20 40C31.0457 40 40 31.0457 40 20C40 8.9543 31.0457 0 20 0C8.9543 0 0 8.9543 0 20C0 31.0457 8.9543 40 20 40Z" fill="black"/>
</svg>
