<svg width="40" height="40" viewBox="0 0 40 40" fill="none" xmlns="http://www.w3.org/2000/svg">
<path fill-rule="evenodd" clip-rule="evenodd" d="M30.2827 7.45151C29.9767 8.41505 29.4076 9.35694 28.5962 10.2428C27.6955 11.2262 26.9592 11.8086 24.9648 13.1152C24.5079 13.4145 23.8192 13.886 23.4345 14.163C20.3508 16.3826 19.165 18.5474 19.1574 21.9711C19.1546 23.1974 19.3064 24.2937 19.6526 25.5477C19.8391 26.2232 20.1057 26.9783 20.1578 26.9783C20.1758 26.9783 20.224 26.871 20.2649 26.7399C20.5534 25.8156 21.323 24.7743 22.3347 23.9392C25.5211 21.3092 27.7209 18.7035 28.9483 16.1054C29.097 15.7907 29.2735 15.3779 29.3405 15.1881C29.4076 14.9983 29.4691 14.8503 29.4772 14.8592C29.499 14.883 29.3702 15.4732 29.2417 15.9385C28.8678 17.2926 28.225 18.5923 27.3549 19.7535C26.9374 20.3108 25.4568 21.9487 24.2894 23.1447C22.4471 25.0322 21.7133 25.8822 21.1751 26.7521C20.6164 27.6551 20.1689 28.8675 20.003 29.9278C19.8829 30.6957 19.8842 30.7218 20.0432 30.7218C20.114 30.7218 20.183 30.7021 20.1967 30.6781C20.2103 30.6539 20.2507 30.4518 20.2863 30.2287C20.3728 29.6876 20.6501 28.8431 20.8794 28.422C21.1334 27.9557 21.5766 27.4815 21.9297 27.298C22.4241 27.0411 22.8778 26.9439 25.3146 26.5727C28.3506 26.1102 30.1009 25.0789 31.393 22.9912C32.4755 21.2422 33.0031 19.2006 33 16.773C32.9965 14.073 32.2736 11.2434 30.6123 7.42767L30.4261 7L30.2827 7.45151ZM7.96245 13.7329C7.61768 14.891 7.25546 16.603 7.12429 17.6945C6.79329 20.448 7.12372 22.7807 8.11176 24.6662C8.47546 25.3602 8.75176 25.7547 9.26474 26.3123C10.0182 27.1311 10.7011 27.5732 11.6517 27.8572C12.3719 28.0725 12.7629 28.1076 14.8207 28.1423C16.7009 28.174 16.8 28.1802 17.0507 28.2808C17.4146 28.4268 17.7477 28.6894 17.9984 29.0279C18.2317 29.343 18.5542 30.0181 18.6773 30.4488C18.7371 30.6584 18.7799 30.731 18.8564 30.7526C18.9116 30.7682 18.9692 30.7674 18.9844 30.7508C19.0372 30.6933 18.8606 30.0213 18.674 29.5694C18.3299 28.7362 17.7974 27.9233 17.1935 27.3097C16.9348 27.0467 16.0822 26.3257 15.6444 25.9996C15.0507 25.5575 13.172 24.1062 12.9038 23.8825C12.7125 23.723 12.4716 23.5235 12.3684 23.4392C12.075 23.1994 11.3147 22.387 11.039 22.0187C10.7488 21.631 10.4204 21.1006 10.1974 20.6594C10.0039 20.2766 9.6729 19.4626 9.69914 19.434C9.70972 19.4225 9.78029 19.5396 9.85589 19.6944C10.2441 20.4888 11.6257 22.1461 12.6345 23.0277C13.6048 23.8756 14.7491 24.704 15.9934 25.4594C16.4041 25.7087 16.8827 26.0203 17.0571 26.1517C17.4673 26.4609 18.0106 27.0842 18.2272 27.4938C18.3211 27.6716 18.4123 27.7999 18.4296 27.7791C18.447 27.7584 18.4928 27.5804 18.5313 27.3837C18.8771 25.6177 18.7952 23.6362 18.3164 22.1856C18.1535 21.6922 17.8435 21.0298 17.6024 20.6597C17.4085 20.3622 16.8581 19.726 16.5571 19.4514C15.9966 18.9403 14.828 18.2417 13.5915 17.6787C11.1636 16.5732 10.4832 16.1859 9.57378 15.3922C9.06177 14.9452 8.4801 14.1791 8.21373 13.6007C8.15361 13.4701 8.0972 13.3633 8.08842 13.3633C8.07967 13.3633 8.02296 13.5297 7.96245 13.7329ZM21.4173 29.0425C21.4314 29.0674 21.5468 29.1028 21.6736 29.121C22.0824 29.1798 23.4009 29.5304 23.8615 29.7028C24.7866 30.0492 25.3365 30.4421 25.3365 30.7568C25.3365 31.023 24.8266 31.3523 24.0247 31.6041C21.7483 32.3187 17.7305 32.3805 15.1487 31.7407C14.2782 31.525 13.6985 31.2539 13.4675 30.9546C13.3236 30.768 13.3269 30.7136 13.4948 30.505C13.8572 30.0549 14.7331 29.6563 16.198 29.2751C16.4506 29.2093 16.6965 29.1438 16.7446 29.1295C16.9697 29.0624 15.8097 29.1566 15.3454 29.2431C13.725 29.5451 12.875 30.0785 12.875 30.7934C12.875 32.6432 19.1801 33.6656 23.4821 32.5133C24.9667 32.1157 25.7841 31.5579 25.8777 30.8785C25.9747 30.175 25.1696 29.5862 23.6788 29.2704C22.8968 29.1048 21.3651 28.9504 21.4173 29.0425Z" fill="#087C0D"/>
<path fill-rule="evenodd" clip-rule="evenodd" d="M20 38.3333C30.1252 38.3333 38.3333 30.1252 38.3333 20C38.3333 9.87478 30.1252 1.66667 20 1.66667C9.87478 1.66667 1.66667 9.87478 1.66667 20C1.66667 30.1252 9.87478 38.3333 20 38.3333ZM20 40C31.0457 40 40 31.0457 40 20C40 8.9543 31.0457 0 20 0C8.9543 0 0 8.9543 0 20C0 31.0457 8.9543 40 20 40Z" fill="#087C0D"/>
</svg>
