<?xml version="1.0" encoding="utf-8"?>
<!-- Generator: Adobe Illustrator 26.0.1, SVG Export Plug-In . SVG Version: 6.00 Build 0)  -->
<svg version="1.1" id="Layer_1" xmlns="http://www.w3.org/2000/svg" xmlns:xlink="http://www.w3.org/1999/xlink" x="0px" y="0px"
	 viewBox="0 0 340.2 238.7" style="enable-background:new 0 0 340.2 238.7;" xml:space="preserve">
<style type="text/css">
	.st0{fill:#273773;}
	.st1{fill:#24AFB2;}
</style>
<path class="st0" d="M80.8,0.1H81c-0.8,0-1.5,0-2.3,0c-7.1,0-14.2,1-21,2.9c-6.8,1.9-13.4,4.6-19.5,8.2c-22,13.2-36,37.4-36,66.9
	c0,43.7,32.8,77.8,76.4,77.8c0.7,0,1.3,0,2,0c13.7-0.2,27.1-4,38.8-11v15.9c0,24.3-16.4,42.9-40.8,42.9s-40.8-17.2-40.8-41.5H0
	c0,47.2,31.5,76.5,78.7,76.5c42.9,0,80.1-31.5,80.1-78V93l0,0V0L80.8,0.1z M78.7,118.8c-22.9,0-40-17.9-40-40.8
	c0-23.6,17.2-40.8,40-40.8c23.6,0,40.1,17.2,40.1,40.8C118.7,100.9,102.3,118.8,78.7,118.8z"/>
<path class="st1" d="M340.1,77.9c0-45-32-77.8-77.8-77.8c-44.4,0-77.8,32.8-77.8,77.8c0,43.7,33.3,77.8,77.8,77.8
	C308.2,155.7,340.1,121.5,340.1,77.9z"/>
</svg>
