<svg version="1.2" xmlns="http://www.w3.org/2000/svg" viewBox="0 0 80 80" width="80" height="80">
	<title>Barley-svg</title>
	<style>
		.s0 { fill: #000000 } 
	</style>
	<path id="Layer" fill-rule="evenodd" class="s0" d="m68.5 11.3c7.6 7.4 12 17.5 12.1 28.1 0.2 10.6-3.9 20.8-11.3 28.4-7.3 7.7-17.4 12-28 12.2h-2.5c-10.7-0.2-20.8-4.5-28.1-12.2-7.4-7.6-11.5-17.8-11.3-28.4 0.1-10.6 4.5-20.7 12.1-28.1 7.7-7.4 17.9-11.5 28.5-11.3 10.6-0.2 20.8 3.9 28.5 11.3zm7.3 28.1c-0.4-19.4-16.3-35-35.7-35-19.5 0-35.4 15.6-35.8 35-0.3 19.5 15 35.7 34.5 36.4v-12.3h2.5v12.3c19.5-0.7 34.8-16.9 34.5-36.4z"/>
	<path id="Layer" class="s0" d="m45.3 43.8q-1 0.6-1.7 1.4-0.8 0.8-1.3 1.8-0.6 1-0.8 2.1-0.3 1.1-0.3 2.2v1l2.7-1.7 4.6-2.9q0.9-0.6 1.7-1.4 0.8-0.8 1.3-1.8 0.6-1 0.8-2.1 0.3-1.1 0.3-2.2v-1l-2.7 1.7z"/>
	<path id="Layer" class="s0" d="m41.3 33.6v1l2.7-1.7 4.6-2.9q0.9-0.6 1.7-1.4 0.8-0.8 1.3-1.8 0.6-1 0.8-2.1 0.3-1.1 0.3-2.2v-1l-7.3 4.6q-1 0.6-1.7 1.4-0.8 0.8-1.3 1.8-0.6 1-0.8 2.1-0.3 1.1-0.3 2.2z"/>
	<path id="Layer" class="s0" d="m45.4 35q-1 0.6-1.7 1.4-0.8 0.8-1.3 1.8-0.6 1-0.8 2.1-0.3 1.1-0.3 2.2v1l2.7-1.7 4.6-2.9q0.9-0.6 1.7-1.4 0.8-0.8 1.3-1.8 0.6-1 0.8-2.1 0.3-1.1 0.3-2.2v-1l-2.8 1.7z"/>
	<path id="Layer" class="s0" d="m45.3 52.7q-1 0.6-1.7 1.4-0.8 0.8-1.3 1.8-0.6 1-0.8 2.1-0.3 1-0.3 2.2v1l7.3-4.6q0.9-0.6 1.7-1.4 0.8-0.8 1.3-1.8 0.6-1 0.8-2.1 0.3-1.1 0.3-2.2v-1l-2.7 1.7z"/>
	<path id="Layer" class="s0" d="m34.6 43.8l-4.6-2.9-2.7-1.7v1q0 1.1 0.3 2.2 0.3 1.1 0.8 2.1 0.5 0.9 1.3 1.8 0.8 0.8 1.7 1.4l4.6 2.9 2.7 1.7v-1q0-1.1-0.3-2.2-0.3-1.1-0.8-2.1-0.5-1-1.3-1.8-0.7-0.8-1.7-1.4z"/>
	<path id="Layer" class="s0" d="m34.6 35l-4.6-2.9-2.7-1.7v1q0 1.1 0.3 2.2 0.3 1.1 0.8 2.1 0.5 1 1.3 1.8 0.8 0.8 1.7 1.4l4.6 2.9 2.7 1.7v-1q0-1.1-0.3-2.2-0.2-1.1-0.8-2.1-0.5-1-1.3-1.8-0.7-0.8-1.7-1.4z"/>
	<path id="Layer" class="s0" d="m34.6 52.7l-4.6-2.9-2.7-1.7v1q0 1.1 0.3 2.2 0.3 1.1 0.8 2.1 0.5 0.9 1.3 1.8 0.8 0.8 1.7 1.4l7.3 4.6v-1q0-1.1-0.3-2.2-0.2-1.1-0.8-2.1-0.5-1-1.3-1.8-0.7-0.8-1.7-1.4z"/>
	<path id="Layer" class="s0" d="m34.6 26.1l-7.3-4.6v1q0 1.1 0.3 2.2 0.3 1.1 0.8 2.1 0.5 1 1.3 1.8 0.8 0.8 1.7 1.4l4.6 2.9 2.7 1.7v-1q0-1.1-0.3-2.2-0.2-1.1-0.8-2.1-0.5-1-1.3-1.8-0.7-0.8-1.7-1.4z"/>
	<path id="Layer" class="s0" d="m40.1 7.5l-0.1-0.2-0.1 0.2q-0.6 0.8-1 1.6-0.5 0.9-0.8 1.8-0.3 0.9-0.5 1.9-0.1 0.9-0.1 1.9 0 1 0.2 1.9 0.1 1 0.4 1.9 0.3 0.9 0.8 1.8 0.4 0.8 1 1.6l0.1 0.2 0.1-0.2q0.6-0.8 1-1.6 0.5-0.9 0.8-1.8 0.3-0.9 0.5-1.9 0.1-0.9 0.1-1.9 0-1-0.1-1.9-0.2-1-0.5-1.9-0.3-0.9-0.8-1.8-0.4-0.8-1-1.6z"/>
</svg>