<svg version="1.2" xmlns="http://www.w3.org/2000/svg" viewBox="0 0 40 40" width="40" height="40">
	<title>Cinnamon-svg</title>
	<style>
		.s0 { fill: #000000 } 
	</style>
	<path id="Layer" fill-rule="evenodd" class="s0" d="m27.1 8.1c0.4 0.2 0.6 0.3 0.9 0.6q0.7 0.6 0.6 1.6 0 0.6-0.3 1.1c-0.1 0.1-3.2 3.2-7.5 7.5l-7.3 7.3v-0.4c0-0.8-0.2-1.4-0.8-1.9-0.6-0.6-1.2-0.8-2.1-0.8-0.3 0-0.6 0-0.6 0.1-0.1 0 14.1-14.3 14.4-14.6 0.3-0.2 0.8-0.4 1.3-0.6 0.3 0 1 0 1.4 0.1zm-15.9 1.7c0.5 0 0.7 0.1 1.1 0.3 0 0.1 1.2 1.2 2.6 2.6l2.4 2.4-1.7 1.7-1.7 1.8-2.2-2.2c-2.3-2.3-2.5-2.5-2.7-3.1-0.4-0.7-0.3-1.5 0.1-2.2 0.3-0.6 0.8-1.1 1.4-1.3q0.2 0 0.7 0zm4.6 0.1l1.6 1.7 1.7 1.7-1.5 1.5-1-1-1.1-1.1 0.1-0.5c0.2-0.6 0.2-0.7 0.2-1.4zm14.6 1.5c0.4 0.1 0.6 0.2 0.9 0.5q0.7 0.7 0.7 1.8c0 0.4-0.1 0.8-0.3 1.3l-0.2 0.4-7.3 7.3c-4.1 4.1-7.3 7.3-7.4 7.3 0 0 0-0.1 0.1-0.2 0-0.3 0-1-0.1-1.3-0.2-0.8-0.8-1.5-1.5-1.9-0.4-0.1-0.7-0.2-1.1-0.2-0.2 0-0.4 0-0.4 0 0 0 3.3-3.3 7.4-7.3 7.2-7.2 7.3-7.4 7.6-7.5 0.2-0.1 0.4-0.2 0.5-0.2 0.3-0.1 0.8-0.1 1.1 0zm-3.7 9.4c0 0 0.9 0.9 2 2l2 2 0.2 0.4c0.2 0.6 0.3 0.9 0.3 1.6 0 0.7-0.1 1.1-0.3 1.7-0.5 1-1.4 1.7-2.5 2.1-0.3 0.1-0.4 0.1-1 0.1-0.6 0-0.7 0-0.9-0.1-1-0.3-1.8-1.1-2-2-0.2-0.7-0.1-1.4 0.3-2 0.5-1.1 1.8-1.5 2.9-1 1 0.4 1.3 1.6 0.7 2.5-0.2 0.4-0.6 0.6-1.1 0.6-0.2 0-0.3 0-0.5-0.1q-0.7-0.3-0.7-1.1c0-0.3 0.1-0.5 0.3-0.6 0.3-0.2 0.7-0.2 0.9 0 0.2 0.1 0.3 0.3 0.3 0.5 0 0.1 0.2 0.3 0.3 0.2 0.3-0.1 0.1-0.7-0.2-1-0.3-0.2-0.4-0.3-0.8-0.3-0.2 0-0.3 0-0.5 0.1-1 0.5-0.9 1.9 0.1 2.5 0.6 0.4 1.6 0.3 2.1-0.3 0.6-0.7 0.7-1.6 0.3-2.4-0.1-0.2-0.4-0.6-1.9-2.1l-1.8-1.8 0.7-0.7c0.5-0.5 0.8-0.8 0.8-0.8zm-1.8 1.8c0 0 2.3 2.3 2.3 2.3 0 0.1-0.2 0.1-0.4 0.1q-1.1-0.1-1.9 0.6c-0.6 0.7-1 1.7-0.9 2.7 0 0.2 0.1 0.3 0.1 0.3 0.1 0.2-0.2-0.1-1.4-1.2l-1.3-1.3 1.7-1.7c1-1 1.8-1.8 1.8-1.8zm-12.5 1.5c1.1 1.1 0.8 2.9-0.6 3.5-0.2 0.1-0.3 0.1-0.7 0.1-0.3 0-0.4 0-0.6-0.1-0.3-0.1-0.5-0.4-0.7-0.7-0.1-0.3-0.1-0.7 0-1 0.3-0.7 1.2-1 1.6-0.6 0.2 0.2 0.3 0.4 0.3 0.6 0 0.2 0 0.3-0.1 0.4-0.1 0.2-0.4 0.4-0.5 0.4-0.3 0-0.4 0.2-0.2 0.3 0.1 0.1 0.2 0.1 0.3 0.1 0.4-0.1 0.7-0.4 0.9-0.7 0.1-0.2 0.1-0.7-0.1-0.9-0.3-0.9-1.4-1-2.2-0.3-0.3 0.3-0.5 0.7-0.5 1.2 0 1.2 1.1 2 2.3 1.7 0.2 0 0.3-0.1 0.3 0 0 0 0 0.1-0.1 0.3-0.2 0.9 0.3 1.8 1.2 2.2 0.3 0.1 0.8 0.1 1.1 0 0.5-0.2 0.9-0.6 1-1.1 0.1-0.3 0.1-0.7 0-1-0.2-0.4-0.6-0.7-1-0.7-0.3 0-0.5 0-0.8 0.2-0.3 0.2-0.5 0.8-0.4 1 0.1 0.1 0.2 0.1 0.3 0.1 0 0 0.1-0.2 0.1-0.3q0.2-0.6 0.8-0.5c0.2 0 0.2 0 0.4 0.1q0.3 0.3 0.3 0.7c-0.1 0.8-0.8 1.3-1.5 1.1-0.3-0.1-0.5-0.2-0.7-0.4q-0.4-0.4-0.4-0.8c0-1 0.6-1.9 1.6-2.1 0.7-0.2 1.5 0.1 2 0.6 0.5 0.5 0.7 1 0.7 1.7q-0.1 1.8-1.4 2.4c-0.3 0.2-0.7 0.3-1.3 0.3-0.4 0-0.5 0-0.9-0.1-1.2-0.3-2.8-1.4-3.8-2.8q-1-1.4-1.1-2.6c-0.1-1.6 0.8-2.8 2.4-2.9q1.2-0.2 2 0.6z"/>
	<path id="Layer" fill-rule="evenodd" class="s0" d="m0 20c0-11 9-20 20-20 11 0 20 9 20 20 0 11-9 20-20 20-11 0-20-9-20-20zm20 18.3c10.1 0 18.3-8.2 18.3-18.3 0-10.1-8.2-18.3-18.3-18.3-10.1 0-18.3 8.2-18.3 18.3 0 10.1 8.2 18.3 18.3 18.3z"/>
	<g id="Folder 1">
	</g>
</svg>