<svg version="1.2" xmlns="http://www.w3.org/2000/svg" viewBox="0 0 40 40" width="40" height="40">
	<title>Citric-Acid-svg</title>
	<style>
		.s0 { fill: #000000 } 
	</style>
	<path id="Layer" fill-rule="evenodd" class="s0" d="m19.4 3c0.5 0.1 0.8 0.7 0.6 1.2-0.4 0.9-1.8 0.5-1.8-0.4 0-0.5 0.6-0.9 1.2-0.8zm3.1 2.1c1.1 0.7 0.4 2.5-0.9 2.5-1.2 0-1.9-0.9-1.5-1.8 0.4-0.9 1.5-1.2 2.4-0.7zm-4.2 1.4c0.7 0.7 0.3 1.5-0.7 1.5-1.1 0-1.5-0.9-0.7-1.6 0.5-0.4 0.9-0.4 1.4 0.1zm6.1 2.1c0.2 0.1 0.3 0.5 0.3 1.2 0 1 0 1.1-0.7 1.3l-0.7 0.3v5.5l2.7 4.2c1.5 2.4 3.5 5.3 4.4 6.6 1.8 2.7 2 3.5 1 4.3-1 0.9-1.9 1-11.4 1-9.6 0-10.7-0.1-11.5-1-0.9-1-0.7-1.7 1.8-5.3 1.2-1.8 3.2-4.8 4.3-6.6l2.1-3.2v-2.8c0-2.6 0-2.8-0.4-2.8-0.7 0-1-0.5-1-1.6 0-0.7 0.1-1 0.3-1.1 0.5-0.2 8.4-0.1 8.8 0zm-4.4 1.2c-1.9 0-3.5 0-3.5 0.1 0 0.1 0.3 0.3 0.7 0.4l0.7 0.3v6.7l-2 3.2c-1.1 1.7-3 4.5-4.1 6.2-2.6 3.8-2.7 4-2.1 4.6 0.7 0.6 2.2 0.7 11.4 0.6 9-0.1 9.4-0.1 9.4-1.2 0-0.3-1-2.2-2.6-4.5-1.4-2.1-3.4-5-4.2-6.4l-1.6-2.6v-6.6l0.7-0.3c0.4-0.1 0.7-0.3 0.7-0.4 0-0.1-1.6-0.1-3.5-0.1zm0.2 8.5c0.3 0.2 0.2 1.1-0.2 1.3-0.2 0.2-0.6 0.2-0.9 0.2-0.4-0.1-0.5-0.3-0.4-0.9 0.1-0.5 0.2-0.7 0.7-0.7 0.3 0 0.7 0 0.8 0.1zm2.4 3.8q0.5 0.3 0.4 0.9c-0.1 0.6-0.2 0.6-0.9 0.6-1.1 0-1.5-0.7-0.8-1.4 0.6-0.5 0.8-0.5 1.3-0.1zm-3.7 1.2c0.6 1-0.9 1.8-1.5 0.8-0.2-0.3-0.2-0.5 0-0.7 0.3-0.6 1.2-0.6 1.5-0.1zm7.3 1.7c0.5 0.1 2.6 2.9 3.6 4.5 1.1 1.9 0.8 2-9.8 2-9.1 0-9.9-0.1-10.1-0.9-0.2-0.4 0-0.7 2-3.6 1.4-2.1 1.8-2.4 3.3-2 0.4 0.1 1.3 0.6 1.8 1 0.6 0.4 1.2 0.8 1.5 0.8 0.2 0 1.4-0.4 2.6-0.9 2.1-0.9 4.1-1.2 5.1-0.9z"/>
	<g id="Folder 1">
	</g>
	<path id="Layer" fill-rule="evenodd" class="s0" d="m0 20c0-11 9-20 20-20 11 0 20 9 20 20 0 11-9 20-20 20-11 0-20-9-20-20zm20 18.3c10.1 0 18.3-8.2 18.3-18.3 0-10.1-8.2-18.3-18.3-18.3-10.1 0-18.3 8.2-18.3 18.3 0 10.1 8.2 18.3 18.3 18.3z"/>
</svg>