<svg width="40" height="40" viewBox="0 0 40 40" fill="none" xmlns="http://www.w3.org/2000/svg">
<path d="M35.484 30.4166L33.984 31.9166L27.5 26.5L27.484 23.9165L35.484 30.4166Z" fill="#087C0D"/>
<path d="M4 9.53497L5.41421 8.12076L13 14.5L13 17L4 9.53497Z" fill="#087C0D"/>
<path fill-rule="evenodd" clip-rule="evenodd" d="M16.375 9.22707C16.2509 9.35199 16.1495 9.51194 16.1495 9.58263C16.1495 9.65333 16.2509 9.81328 16.375 9.93819C16.5422 10.1066 16.6735 10.1653 16.8835 10.1653H17.1665L17.1402 10.9615C17.1029 12.0882 16.9575 12.3567 15.6144 13.7777C14.9214 14.5111 14.4606 15.0714 14.2898 15.3886L14.0278 15.8751L14.0077 22.5948C13.9889 28.88 13.9964 29.3317 14.1235 29.5808C14.1981 29.7273 14.3572 29.9196 14.477 30.0081C14.6914 30.1664 14.7748 30.1693 19.7233 30.1892C25.3364 30.2117 25.0912 30.2338 25.464 29.672L25.6391 29.408V22.7484C25.6391 15.4356 25.6624 15.8123 25.164 15.0779C25.0266 14.8755 24.4957 14.2725 23.9844 13.738C23.3549 13.0801 22.9692 12.6042 22.7904 12.2646C22.5508 11.8097 22.5229 11.6889 22.4909 10.9642L22.4557 10.1653H22.6936C23.0367 10.1653 23.3013 10.0209 23.4006 9.77948C23.5102 9.51318 23.3868 9.20889 23.1196 9.08623C22.9915 9.0275 21.9216 9 19.766 9H16.6005L16.375 9.22707Z" fill="#087C0D"/>
<path fill-rule="evenodd" clip-rule="evenodd" d="M20 38.3333C30.1252 38.3333 38.3333 30.1252 38.3333 20C38.3333 9.87478 30.1252 1.66667 20 1.66667C9.87478 1.66667 1.66667 9.87478 1.66667 20C1.66667 30.1252 9.87478 38.3333 20 38.3333ZM20 40C31.0457 40 40 31.0457 40 20C40 8.9543 31.0457 0 20 0C8.9543 0 0 8.9543 0 20C0 31.0457 8.9543 40 20 40Z" fill="#087C0D"/>
</svg>
