<svg version="1.2" xmlns="http://www.w3.org/2000/svg" viewBox="0 0 80 80" width="80" height="80">
	<title>Fish-svg</title>
	<style>
		.s0 { fill: #000000 } 
	</style>
	<path id="Layer" fill-rule="evenodd" class="s0" d="m40 80c-16.2 0-30.8-9.7-37-24.7-6.1-14.9-2.7-32.1 8.7-43.6 11.5-11.4 28.7-14.8 43.6-8.7 15 6.2 24.7 20.8 24.7 37 0 5.3-1 10.5-3 15.3-2.1 4.9-5 9.3-8.7 13-3.7 3.7-8.1 6.6-13 8.7-4.8 2-10 3-15.3 3zm0-75.8c-14.5 0-27.6 8.7-33.1 22.1-5.5 13.4-2.5 28.8 7.8 39 10.2 10.3 25.6 13.3 39 7.8 13.4-5.5 22.1-18.6 22.1-33.1 0-4.7-0.9-9.4-2.7-13.7-1.8-4.4-4.4-8.3-7.8-11.6-3.3-3.4-7.2-6-11.6-7.8-4.3-1.8-9-2.7-13.7-2.7z"/>
	<path id="Layer" class="s0" d="m54.9 22.7q-0.1 0-0.2 0-0.1 0.1-0.1 0.1-0.1 0-0.2 0.1-0.1 0-0.1 0.1-0.2 0.1-0.3 0.3 0 0.2 0 0.4 0 0.2 0 0.4 0.1 0.1 0.3 0.3 0.1 0.1 0.3 0.2 0.1 0 0.3 0 0.2 0 0.4 0 0.2-0.1 0.3-0.2 0.2-0.2 0.2-0.3 0.1-0.2 0.1-0.4 0-0.2-0.1-0.4 0-0.2-0.2-0.3 0-0.1-0.1-0.1-0.1-0.1-0.2-0.1-0.1-0.1-0.2-0.1-0.1 0-0.2 0z"/>
	<path id="Layer" fill-rule="evenodd" class="s0" d="m53.6 40c-5.2 5.2-11.8 8.5-17.9 9.1l-1.1 4-2.5 9q0 0.3-0.2 0.4-0.3 0.2-0.6 0.2-0.2 0-0.5-0.2-0.2-0.1-0.2-0.4-0.5-2.3-1.6-4.4-1.2-2.1-2.8-3.8-1.7-1.7-3.8-2.9-2.1-1.1-4.5-1.6-0.2 0-0.4-0.2-0.2-0.2-0.2-0.5 0-0.3 0.2-0.5 0.1-0.3 0.4-0.3l9-2.5 4.1-1.1q0.1-0.7 0.2-1.5 0.1-0.7 0.3-1.5 0.1-0.7 0.4-1.4 0.2-0.8 0.4-1.5l-1.8-0.9q-0.1-0.1-0.2-0.2-0.1 0-0.2-0.2 0-0.1-0.1-0.2 0-0.1 0-0.3c0.4-2.7 2.4-6.3 4.6-9.5q0.3-0.6 0.7-1.1 0.4-0.6 0.9-1.1 0.4-0.6 0.8-1.1 0.4-0.5 0.9-1 0.3-0.4 0.6-0.8 0.4-0.3 0.7-0.6 0.4-0.4 0.8-0.7 0.4-0.2 0.8-0.5 0 0 0.1 0 0 0 0-0.1 0.1 0 0.1 0 0.1 0 0.1 0 0 0 0.1 0 0 0 0.1 0 0 0 0.1 0.1 0 0 0.1 0l4.1 1.7q1.5-1 3.1-1.8 1.6-0.8 3.4-1.4 1.7-0.6 3.5-1 1.8-0.3 3.6-0.4 0.3-0.1 0.7 0 0.3 0 0.6 0 0.4 0 0.7 0 0.4 0 0.7 0.1 0.1 0 0.3 0 0.1 0.1 0.2 0.2 0.1 0.1 0.2 0.2 0 0.1 0 0.3c0.9 7.2-2.6 15.5-9 21.9zm-13.6-13.6q0.5-0.4 1-0.9 0.4-0.4 0.9-0.9 0.5-0.4 1.1-0.8 0.5-0.4 1-0.8l-2.8-1.2q-0.3 0.3-0.5 0.5-0.3 0.2-0.6 0.5-0.3 0.2-0.5 0.5-0.3 0.3-0.5 0.5-0.4 0.5-0.8 1-0.5 0.6-0.9 1.1-0.4 0.5-0.7 1-0.4 0.6-0.8 1.1-0.7 0.9-1.3 1.9-0.6 1-1.1 2.1-0.5 1-1 2.1-0.4 1.1-0.8 2.2l1.2 0.6q0.6-1.5 1.4-2.9 0.8-1.4 1.7-2.7 0.8-1.3 1.9-2.5 1-1.2 2.1-2.3zm11.7 5.2c0-0.3-0.1-0.5-0.4-0.6-0.2-0.1-0.5-0.1-0.7 0-0.2 0.1-0.4 0.3-0.5 0.6l-1.2 2q0-0.2-0.2-0.4-0.1-0.2-0.2-0.4-0.1-0.2-0.3-0.4-0.1-0.2-0.3-0.3-0.1-0.2-0.3-0.3-0.2-0.2-0.4-0.3-0.2-0.1-0.4-0.2-0.2-0.1-0.4-0.2l2.1-1.3q0.2-0.1 0.3-0.3 0.1-0.3 0.1-0.6-0.1-0.2-0.3-0.4-0.2-0.2-0.5-0.2-0.1 0-0.1 0-0.1 0-0.1 0.1-0.1 0-0.2 0 0 0-0.1 0l-3.4 2.1q-0.2 0.1-0.3 0.3-0.1 0.2-0.1 0.4 0 0.3 0.1 0.4 0.1 0.2 0.3 0.3 0.4 0.1 0.7 0.3 0.3 0.1 0.7 0.3 0.3 0.1 0.6 0.3 0.3 0.2 0.6 0.3 0.2 0.3 0.4 0.6 0.2 0.3 0.3 0.6 0.2 0.3 0.3 0.7 0.1 0.3 0.2 0.6 0.1 0.2 0.3 0.4 0.2 0.1 0.4 0.1 0.2 0 0.4-0.1 0.2-0.1 0.3-0.3l2.1-3.4c0.2-0.2 0.3-0.4 0.2-0.7zm8.2-4.4q0.4-1.4 0.7-2.8 0.3-1.4 0.4-2.8 0.1-1.4 0.1-2.8-0.6 0-1.2 0-1.4 0-2.7 0.2-1.3 0.2-2.6 0.5-1.3 0.3-2.5 0.8-1.2 0.5-2.4 1.1c-0.1 1.2 0 2.4 0.4 3.5 0.4 1.2 1.1 2.2 2 3 0.9 0.8 2 1.4 3.1 1.7 1.2 0.3 2.4 0.4 3.6 0.2q0.6-1.3 1.1-2.6z"/>
</svg>