<svg width="40" height="40" viewBox="0 0 40 40" fill="none" xmlns="http://www.w3.org/2000/svg">
<path fill-rule="evenodd" clip-rule="evenodd" d="M19.6696 6.0589C19.3696 6.16702 19.1868 6.31973 19.0385 6.58658C18.9473 6.75039 18.9258 7.04942 18.9077 8.40798L18.8859 10.0334L17.2863 8.46191C15.9164 7.11628 15.6509 6.8841 15.4384 6.84558C14.5678 6.68804 13.8913 7.48138 14.2013 8.29633C14.2398 8.3974 15.3119 9.50897 16.5838 10.7665L18.8963 13.0529V16.0768C18.8963 17.7399 18.8708 19.0909 18.8396 19.0789C18.566 18.9739 13.6481 16.1056 13.6062 16.0267C13.5761 15.9698 13.1889 14.5893 12.7459 12.9588C12.3029 11.3285 11.8984 9.91436 11.847 9.81636C11.4512 9.06128 10.3546 9.05951 9.96469 9.81342C9.74828 10.2319 9.69693 9.97789 10.8868 14.3733C10.9185 14.4904 10.9244 14.5757 10.8999 14.5628C10.8755 14.5499 10.2395 14.1945 9.48667 13.773C7.95203 12.9137 7.77924 12.8597 7.31538 13.0954C6.878 13.3175 6.7011 13.6127 6.73326 14.0667C6.77377 14.6388 6.89071 14.7469 8.3589 15.5697C9.07682 15.9721 9.7011 16.3344 9.74617 16.3749C9.80804 16.4306 9.32354 16.5813 7.76077 16.9922C6.62374 17.2912 5.59874 17.5928 5.48306 17.6624C5.24442 17.8059 4.99783 18.2534 5.00001 18.5391C5.00233 18.8435 5.23317 19.2695 5.47452 19.4147C5.91369 19.679 5.93725 19.6752 9.24995 18.8021C10.9702 18.3486 12.4196 17.9782 12.4709 17.9788C12.5704 17.9799 17.7701 20.928 17.7701 20.9832C17.7701 21.043 12.566 23.9866 12.4603 23.9866C12.4031 23.9866 11.4081 23.7355 10.2492 23.4286C6.117 22.3343 6.13275 22.3381 5.89827 22.3815C4.97004 22.5533 4.67792 23.7684 5.44117 24.283C5.55321 24.3585 6.54399 24.6552 7.73099 24.9684C8.88172 25.2721 9.80242 25.5408 9.77687 25.5652C9.75133 25.5897 9.14969 25.9358 8.43991 26.3344C7.73013 26.733 7.06899 27.1452 6.97065 27.2504C6.31679 27.9506 6.94464 29.1277 7.90167 28.996C8.04091 28.9768 8.68504 28.6552 9.43261 28.2316C10.1424 27.8294 10.7737 27.4735 10.8355 27.4406C10.9397 27.3851 10.9412 27.4035 10.8568 27.6913C10.4567 29.0549 9.82968 31.5247 9.82968 31.7367C9.82968 32.0287 10.0166 32.3486 10.3143 32.5663C10.4539 32.6683 10.5992 32.7028 10.8886 32.7028C11.3003 32.7028 11.521 32.5945 11.7607 32.2744C11.8263 32.1868 12.2599 30.7137 12.7244 29.0008L13.5688 25.8863L16.1739 24.3978C17.6067 23.5791 18.8055 22.8995 18.8377 22.8875C18.8712 22.8751 18.8963 24.1602 18.8963 25.8897V28.9136L16.5522 31.2326C14.503 33.2599 14.1989 33.5865 14.1342 33.8291C13.9094 34.6713 14.7303 35.3898 15.5665 35.0829C15.6689 35.0452 16.4601 34.3183 17.3245 33.4674L18.8963 31.9204V33.5256C18.8963 35.0752 18.9016 35.1405 19.0487 35.415C19.2164 35.7278 19.641 36 19.9613 36C20.385 36 20.7533 35.7459 20.9552 35.3145C21.063 35.0838 21.0775 34.87 21.0788 33.4868L21.0803 31.9204L22.652 33.4636C23.5165 34.3124 24.2888 35.0393 24.3683 35.079C24.743 35.2662 25.3946 35.0852 25.6702 34.7173C25.8183 34.5197 25.8783 34.1394 25.8149 33.8006C25.7741 33.5824 25.478 33.2643 23.4236 31.2311L21.0789 28.9106L21.0961 25.8922L21.1133 22.8738L23.6944 24.3473C25.1139 25.1577 26.3078 25.8561 26.3474 25.8993C26.3869 25.9425 26.7882 27.3421 27.2389 29.0095C27.725 30.8074 28.1138 32.122 28.1943 32.2398C28.5279 32.7281 29.0817 32.8663 29.583 32.5862C29.882 32.4192 30.1445 32.0161 30.1451 31.7235C30.1453 31.6158 29.8944 30.6028 29.5877 29.4725C29.2809 28.3421 29.0355 27.4118 29.0424 27.4051C29.0493 27.3983 29.6803 27.7501 30.4447 28.1868C31.7681 28.943 31.8521 28.9809 32.2036 28.9811C32.5026 28.9812 32.6171 28.9479 32.8065 28.8054C33.1276 28.5638 33.28 28.2254 33.2423 27.8379C33.1927 27.3287 33.042 27.1949 31.6177 26.3968C30.8997 25.9944 30.2753 25.632 30.2301 25.5913C30.1679 25.5352 30.6482 25.386 32.2155 24.9748C33.3527 24.6763 34.3778 24.3749 34.4935 24.3049C34.7807 24.1311 35.0047 23.6629 34.9595 23.331C34.884 22.7756 34.3293 22.3018 33.8342 22.3698C33.7171 22.3859 32.2812 22.7576 30.6432 23.196C29.0053 23.6343 27.6205 23.9959 27.5659 23.9994C27.4342 24.0079 22.3046 21.0672 22.3046 20.9832C22.3046 20.9166 27.4128 17.9639 27.5328 17.9613C27.5692 17.9604 29.017 18.3356 30.7501 18.7949C34.2799 19.7304 34.2197 19.7227 34.654 19.2942C35.1961 18.7594 35.0867 17.9463 34.4273 17.6099C34.3129 17.5516 33.3009 17.2635 32.1785 16.9699L30.1377 16.4359L31.4969 15.6682C32.2989 15.2152 32.9371 14.8095 33.0535 14.6787C33.5129 14.1625 33.3361 13.3894 32.6878 13.0797C32.2184 12.8556 32.0444 12.9122 30.5041 13.7896C29.7446 14.2221 29.1133 14.5662 29.101 14.5541C29.0888 14.542 29.2771 13.8021 29.5197 12.9099C30.2512 10.2183 30.2217 10.354 30.1404 10.0559C30.0329 9.66214 29.6554 9.31963 29.2652 9.26191C29.0044 9.22333 28.8989 9.24213 28.6412 9.37297C28.4682 9.46079 28.2766 9.62238 28.208 9.73827C28.1403 9.85253 27.7076 11.331 27.2464 13.0237L26.4077 16.1015L23.744 17.6225L21.0803 19.1436V16.0982V13.0528L23.4577 10.7012C25.7675 8.4164 25.8364 8.34093 25.8797 8.04679C25.9948 7.26377 25.2735 6.65337 24.4987 6.87803C24.272 6.94378 23.9485 7.22799 22.652 8.50063L21.0803 10.0435V8.42195C21.0803 6.90728 21.0713 6.7846 20.9444 6.56183C20.681 6.09958 20.1443 5.88784 19.6696 6.0589Z" fill="black"/>
<path fill-rule="evenodd" clip-rule="evenodd" d="M20 38.3333C30.1252 38.3333 38.3333 30.1252 38.3333 20C38.3333 9.87478 30.1252 1.66667 20 1.66667C9.87478 1.66667 1.66667 9.87478 1.66667 20C1.66667 30.1252 9.87478 38.3333 20 38.3333ZM20 40C31.0457 40 40 31.0457 40 20C40 8.9543 31.0457 0 20 0C8.9543 0 0 8.9543 0 20C0 31.0457 8.9543 40 20 40Z" fill="black"/>
</svg>
