<svg width="40" height="40" viewBox="0 0 40 40" fill="none" xmlns="http://www.w3.org/2000/svg">
<path fill-rule="evenodd" clip-rule="evenodd" d="M20 38.3333C30.1252 38.3333 38.3333 30.1252 38.3333 20C38.3333 9.87478 30.1252 1.66667 20 1.66667C9.87478 1.66667 1.66667 9.87478 1.66667 20C1.66667 30.1252 9.87478 38.3333 20 38.3333ZM20 40C31.0457 40 40 31.0457 40 20C40 8.9543 31.0457 0 20 0C8.9543 0 0 8.9543 0 20C0 31.0457 8.9543 40 20 40Z" fill="#087C0D"/>
<path fill-rule="evenodd" clip-rule="evenodd" d="M19.1335 5.58537C17.1082 7.33148 17.1884 10.6185 19.2954 12.2211L19.9738 12.7373L20.6523 12.2211C22.7593 10.6185 22.8394 7.33148 20.8141 5.58537C20.4406 5.26352 20.0625 5 19.9738 5C19.8852 5 19.507 5.26352 19.1335 5.58537ZM10.8677 10.9355C10.3601 13.0315 12.488 15.6536 15.2069 16.2821C16.7994 16.6504 17.1384 16.4888 17.1384 15.3624C17.1384 12.8821 14.9873 10.7205 12.206 10.4056C11.0481 10.2745 11.0257 10.2835 10.8677 10.9355ZM26.2891 10.7188C24.9768 11.2122 23.4403 12.6135 23.0627 13.6609C22.9015 14.1073 22.8077 14.9034 22.8541 15.4303L22.9382 16.3881L23.9019 16.3415C26.9222 16.1955 29.8035 13.1637 29.1055 10.8665C28.9712 10.425 28.7861 10.3224 28.1301 10.3262C27.6847 10.3288 26.8562 10.5055 26.2891 10.7188ZM19.06 14.0371L18.4272 14.5594V24.3134C18.4272 35.1922 18.4138 35.1051 20.0571 34.9723C21.524 34.854 21.5276 34.8261 21.4562 24.0855L21.3915 14.3281L20.783 13.9213C19.9975 13.3961 19.8217 13.4079 19.06 14.0371ZM10.4364 17.73C10.4364 19.1043 11.4845 20.818 12.81 21.6109C13.8531 22.2348 16.3865 22.8134 16.9087 22.5469C17.3291 22.3323 17.0211 20.5366 16.3883 19.5121C15.4131 17.9337 13.0427 16.7074 10.9667 16.7074C10.505 16.7074 10.4364 16.8398 10.4364 17.73ZM27.4475 16.9062C24.7598 17.5814 22.6273 19.8699 22.8544 21.8355C22.9376 22.5577 22.9441 22.5609 24.1896 22.5248C25.7708 22.4788 27.5259 21.6192 28.5892 20.3699C29.2032 19.6486 29.38 19.1873 29.4648 18.0866L29.5713 16.7074L28.8323 16.7257C28.426 16.7357 27.8027 16.8171 27.4475 16.9062ZM10.0683 23.4494C9.78351 24.0623 10.4318 26.0042 11.2216 26.9046C12.214 28.036 14.214 28.8866 15.675 28.7989L16.7517 28.7342L16.6883 27.7165C16.6128 26.5012 15.9503 25.3639 14.7757 24.4328C13.3286 23.2857 10.4261 22.6795 10.0683 23.4494ZM27.0673 23.4335C25.0049 24.0569 23.3037 25.9757 23.2341 27.7571L23.1959 28.7342L24.2935 28.7997C25.7117 28.8844 27.7741 27.9885 28.7683 26.8559C29.5226 25.9965 30.2067 24.0005 29.942 23.4309C29.7453 23.0075 28.4732 23.0086 27.0673 23.4335Z" fill="#087C0D"/>
</svg>
