<svg version="1.2" xmlns="http://www.w3.org/2000/svg" viewBox="0 0 80 80" width="80" height="80">
	<title>Lupin-svg</title>
	<style>
		.s0 { fill: #000000 } 
	</style>
	<path id="Layer" fill-rule="evenodd" class="s0" d="m40 80c-16.2 0-30.8-9.7-37-24.7-6.1-14.9-2.7-32.1 8.7-43.6 11.5-11.4 28.7-14.8 43.6-8.7 15 6.2 24.7 20.8 24.7 37 0 5.3-1 10.5-3 15.3-2.1 4.9-5 9.3-8.7 13-3.7 3.7-8.1 6.6-13 8.7-4.8 2-10 3-15.3 3zm0-75.8c-14.5 0-27.6 8.7-33.1 22.1-5.5 13.4-2.5 28.8 7.8 39 10.2 10.3 25.6 13.3 39 7.8 13.4-5.5 22.1-18.6 22.1-33.1 0-4.7-0.9-9.4-2.7-13.7-1.8-4.4-4.4-8.3-7.8-11.6-3.3-3.4-7.2-6-11.6-7.8-4.3-1.8-9-2.7-13.7-2.7z"/>
	<path id="Layer" fill-rule="evenodd" class="s0" d="m54.3 27.9q-0.1 0-0.2 0-0.1 0-0.2-0.1 0 0-0.1 0-0.1 0.7-0.3 1.5-0.2 0.7-0.4 1.4-0.2 0.7-0.5 1.4-0.3 0.7-0.6 1.4 0.2 0 0.3 0 0.2-0.1 0.4-0.1 0.2-0.1 0.3-0.1 0.2 0 0.4-0.1l0.3-0.1q0.4-0.1 0.7-0.1 0.4-0.1 0.8-0.1 0.4 0 0.7 0 0.4 0 0.8 0l0.2 0.1q0.1 0 0.1 0 0.1 0 0.2 0 0 0 0.1 0 0 0 0.1 0c0.8 0.2 1.5 0.7 2 1.4 0.4 0.6 0.6 1.4 0.5 2.2-0.1 0.8-0.5 1.6-1.1 2.1-0.7 0.5-1.5 0.8-2.3 0.7q0 0-0.1 0-0.1 0-0.1 0-0.1 0-0.1 0-0.1 0-0.2 0h-0.2q-0.4 0-0.7-0.1-0.4-0.1-0.8-0.2-0.3-0.1-0.7-0.3-0.3-0.2-0.6-0.3l-0.3-0.2q-0.2-0.1-0.3-0.2-0.2-0.1-0.3-0.2-0.2 0-0.3-0.1-0.1-0.1-0.3-0.1l-0.3-0.2h-0.1q-0.1 0-0.2-0.1-0.2 0-0.3-0.1-0.1-0.1-0.2-0.1-0.1-0.1-0.3-0.2-0.5 0.9-1.2 1.8-0.7 1-1.4 1.8-0.8 0.8-1.6 1.6-0.8 0.7-1.8 1.4 0.2 0 0.3 0 0.1 0 0.2 0 0.1 0.1 0.2 0.1 0.1 0 0.3 0h0.3q0.4 0 0.7 0.1 0.4 0.1 0.8 0.2 0.3 0.1 0.7 0.3 0.4 0.1 0.7 0.3l0.2 0.1q0 0.1 0.1 0.1 0.1 0 0.1 0.1 0.1 0 0.1 0 0.1 0.1 0.1 0.1 0.5 0.3 0.8 0.8 0.4 0.5 0.5 1.1 0.2 0.6 0.1 1.2 0 0.6-0.3 1.1-0.2 0.4-0.5 0.7-0.3 0.3-0.7 0.5-0.4 0.3-0.8 0.4-0.4 0.1-0.8 0.1-0.2 0-0.3 0-0.2 0-0.4-0.1-0.1 0-0.3 0-0.2-0.1-0.3-0.2-0.1 0-0.1 0-0.1 0-0.1 0-0.1-0.1-0.2-0.1 0 0-0.1-0.1c0 0.1 0 0.2 0 0.4q0.2 0.5 0.1 1.1-0.1 0.6-0.4 1.2-0.3 0.5-0.7 0.9-0.5 0.4-1 0.6-0.2 0.1-0.3 0.1-0.1 0-0.2 0-0.2 0.1-0.3 0.1-0.1 0-0.2 0-0.5 0-1-0.2-0.4-0.1-0.8-0.4-0.4-0.3-0.7-0.6-0.3-0.4-0.5-0.8-0.1-0.1-0.1-0.1 0-0.1-0.1-0.1 0-0.1 0-0.2 0 0 0-0.1l-0.1-0.2q-0.1-0.4-0.2-0.7-0.1-0.4-0.2-0.8 0-0.4 0-0.7-0.1-0.4 0-0.8 0-0.2 0-0.3 0-0.2 0-0.4 0-0.1 0-0.3 0-0.2 0-0.3 0-0.2 0-0.4c0-0.1 0-0.2 0-0.3l-1 0.5c-1.7 0.9-3.7 2-6.5 3.8q0.1 0 0.2 0 0.1 0 0.2 0.1 0.1 0 0.2 0 0.1 0 0.2 0h0.3q0.4 0 0.8 0.1 0.4 0.1 0.7 0.2 0.4 0.1 0.7 0.3 0.4 0.1 0.7 0.3l0.2 0.1q0.1 0 0.1 0.1 0.1 0 0.2 0 0 0.1 0.1 0.1 0 0 0.1 0.1 0.5 0.3 0.8 0.8 0.4 0.5 0.5 1.1 0.2 0.6 0.1 1.2 0 0.6-0.3 1.1-0.2 0.4-0.5 0.7-0.3 0.3-0.7 0.6-0.4 0.2-0.8 0.3-0.4 0.1-0.9 0.1-0.2 0-0.3 0-0.2 0-0.3 0-0.2-0.1-0.4-0.1-0.1 0-0.3-0.1l-0.3-0.1q0.1 0 0.1 0.1 0 0 0 0 0 0.1 0 0.1 0 0.1 0 0.1 0.2 0.6 0.1 1.2-0.1 0.6-0.3 1.1-0.3 0.6-0.8 1-0.4 0.4-1 0.6-0.1 0.1-0.2 0.1-0.1 0-0.2 0-0.2 0.1-0.3 0.1-0.1 0-0.3 0-0.4 0-0.9-0.2-0.4-0.1-0.8-0.4-0.4-0.2-0.7-0.6-0.3-0.3-0.6-0.7 0-0.1 0-0.2 0 0-0.1-0.1 0 0 0-0.1 0 0-0.1-0.1v-0.2q-0.2-0.4-0.3-0.8 0-0.3-0.1-0.7-0.1-0.4-0.1-0.8 0-0.3 0-0.7 0-0.1 0-0.1 0-0.1 0-0.1 0-0.1 0-0.1 0 0 0-0.1 0-0.1 0-0.2 0-0.1 0-0.2 0-0.1 0-0.2 0-0.1 0-0.2-0.5 0.6-0.9 1.2-0.4 0.6-0.8 1.2-0.4 0.7-0.7 1.3-0.3 0.7-0.6 1.4 0 0.2-0.1 0.3-0.1 0.1-0.3 0.2-0.1 0-0.3 0-0.1 0-0.3 0-0.1-0.1-0.2-0.2-0.2-0.1-0.2-0.2-0.1-0.1-0.1-0.3 0-0.2 0-0.3 0.4-0.9 0.8-1.7 0.4-0.8 0.9-1.6 0.5-0.8 1-1.6 0.6-0.7 1.2-1.4h-0.1l-0.3-0.1q-0.1-0.1-0.3-0.1-0.2-0.1-0.3-0.1-0.2-0.1-0.3-0.1-0.2 0-0.4-0.1h-0.3q-0.3-0.1-0.7-0.2-0.4-0.2-0.7-0.3-0.4-0.2-0.7-0.3-0.3-0.2-0.7-0.5l-0.1-0.1q-0.1 0-0.1-0.1-0.1 0-0.2 0 0-0.1-0.1-0.1 0-0.1 0-0.1-0.5-0.4-0.8-0.9-0.3-0.6-0.4-1.2 0-0.6 0.1-1.1 0.1-0.6 0.4-1.1 0.3-0.4 0.5-0.6 0.3-0.3 0.7-0.4 0.3-0.2 0.7-0.3 0.4-0.1 0.8-0.1 0.2 0 0.4 0 0.2 0.1 0.4 0.1 0.2 0.1 0.4 0.1 0.2 0.1 0.4 0.2 0.2 0.1 0.4 0.2l-0.1-0.2q0 0 0-0.1 0-0.1 0-0.1 0-0.1 0-0.2 0 0 0-0.1-0.1-0.6 0-1.2 0.2-0.6 0.5-1.1 0.4-0.5 0.9-0.8 0.4-0.3 1-0.5 0.1 0 0.2 0 0.1 0 0.2-0.1 0 0 0.1 0 0.1 0 0.2 0 0.5 0 1 0.2 0.5 0.2 0.9 0.5 0.4 0.3 0.7 0.7 0.3 0.5 0.5 0.9 0 0.1 0 0.2 0 0 0.1 0.1 0 0 0 0.1 0 0.1 0 0.1c0 0 0.1 0.2 0.1 0.3q0.1 0.3 0.1 0.7 0.1 0.4 0.1 0.7 0 0.4 0 0.8-0.1 0.4-0.1 0.8l-0.1 0.3q0 0.1 0 0.3-0.1 0.1-0.1 0.3 0 0.1 0 0.3 0 0.1 0 0.3c2.9-2 5-3.1 6.7-4l0.4-0.2q-0.1 0-0.2-0.1-0.1 0-0.2 0-0.1-0.1-0.2-0.1-0.1 0-0.3 0l-0.3-0.1q-0.4-0.1-0.7-0.2-0.4-0.1-0.7-0.3-0.4-0.1-0.7-0.3-0.3-0.2-0.7-0.4l-0.2-0.2-0.3-0.3q-0.5-0.4-0.7-0.9-0.3-0.6-0.4-1.1-0.1-0.6 0.1-1.2 0.1-0.6 0.4-1.1 0.3-0.3 0.5-0.5 0.3-0.3 0.7-0.5 0.3-0.1 0.7-0.2 0.4-0.1 0.8-0.1 0.2 0 0.4 0 0.2 0.1 0.4 0.1 0.2 0.1 0.4 0.1 0.2 0.1 0.4 0.2 0.1 0 0.1 0.1 0 0 0.1 0 0 0 0.1 0.1 0 0 0.1 0-0.1 0-0.1-0.1 0 0 0-0.1 0 0 0-0.1 0 0 0-0.1-0.1-0.6 0.1-1.2 0.1-0.6 0.5-1.1 0.3-0.5 0.8-0.8 0.5-0.3 1.1-0.5 0.1 0 0.2 0 0.1 0 0.1 0 0.1-0.1 0.2-0.1 0.1 0 0.2 0 0.5 0.1 1 0.2 0.5 0.2 0.9 0.5 0.4 0.3 0.7 0.7 0.3 0.4 0.5 0.9c0 0.2 0.1 0.4 0.1 0.5v0.2q0.1 0.4 0.1 0.8 0.1 0.4 0.1 0.7 0 0.4 0 0.8 0 0.4-0.1 0.7c0 0.2-0.1 0.3-0.1 0.4q0 0.1 0 0.3-0.1 0.1-0.1 0.3 0 0.1 0 0.2 0 0.2 0 0.3 0.8-0.6 1.6-1.3 0.8-0.7 1.6-1.5 0.7-0.8 1.3-1.7 0.7-0.9 1.2-1.8-0.1 0-0.2 0-0.1-0.1-0.2-0.1-0.1-0.1-0.2-0.1-0.1-0.1-0.2-0.1l-0.3-0.2q-0.1 0-0.3-0.1-0.1-0.1-0.3-0.1-0.1-0.1-0.3-0.2-0.1 0-0.3-0.1l-0.3-0.1q-0.3-0.1-0.7-0.3-0.3-0.2-0.6-0.4-0.3-0.2-0.6-0.4-0.3-0.3-0.6-0.5l-0.1-0.2q-0.1 0-0.1-0.1 0 0-0.1-0.1 0 0-0.1-0.1 0 0-0.1-0.1-0.4-0.4-0.6-1-0.2-0.6-0.2-1.2 0-0.6 0.2-1.1 0.2-0.6 0.6-1 0.2-0.3 0.5-0.5 0.3-0.2 0.6-0.3 0.3-0.1 0.6-0.2 0.3 0 0.6 0 0.3 0 0.6 0 0.2 0 0.5 0.1 0.3 0.1 0.5 0.2 0.3 0.2 0.5 0.3 0.1 0.1 0.1 0.1 0.1 0 0.1 0.1 0.1 0 0.1 0.1 0.1 0 0.1 0.1l0.1 0.1q0.3 0.3 0.6 0.6 0.2 0.2 0.4 0.5 0.3 0.4 0.5 0.7 0.1 0.3 0.3 0.6c0.1 0.2 0.1 0.3 0.1 0.4q0.1 0.1 0.2 0.3 0 0.1 0.1 0.3 0.1 0.1 0.2 0.3 0.1 0.1 0.1 0.2v0.1q0.3-0.6 0.6-1.2 0.2-0.7 0.4-1.3 0.2-0.7 0.4-1.3 0.1-0.7 0.2-1.4c-0.2 0-0.4 0-0.5 0l-0.3-0.1q-0.1 0-0.2 0-0.2-0.1-0.3-0.1-0.1 0-0.2 0-0.2 0-0.3 0h-0.2q-0.4-0.1-0.7-0.1-0.3-0.1-0.6-0.1-0.3-0.1-0.6-0.2-0.3-0.2-0.6-0.3l-0.1-0.1q-0.1 0-0.1 0-0.1 0-0.1-0.1-0.1 0-0.1 0-0.1-0.1-0.1-0.1-0.5-0.3-0.8-0.7-0.3-0.4-0.4-0.9-0.2-0.5-0.1-1 0-0.5 0.2-1 0.2-0.3 0.4-0.6 0.3-0.3 0.6-0.5 0.4-0.2 0.7-0.3 0.4-0.1 0.8-0.1 0.1 0 0.3 0 0.1 0 0.2 0.1 0.1 0 0.3 0 0.1 0 0.2 0.1 0.1 0 0.1 0 0.1 0 0.1 0 0.1 0.1 0.1 0.1 0.1 0 0.1 0h0.1q0.2 0.1 0.4 0.2 0.1 0.1 0.3 0.2 0.2 0.2 0.3 0.3 0.2 0.1 0.4 0.2-0.1-0.3-0.2-0.5 0-0.3 0-0.6 0-0.3 0-0.6 0-0.3 0-0.6v-0.2q0 0 0-0.1 0 0 0-0.1 0 0 0.1-0.1 0 0 0-0.1 0.1-0.5 0.4-0.9 0.2-0.4 0.7-0.8 0.4-0.3 0.9-0.4 0.5-0.1 1-0.1 0.5 0.1 0.9 0.3 0.5 0.3 0.8 0.7 0.4 0.3 0.6 0.8 0.1 0.5 0.1 1 0 0.1 0 0.1 0 0.1 0 0.1 0 0.1 0 0.2 0 0 0 0.1v0.1q0 0.3-0.1 0.7 0 0.3-0.1 0.6-0.1 0.3-0.2 0.6-0.1 0.2-0.3 0.5l-0.1 0.2q0.2-0.1 0.4-0.1 0.2-0.1 0.4-0.2 0.2 0 0.4-0.1 0.2 0 0.4-0.1h0.2q0 0 0.1 0 0.1 0 0.1 0 0.1 0 0.1 0 0.1 0 0.1 0h0.1c0.7 0 1.4 0.2 1.9 0.7 0.5 0.4 0.9 1 1 1.7 0.1 0.6-0.1 1.3-0.4 1.9-0.4 0.6-1 1-1.6 1.1q-0.1 0.1-0.2 0.1 0 0-0.1 0 0 0-0.1 0 0 0-0.1 0.1h-0.2q-0.1 0-0.3 0-0.1 0-0.2 0-0.2 0-0.3 0-0.2 0-0.3 0-0.2 0-0.3 0-0.2 0-0.4 0-0.1 0-0.3 0-0.2-0.1-0.3-0.1l-0.3-0.1q-0.1 0-0.3 0-0.1-0.1-0.2-0.1-0.1 0-0.3 0-0.1 0-0.2-0.1h-0.3q-0.1 0-0.2 0zm-28 24.1v-0.1l-0.2-0.2q-0.1-0.1-0.3-0.3-0.1-0.1-0.2-0.3-0.1-0.1-0.2-0.3-0.1-0.2-0.2-0.3l-0.2-0.4q-0.2-0.2-0.4-0.4-0.2-0.3-0.4-0.5-0.2-0.2-0.4-0.4-0.3-0.1-0.5-0.3l-0.2-0.1q0 0 0-0.1-0.1 0-0.1 0 0 0-0.1 0 0-0.1 0-0.1-0.1 0-0.3-0.1-0.1 0-0.2 0-0.1-0.1-0.2-0.1-0.1 0-0.3 0-0.2 0-0.4 0-0.1 0.1-0.3 0.2-0.2 0.1-0.3 0.2-0.2 0.1-0.3 0.3-0.2 0.3-0.2 0.6-0.1 0.3 0 0.6 0 0.3 0.2 0.6 0.2 0.3 0.4 0.5 0 0 0 0 0.1 0 0.1 0.1 0 0 0 0 0.1 0 0.1 0l0.2 0.1q0.2 0.2 0.5 0.4 0.2 0.1 0.5 0.2 0.3 0.2 0.6 0.3 0.3 0.1 0.6 0.1l0.3 0.1q0.2 0 0.4 0.1 0.2 0 0.3 0.1 0.2 0 0.4 0.1 0.2 0 0.4 0.1l0.2 0.1q0.1 0 0.2 0 0.1 0.1 0.2 0.1 0.1 0 0.2 0 0.1 0 0.2 0.1 0 0 0 0 0.1-0.1 0.1-0.1 0 0 0.1 0 0 0 0-0.1c0.1-0.1 0.1-0.3-0.3-0.8zm5.2 1q-0.2 0-0.4 0-0.2-0.1-0.4-0.1-0.2 0-0.4-0.1h-0.2q-0.1 0-0.2-0.1-0.1 0-0.1 0-0.1 0-0.2 0-0.1 0-0.1 0-0.1 0-0.1 0-0.1 0-0.1 0 0 0-0.1 0 0 0 0 0 0 0-0.1 0.1 0 0 0 0 0 0 0 0 0 0 0 0c-0.1 0.1-0.1 0.3 0.1 0.5q0.1 0.1 0.2 0.2l0.2 0.2 0.2 0.2q0.1 0.1 0.3 0.3 0.1 0.1 0.2 0.2 0.1 0.2 0.3 0.3 0.1 0.2 0.2 0.3l0.2 0.3q0.2 0.2 0.4 0.4 0.2 0.2 0.5 0.4 0.2 0.2 0.5 0.4 0.2 0.1 0.5 0.2l0.2 0.1 0.2 0.2q0.1 0 0.2 0 0.1 0.1 0.2 0.1 0.1 0 0.2 0 0.1 0 0.2 0 0.2 0 0.4 0 0.3-0.1 0.4-0.2 0.2-0.1 0.4-0.3 0.2-0.1 0.3-0.3 0.1-0.3 0.1-0.6 0.1-0.4 0-0.7-0.1-0.3-0.3-0.5-0.2-0.3-0.5-0.5 0 0 0 0-0.1 0-0.1-0.1 0 0-0.1 0 0 0 0 0l-0.2-0.1q-0.3-0.2-0.6-0.3-0.3-0.1-0.5-0.2-0.3-0.1-0.6-0.2-0.3 0-0.6-0.1h-0.4q-0.2 0-0.3 0zm8.3-11.2q0.1 0.1 0.2 0.3 0.1 0.1 0.2 0.3 0.1 0.2 0.2 0.4c0.1 0 0.2 0.1 0.2 0.2 0.1 0.3 0.4 0.7 0.6 0.7h0.1c0.2 0 0.3-0.1 0.3-0.8 0-0.1 0-0.3 0-0.4q0-0.2 0-0.4 0-0.2 0.1-0.3 0-0.2 0-0.4 0-0.2 0.1-0.4l0.1-0.4q0-0.3 0-0.6 0-0.3 0-0.6 0-0.3 0-0.5 0-0.3-0.1-0.6l-0.1-0.2q0-0.1 0-0.1 0 0 0-0.1 0 0 0-0.1 0 0-0.1 0 0-0.3-0.2-0.5-0.2-0.3-0.4-0.4-0.2-0.2-0.5-0.3-0.2-0.1-0.5-0.1 0 0-0.1 0 0 0-0.1 0 0 0 0 0-0.1 0-0.1 0-0.3 0.1-0.6 0.3-0.2 0.2-0.4 0.4-0.2 0.3-0.3 0.6-0.1 0.3 0 0.6c0 0.1 0 0.3 0 0.3 0 0.1 0 0.2 0 0.3q0.1 0.3 0.1 0.5 0.1 0.3 0.3 0.6 0.1 0.3 0.2 0.5 0.2 0.3 0.3 0.6l0.2 0.2q0.2 0.2 0.3 0.4zm3.5 10.9q0.3-0.2 0.4-0.5 0.1-0.3 0.2-0.6 0-0.3-0.1-0.6c0-0.1 0-0.2 0-0.3l-0.1-0.2q-0.1-0.3-0.2-0.6-0.2-0.2-0.3-0.5-0.2-0.3-0.3-0.5-0.2-0.2-0.4-0.5l-0.3-0.2q-0.1-0.2-0.2-0.3-0.1-0.2-0.2-0.3-0.2-0.2-0.3-0.3-0.1-0.2-0.2-0.3l-0.1-0.2c-0.2-0.3-0.5-0.7-0.7-0.7h-0.1c-0.2 0.1-0.2 0.2-0.2 0.9 0 0.1 0 0.3 0 0.4q0 0.1 0 0.3 0 0.2 0 0.4 0 0.2 0 0.4 0 0.2 0 0.4 0 0.2 0 0.4 0 0.3 0 0.6 0 0.3 0 0.5 0.1 0.3 0.1 0.6 0.1 0.3 0.2 0.6l0.1 0.2c0 0.1 0.1 0.2 0.1 0.3q0.1 0.2 0.3 0.4 0.1 0.2 0.4 0.3 0.2 0.2 0.4 0.3 0.3 0 0.5 0 0.1 0.1 0.2 0 0 0 0.1 0 0 0 0.1 0 0.1 0 0.1 0 0.3-0.2 0.5-0.4zm8.6-17.6c-0.7 0.1-0.9 0.2-0.9 0.4-0.1 0.2 0 0.4 0.6 0.6h0.1l0.3 0.2q0.2 0 0.3 0.1 0.2 0.1 0.4 0.2 0.2 0.1 0.3 0.2 0.2 0.1 0.4 0.2l0.3 0.2q0.3 0.1 0.5 0.3 0.3 0.1 0.6 0.2 0.3 0.1 0.5 0.1 0.3 0.1 0.6 0.1h0.2q0.1 0 0.1 0 0 0 0.1 0 0 0 0.1 0 0 0 0.1 0c0.4 0.1 0.8 0 1.2-0.3 0.3-0.3 0.6-0.7 0.6-1.1 0.1-0.4 0-0.9-0.3-1.2-0.3-0.4-0.7-0.6-1.1-0.7h-0.3-0.2q-0.1-0.1-0.2-0.1-0.1 0-0.3 0-0.1 0-0.2 0-0.1 0-0.2 0-0.2 0-0.4 0-0.2 0-0.4 0-0.1 0-0.3 0.1-0.2 0-0.4 0.1l-0.3 0.1q-0.2 0-0.4 0.1-0.2 0-0.4 0-0.2 0.1-0.4 0.1-0.2 0-0.3 0.1zm4-9.9q-0.2 0.1-0.3 0.2-0.1 0.1-0.3 0.2-0.1 0-0.2 0.1-0.2 0.1-0.3 0.1l-0.2 0.1c-0.4 0.2-0.5 0.3-0.5 0.4 0 0.1 0.1 0.1 0.5 0.2h0.3q0.2 0 0.3 0 0.2 0 0.3 0.1 0.2 0 0.3 0 0.2 0 0.3 0.1l0.3 0.1q0.3 0 0.5 0 0.2 0 0.5 0 0.2 0 0.4 0 0.2 0 0.5 0h0.1l0.3-0.1q0.2 0 0.4-0.2 0.2-0.1 0.3-0.3 0.2-0.2 0.2-0.4 0.1-0.2 0.1-0.5-0.1-0.2-0.2-0.4-0.1-0.2-0.3-0.3-0.2-0.2-0.4-0.2-0.2-0.1-0.5-0.1h-0.4q-0.2 0.1-0.5 0.1-0.2 0.1-0.4 0.2-0.2 0-0.4 0.1-0.2 0.1-0.4 0.2zm-3.3 0.5q-0.1-0.1-0.4-0.4l-0.2-0.2q-0.1-0.1-0.3-0.2-0.1-0.1-0.2-0.2-0.1-0.1-0.2-0.2-0.1-0.1-0.2-0.3l-0.2-0.2q-0.2-0.2-0.3-0.3-0.2-0.2-0.4-0.3-0.2-0.2-0.4-0.3-0.2-0.1-0.4-0.2l-0.1-0.1-0.2-0.1q-0.2-0.1-0.5-0.1-0.2 0-0.4 0.1-0.3 0.1-0.4 0.2-0.2 0.1-0.3 0.3-0.1 0.3-0.1 0.5-0.1 0.2 0 0.5 0.1 0.2 0.2 0.4 0.2 0.1 0.4 0.3l0.2 0.1 0.2 0.1q0.2 0.1 0.4 0.2 0.2 0.1 0.4 0.2 0.3 0 0.5 0.1 0.2 0 0.4 0h0.3q0.2 0 0.3 0.1 0.2 0 0.3 0 0.2 0 0.4 0 0.1 0.1 0.3 0.1h0.2q0 0 0.1 0 0.1 0 0.1 0 0.1 0 0.1 0 0.1 0 0.1 0 0.1 0 0.1 0 0 0.1 0 0.1 0 0 0.1-0.1 0 0 0 0zm1.1-1.3c0.1 0 0.3-0.3 0.3-0.4l0.1-0.3q0.1-0.1 0.1-0.3 0.1-0.1 0.1-0.3 0.1-0.1 0.2-0.2 0.1-0.2 0.1-0.3 0.1 0 0.1-0.1 0 0 0 0 0-0.1 0.1-0.1 0 0 0-0.1 0.1-0.2 0.2-0.4 0.1-0.2 0.1-0.4 0.1-0.3 0.2-0.5 0-0.2 0-0.5v-0.1q0 0 0-0.1 0 0 0 0 0-0.1 0-0.1 0 0 0 0 0-0.3 0-0.5-0.1-0.2-0.3-0.4-0.1-0.2-0.3-0.3-0.2-0.1-0.4-0.2h-0.1q-0.3 0-0.5 0.1-0.2 0.1-0.3 0.3-0.2 0.1-0.3 0.3-0.1 0.2-0.2 0.4 0 0 0 0 0 0.1 0 0.1 0 0 0 0.1 0 0 0 0v0.2q0 0.2 0 0.5 0 0.2 0 0.4 0 0.3 0.1 0.5 0 0.2 0.1 0.5c0 0 0.1 0.1 0.1 0.2q0 0.2 0.1 0.3 0 0.2 0 0.3 0.1 0.2 0.1 0.3 0 0.2 0.1 0.3v0.3c0.1 0.4 0.2 0.6 0.2 0.6z"/>
</svg>