<svg version="1.2" xmlns="http://www.w3.org/2000/svg" viewBox="0 0 80 80" width="80" height="80">
	<title>Milk-svg</title>
	<style>
		.s0 { fill: #000000 } 
		.s1 { fill: none } 
	</style>
	<path id="Layer" fill-rule="evenodd" class="s0" d="m40 80c-16.2 0-30.8-9.7-37-24.7-6.1-14.9-2.7-32.1 8.7-43.6 11.5-11.4 28.7-14.8 43.6-8.7 15 6.2 24.7 20.8 24.7 37 0 5.3-1 10.5-3 15.3-2.1 4.9-5 9.3-8.7 13-3.7 3.7-8.1 6.6-13 8.7-4.8 2-10 3-15.3 3zm0-75.8c-14.5 0-27.6 8.7-33.1 22.1-5.5 13.4-2.5 28.8 7.8 39 10.2 10.3 25.6 13.3 39 7.8 13.4-5.5 22.1-18.6 22.1-33.1 0-4.7-0.9-9.4-2.7-13.7-1.8-4.4-4.4-8.3-7.8-11.6-3.3-3.4-7.2-6-11.6-7.8-4.3-1.8-9-2.7-13.7-2.7z"/>
	<path id="Layer" fill-rule="evenodd" class="s0" d="m55.6 48.6c-0.6 0-1.2 0.4-1.5 1-0.2 0.6-0.1 1.3 0.4 1.8 0.4 0.5 1.1 0.6 1.8 0.4 0.6-0.3 1-0.9 1-1.5q0-0.4-0.2-0.7-0.1-0.3-0.3-0.5-0.2-0.2-0.5-0.3-0.3-0.2-0.7-0.2z"/>
	<path id="Layer" fill-rule="evenodd" class="s0" d="m52.9 45.9c-0.4 0-0.8 0.3-1 0.7-0.2 0.4-0.1 0.9 0.2 1.2 0.3 0.3 0.8 0.4 1.2 0.2 0.4-0.2 0.7-0.6 0.7-1q0-0.2-0.1-0.4-0.1-0.2-0.2-0.4-0.2-0.1-0.4-0.2-0.2-0.1-0.4-0.1z"/>
	<path id="Layer" fill-rule="evenodd" class="s1" d="m52.9 45.9c-0.4 0-0.8 0.3-1 0.7-0.2 0.4-0.1 0.9 0.2 1.2 0.3 0.3 0.8 0.4 1.2 0.2 0.4-0.2 0.7-0.6 0.7-1q0-0.2-0.1-0.4-0.1-0.2-0.2-0.4-0.2-0.1-0.4-0.2-0.2-0.1-0.4-0.1z"/>
	<path id="Layer" fill-rule="evenodd" class="s1" d="m55.6 48.6c-0.6 0-1.2 0.4-1.5 1-0.2 0.6-0.1 1.3 0.4 1.8 0.4 0.5 1.1 0.6 1.8 0.4 0.6-0.3 1-0.9 1-1.5q0-0.4-0.2-0.7-0.1-0.3-0.3-0.5-0.2-0.2-0.5-0.3-0.3-0.2-0.7-0.2z"/>
	<path id="Layer" fill-rule="evenodd" class="s1" d="m58.4 35.6q-0.7-0.1-1.4-0.2-0.7-0.1-1.4-0.2-0.7 0-1.5-0.1-0.7 0-1.4 0-0.7 0-1.4 0-0.7 0.1-1.4 0.1-0.7 0.1-1.4 0.2-0.7 0.1-1.4 0.2-0.2 0-0.4 0.1-0.2 0-0.4 0.1-0.2 0-0.4 0.1-0.1 0.1-0.3 0.1l-0.2 0.1 0.1 1.5q0.9 0 1.8 0.2 0.9 0.1 1.8 0.3 0.8 0.2 1.7 0.5 0.8 0.3 1.6 0.6 0.9 0.4 1.8 0.7 0.9 0.3 1.8 0.5 0.9 0.2 1.9 0.3 0.9 0.1 1.8 0.1l0.3-4.7q0 0 0 0 0 0 0 0-0.1-0.1-0.1-0.1 0 0 0 0-0.2-0.1-0.4-0.1-0.2-0.1-0.4-0.1-0.2-0.1-0.4-0.1-0.2-0.1-0.3-0.1z"/>
	<path id="Layer" fill-rule="evenodd" class="s0" d="m61.5 35.2q0 0.1 0.1 0.3 0 0.1 0.1 0.2 0 0.2 0 0.3l-1.6 24.4q-0.1 0.2-0.1 0.4-0.1 0.2-0.2 0.3-0.1 0.2-0.2 0.3-0.1 0.2-0.3 0.3-0.1 0.1-0.3 0.2-0.2 0.1-0.4 0.1-0.2 0.1-0.3 0.2-0.2 0.1-0.4 0.1-0.7 0.2-1.3 0.3-0.6 0.1-1.3 0.1-0.6 0.1-1.3 0.1-0.6 0-1.3 0-0.6 0-1.3 0-0.6 0-1.2-0.1-0.7 0-1.3-0.1-0.7-0.1-1.3-0.3-0.2 0-0.4-0.1-0.2-0.1-0.3-0.2-0.2 0-0.4-0.1-0.2-0.1-0.3-0.2-0.2-0.1-0.3-0.3-0.1-0.1-0.2-0.3-0.1-0.1-0.2-0.3 0-0.2-0.1-0.4l-1.6-24.4q0-0.1 0-0.2 0-0.2 0.1-0.3 0-0.1 0.1-0.2 0.1-0.2 0.2-0.3 0.1 0 0.1-0.1 0.1-0.1 0.2-0.1 0.1-0.1 0.2-0.1 0.1-0.1 0.2-0.1 0.2-0.1 0.4-0.2 0.3-0.1 0.5-0.2 0.3 0 0.5-0.1 0.3-0.1 0.5-0.1 0.7-0.1 1.5-0.2 0.7-0.1 1.5-0.2 0.7 0 1.5-0.1 0.7 0 1.4 0 0.8 0 1.5 0 0.8 0.1 1.5 0.1 0.8 0.1 1.5 0.2 0.7 0.1 1.5 0.2 0.2 0 0.5 0.1 0.2 0 0.5 0.1 0.2 0.1 0.4 0.2 0.3 0 0.5 0.1 0.1 0.1 0.2 0.1 0.1 0.1 0.2 0.1 0.1 0.1 0.1 0.2 0.1 0 0.2 0.1 0.1 0.1 0.2 0.2zm-8.2 12.8q0.2-0.1 0.4-0.2 0.1-0.2 0.2-0.4 0.1-0.2 0.1-0.4c0-0.4-0.3-0.8-0.7-1-0.4-0.2-0.9-0.1-1.2 0.2-0.3 0.4-0.4 0.8-0.2 1.2 0.2 0.4 0.6 0.7 1 0.7q0.2 0 0.4-0.1zm3 3.8q0.3-0.2 0.5-0.4 0.2-0.2 0.3-0.5 0.2-0.3 0.2-0.6c0-0.7-0.4-1.3-1-1.6-0.7-0.2-1.4-0.1-1.8 0.4-0.5 0.5-0.6 1.2-0.4 1.8 0.3 0.6 0.9 1 1.5 1q0.4 0 0.7-0.1zm0.7-6.2q0.2-0.1 0.3-0.2 0.1-0.1 0.2-0.3 0-0.1 0-0.3 0-0.3-0.2-0.5-0.3-0.3-0.6-0.3-0.3 0-0.5 0.3-0.3 0.2-0.3 0.5 0 0.2 0.1 0.3 0 0.2 0.2 0.3 0.1 0.1 0.2 0.2 0.2 0 0.3 0 0.2 0 0.3 0zm3-9.5q0 0 0 0 0-0.1 0-0.1 0 0-0.1 0 0 0 0 0-0.2-0.1-0.4-0.1-0.2-0.1-0.4-0.1-0.2-0.1-0.4-0.1-0.2-0.1-0.4-0.1-0.6-0.1-1.3-0.2-0.7-0.1-1.4-0.2-0.7 0-1.5-0.1-0.7 0-1.4 0-0.7 0-1.4 0-0.7 0.1-1.4 0.1-0.7 0.1-1.4 0.2-0.7 0.1-1.4 0.2-0.2 0-0.4 0.1-0.2 0-0.4 0.1-0.2 0-0.4 0.1-0.1 0.1-0.3 0.1l-0.2 0.1 0.1 1.5q0.9 0 1.8 0.2 0.9 0.1 1.8 0.3 0.8 0.2 1.7 0.5 0.8 0.3 1.6 0.6 0.9 0.4 1.8 0.7 0.9 0.3 1.8 0.5 0.9 0.2 1.9 0.3 0.9 0.1 1.8 0.1z"/>
	<path id="Layer" fill-rule="evenodd" class="s0" d="m40.4 31.7q0.2 0.3 0.4 0.7 0.2 0.3 0.3 0.7 0.1 0.4 0.1 0.8v25.8q0 0.6-0.3 1.2-0.2 0.6-0.6 1.1-0.5 0.4-1.1 0.7-0.6 0.2-1.2 0.2h-16.6q-0.7 0-1.3-0.2-0.6-0.3-1-0.7-0.5-0.5-0.7-1.1-0.3-0.6-0.3-1.2v-25.8q0-0.4 0.1-0.8 0.1-0.4 0.3-0.7 0.2-0.4 0.4-0.7 0.3-0.3 0.6-0.5l4.6-9.1q-0.2-0.1-0.4-0.3-0.2-0.2-0.3-0.4-0.2-0.2-0.2-0.4-0.1-0.3-0.1-0.5v-1.6q0-0.4 0.2-0.7 0.1-0.4 0.4-0.6 0.2-0.3 0.5-0.4 0.4-0.1 0.7-0.1h9.5q0.4 0 0.7 0.1 0.3 0.1 0.6 0.4 0.2 0.2 0.4 0.6 0.1 0.3 0.1 0.7v1.6q0 0.2 0 0.5-0.1 0.2-0.3 0.4-0.1 0.3-0.3 0.4-0.2 0.2-0.4 0.3l4.6 9.1q0.3 0.2 0.6 0.5zm-0.7 2.1q0-0.2 0-0.5-0.1-0.2-0.2-0.4-0.2-0.2-0.3-0.4-0.2-0.2-0.5-0.3v-0.1l-5.6-11.1h0.6c0.4 0 0.9 0 1.1-0.2q0 0 0.1-0.1 0 0 0-0.1 0 0 0 0 0-0.1 0-0.1v-1.6q0-0.1 0-0.2 0-0.1-0.1-0.2-0.1-0.1-0.2-0.1-0.1 0-0.2 0h-9.5q-0.1 0-0.2 0-0.1 0-0.1 0.1-0.1 0.1-0.1 0.2-0.1 0.1-0.1 0.2v1.6q0 0 0 0.1 0 0 0.1 0.1 0 0 0 0 0 0.1 0.1 0.1c0.2 0.2 0.7 0.2 1.1 0.2h0.5l-5.7 11.2q-0.2 0.1-0.4 0.3-0.2 0.2-0.4 0.4-0.1 0.2-0.2 0.5 0 0.2 0 0.5v3q0.3 0 0.5-0.1 0.3 0 0.6-0.1 0.3 0 0.6 0 0.2 0 0.5 0 0.8 0 1.5 0.1 0.7 0.1 1.5 0.3 0.7 0.1 1.4 0.4 0.7 0.2 1.4 0.5 0.6 0.3 1.2 0.5 0.5 0.2 1.2 0.3 0.6 0.2 1.2 0.3 0.6 0 1.3 0.1 0.9-0.1 1.9-0.2 1-0.2 1.9-0.4 1-0.3 1.9-0.7 0.9-0.4 1.8-0.9z"/>
</svg>