<svg version="1.2" xmlns="http://www.w3.org/2000/svg" viewBox="0 0 80 80" width="80" height="80">
	<title>Nut-Free-svg</title>
	<style>
		.s0 { fill: #087c0d } 
		.s1 { fill: #008000 } 
	</style>
	<path id="Layer" class="s0" d="m71 60.8l-3 3-13-10.8v-5.2z"/>
	<path id="Layer" class="s0" d="m8 19.1l2.8-2.9 15.2 12.8v5z"/>
	<path id="Layer" fill-rule="evenodd" class="s0" d="m40 80c-22.1 0-40-17.9-40-40 0-22.1 17.9-40 40-40 22.1 0 40 17.9 40 40 0 22.1-17.9 40-40 40zm36.7-40c0-20.3-16.4-36.7-36.7-36.7-20.3 0-36.7 16.4-36.7 36.7 0 20.3 16.4 36.7 36.7 36.7 20.3 0 36.7-16.4 36.7-36.7z"/>
	<path id="Layer" fill-rule="evenodd" class="s1" d="m50.5 29.2q-0.1 0-0.1-0.1l-1-0.6c-0.1 0-0.6-0.1-1.2-0.3-1-0.3-2.5-0.6-3.9-0.7l-0.6-0.1-0.1-1.3v-1.3l-0.5-0.4c-0.4-0.3-0.5-0.4-1-0.4q-0.1 0-0.1 0 0 0-0.1 0c-0.5 0-0.6 0.1-1 0.4l-0.5 0.4v1.3l-0.1 1.3-0.6 0.1c-1.4 0.1-2.9 0.4-3.9 0.7-0.6 0.2-1.1 0.3-1.2 0.3l-1 0.6q0 0.1-0.1 0.1c-1.4 0.6-2.6 1.4-3.6 2.2l-0.8 0.5-0.6 0.7c-0.5 0.6-0.5 0.7-0.5 1.4q0 0.1 0 0.2c0 1.3 0.7 2.4 1.7 2.6 0.3 0 5.8 0 12.3 0 6.5 0 12 0 12.3 0 1-0.2 1.7-1.3 1.7-2.6q0-0.1 0-0.2c0-0.7 0-0.8-0.5-1.4l-0.6-0.7-0.8-0.5c-1-0.8-2.2-1.6-3.6-2.2zm-20.4 8.4v2.4c0 5 0.4 7.4 2 9.6l0.1 0.3 0.4 0.3q0.4 0.4 0.8 0.9c1.2 1.2 2.1 1.8 5.4 3.4l3.2 1.5 3.2-1.5c3.3-1.6 4.2-2.2 5.4-3.4q0.4-0.5 0.8-0.9l0.4-0.3 0.1-0.3c1.6-2.2 2-4.6 2-9.6v-2.4z"/>
</svg>