<svg version="1.2" xmlns="http://www.w3.org/2000/svg" viewBox="0 0 80 80" width="80" height="80">
	<title>Nuts-svg</title>
	<style>
		.s0 { fill: #000000 } 
	</style>
	<path id="Layer" fill-rule="evenodd" class="s0" d="m40 80c-16.2 0-30.8-9.7-37-24.7-6.1-14.9-2.7-32.1 8.7-43.6 11.5-11.4 28.7-14.8 43.6-8.7 15 6.2 24.7 20.8 24.7 37 0 5.3-1 10.5-3 15.3-2.1 4.9-5 9.3-8.7 13-3.7 3.7-8.1 6.6-13 8.7-4.8 2-10 3-15.3 3zm0-75.8c-14.5 0-27.6 8.7-33.1 22.1-5.5 13.4-2.5 28.8 7.8 39 10.2 10.3 25.6 13.3 39 7.8 13.4-5.5 22.1-18.6 22.1-33.1 0-4.7-0.9-9.4-2.7-13.7-1.8-4.4-4.4-8.3-7.8-11.6-3.3-3.4-7.2-6-11.6-7.8-4.3-1.8-9-2.7-13.7-2.7z"/>
	<path id="Layer" fill-rule="evenodd" class="s0" d="m61.5 25.9c0.9 0.9 1.5 2.2 1.5 3.5 0 1.4-0.6 2.6-1.5 3.6-1 0.9-2.3 1.4-3.6 1.3h-0.8v11.4c0 5.3-3.2 9.6-6.9 12.5-3.6 2.9-7.7 4.6-10.2 4.6-2.5 0-6.5-1.7-10.2-4.6-3.7-2.9-6.9-7.2-6.9-12.5v-11.4h-0.8c-1.3 0.1-2.6-0.4-3.6-1.3-0.9-1-1.5-2.2-1.5-3.6 0-1.3 0.6-2.6 1.5-3.5 1-0.9 2.3-1.4 3.6-1.3h14.3q-0.1-0.4-0.2-0.7 0-0.4-0.1-0.7 0-0.4-0.1-0.7 0-0.4 0-0.7-0.1-0.6 0-1.1 0-0.6 0.1-1.1 0.1-0.5 0.3-1 0.2-0.5 0.4-1 0.1-0.1 0.2-0.2 0.1 0 0.1-0.1 0.1 0 0.2 0 0.1-0.1 0.2-0.1h6.5q0.2 0 0.4 0.1 0.2 0.1 0.3 0.3 0.1 0.1 0.1 0.3 0.1 0.2 0 0.4c0 0-0.4 1.2-0.8 2.7q-0.1 0.4-0.2 0.9-0.1 0.4-0.2 0.9-0.1 0.4-0.2 0.9 0 0.4-0.1 0.9h14.6c1.3-0.1 2.6 0.4 3.6 1.3zm-23.6-6.3q-0.1 0.3-0.2 0.7 0 0.4-0.1 0.7 0 0.4 0 0.8 0 0.3 0.1 0.7 0 0.3 0.1 0.7 0.1 0.4 0.2 0.7 0.1 0.4 0.2 0.7h3.6q0-0.5 0.1-1 0.1-0.5 0.2-1 0-0.5 0.2-1 0.1-0.5 0.2-1c0.3-1 0.4-1.2 0.5-1.7h-4.8q-0.2 0.3-0.3 0.7zm14.8 30.8q0-0.2-0.1-0.4-0.1-0.2-0.3-0.3-0.1-0.1-0.4-0.1-0.1 0-0.2 0-0.1 0-0.2 0.1-0.1 0.1-0.2 0.1 0 0.1-0.1 0.2-0.2 0.3-0.4 0.7-0.3 0.3-0.5 0.7-0.3 0.3-0.5 0.6-0.3 0.3-0.6 0.6-0.3 0.3-0.6 0.6-0.2 0.3-0.5 0.6-0.4 0.3-0.7 0.6-0.3 0.2-0.6 0.5-0.3 0.2-0.6 0.5-0.4 0.2-0.7 0.4-0.3 0.3-0.6 0.5-0.4 0.2-0.7 0.4-0.3 0.2-0.4 0.5-0.1 0.3 0.1 0.6 0.2 0.3 0.5 0.4 0.3 0.1 0.6-0.1 0.4-0.2 0.7-0.5 0.4-0.2 0.7-0.4 0.4-0.3 0.7-0.5 0.3-0.3 0.7-0.5 0.3-0.3 0.7-0.6 0.3-0.3 0.6-0.6 0.4-0.3 0.7-0.6 0.3-0.4 0.6-0.7 0.3-0.3 0.6-0.7 0.3-0.3 0.5-0.7 0.3-0.3 0.6-0.7 0.2-0.4 0.5-0.8 0.1-0.2 0.1-0.4zm1.4-3.3q0-0.2-0.2-0.4-0.1-0.1-0.3-0.2-0.1-0.1-0.3-0.1-0.2 0-0.3 0-0.1 0.1-0.2 0.2-0.1 0-0.2 0.1-0.1 0.2-0.1 0.3-0.1 0.4-0.3 0.8-0.1 0.3 0 0.6 0.2 0.3 0.5 0.5 0.3 0.1 0.6-0.1 0.4-0.1 0.5-0.5 0.1-0.4 0.3-0.8 0-0.2 0-0.4zm6.1-15.4c0.6-0.6 0.9-1.4 0.9-2.3 0-0.8-0.3-1.6-0.9-2.3-0.6-0.6-1.5-0.9-2.3-0.9h-35.8c-0.8 0-1.7 0.3-2.3 0.9-0.6 0.7-0.9 1.5-0.9 2.3 0 0.9 0.3 1.7 0.9 2.3 0.6 0.6 1.5 1 2.3 1h35.8c0.8 0 1.7-0.4 2.3-1z"/>
</svg>