<svg version="1.2" xmlns="http://www.w3.org/2000/svg" viewBox="0 0 80 80" width="80" height="80">
	<title>Peanuts-svg</title>
	<style>
		.s0 { fill: #000000 } 
	</style>
	<path id="Layer" fill-rule="evenodd" class="s0" d="m40 80c-16.2 0-30.8-9.7-37-24.7-6.1-14.9-2.7-32.1 8.7-43.6 11.5-11.4 28.7-14.8 43.6-8.7 15 6.2 24.7 20.8 24.7 37 0 5.3-1 10.5-3 15.3-2.1 4.9-5 9.3-8.7 13-3.7 3.7-8.1 6.6-13 8.7-4.8 2-10 3-15.3 3zm0-75.8c-14.5 0-27.6 8.7-33.1 22.1-5.5 13.4-2.5 28.8 7.8 39 10.2 10.3 25.6 13.3 39 7.8 13.4-5.5 22.1-18.6 22.1-33.1 0-4.7-0.9-9.4-2.7-13.7-1.8-4.4-4.4-8.3-7.8-11.6-3.3-3.4-7.2-6-11.6-7.8-4.3-1.8-9-2.7-13.7-2.7z"/>
	<path id="Layer" fill-rule="evenodd" class="s0" d="m61.4 51.9q0.2 0.5 0.4 0.9 0.2 0.5 0.3 1 0.2 0.4 0.3 0.9 0.2 0.5 0.3 1.1 0.1 0.5 0 1.1 0 0.6-0.2 1.1-0.1 0.5-0.4 1-0.2 0.2-0.3 0.4-0.2 0.1-0.4 0.3-0.2 0.1-0.4 0.2-0.2 0.1-0.5 0.1-0.1 0.1-0.3 0.1-0.2 0-0.4 0-0.2 0-0.4 0-0.2 0-0.4 0-0.3 0-0.7 0-0.3 0-0.7 0.1-0.3 0-0.6 0.1-0.4 0.2-0.7 0.3c-3 1.9-5.6 2.2-9.8 2.2q-0.6 0-1.1-0.1-0.5-0.1-1-0.2-0.5-0.1-1-0.2-0.5-0.2-1-0.3-0.4-0.2-0.8-0.3-0.4-0.2-0.8-0.3-0.4-0.1-0.8-0.1-0.5-0.1-0.9-0.1-0.5 0-1.1 0.1-0.5 0.1-1 0.2-0.5 0.1-1.1 0.2-0.5 0.1-1 0.3-0.6 0.1-1.1 0.3-0.6 0.1-1.2 0.2-0.6 0.1-1.2 0.2-0.6 0.1-1.1 0.1c-8 0-13-5.5-13-12.1q-0.1-1 0.1-2 0.2-1 0.5-2 0.3-1 0.8-1.8 0.5-0.9 1.1-1.7c0.3-4.4 2.1-9.8 6.7-13.2q0.6-0.4 1.2-0.8 0.7-0.3 1.3-0.6 0.7-0.3 1.4-0.6 0.6-0.2 1.3-0.4 0.6-0.2 1.2-0.4 0.6-0.2 1.2-0.5 0.6-0.2 1.2-0.5 0.6-0.3 1.1-0.6c1.5-1 2.7-3.3 4.7-4.8 3-2.2 5.5-3.4 7.9-3.5q0.1 0 0.3 0 0.1 0 0.2 0 0.1 0 0.3 0 0.1 0 0.2 0c2.8 0.2 5.4 1.8 8.5 4.4q0.4 0.3 0.7 0.6 0.4 0.3 0.7 0.6 0.3 0.3 0.7 0.6 0.3 0.4 0.6 0.7 0.4 0.4 0.7 0.9 0.3 0.5 0.5 1 0.2 0.6 0.3 1.1 0.1 0.6 0 1.1-0.1 0.5-0.3 0.9-0.2 0.4-0.4 0.8-0.3 0.4-0.6 0.7-0.4 0.3-0.8 0.5-0.3 0.2-0.7 0.4-0.3 0.3-0.6 0.5-0.2 0.3-0.5 0.7-0.2 0.3-0.4 0.6c-1.3 2.5-2.8 5.6-5.6 7.5q0.4 0.1 0.7 0.3 0.4 0.1 0.7 0.3 0.4 0.2 0.7 0.4 0.3 0.3 0.6 0.5c2.3 1.8 3.9 4.6 5.5 8.6q0.3 0.5 0.4 0.9zm-26-17.8q-0.3 0.2-0.3 0.6-0.1 0.3 0.1 0.6 0.3 0.3 0.6 0.3 0.4 0 0.6-0.2l0.1-0.1q0.9-0.8 1.8-1.5 0.9-0.8 1.8-1.5 1-0.7 1.9-1.4 1-0.7 2-1.3 0.1 0.5 0.2 1 0.1 0.4 0.3 0.9 0.1 0.5 0.3 0.9 0.2 0.5 0.4 0.9c-2.1 1.3-4 2.8-4 2.9q-0.2 0.1-0.3 0.2 0 0.1-0.1 0.3 0 0.2 0.1 0.3 0 0.2 0.1 0.3 0.1 0.1 0.2 0.2 0.2 0.1 0.3 0.1 0.2 0 0.3 0 0.2-0.1 0.3-0.1c0 0 1.9-1.4 3.7-2.7q0.1 0.2 0.2 0.3 0.1 0.2 0.2 0.4 0.1 0.2 0.2 0.3 0.1 0.2 0.2 0.3 0.2 0.3 0.5 0.4 0.3 0.1 0.6-0.1 0.3-0.1 0.4-0.5 0.1-0.3-0.1-0.6-0.1-0.1-0.2-0.3-0.1-0.2-0.2-0.3-0.1-0.2-0.2-0.4-0.1-0.1-0.2-0.3 0.2-0.1 0.3-0.2 0.2-0.1 0.3-0.1 0.2-0.1 0.3-0.2 0.2-0.1 0.3-0.1 0.2-0.1 0.3-0.2 0.1-0.1 0.2-0.3 0-0.1 0-0.3 0-0.2-0.1-0.3 0-0.1-0.1-0.2-0.1-0.1-0.2-0.2-0.1 0-0.2-0.1-0.1 0-0.2 0-0.1 0-0.1 0 0 0-0.1 0 0 0-0.1 0 0 0.1 0 0.1-0.6 0.2-1.3 0.6-0.1-0.5-0.3-1-0.2-0.4-0.3-0.9-0.1-0.5-0.3-1-0.1-0.4-0.2-0.9c1.2-0.8 2.4-1.5 3.4-2q0.1 0.9 0.3 1.8 0.2 1 0.5 1.8 0.4 0.9 0.7 1.8 0.4 0.8 0.9 1.6 0.1 0.2 0.2 0.3 0.1 0.1 0.3 0.1 0.2 0 0.3 0 0.2 0 0.3-0.1 0.2-0.1 0.2-0.2 0.1-0.2 0.2-0.3 0-0.2-0.1-0.4 0-0.1-0.1-0.3-0.4-0.8-0.8-1.6-0.4-0.8-0.7-1.7-0.3-0.9-0.5-1.8-0.2-0.8-0.3-1.8c0.9-0.4 1.3-0.6 1.5-0.7q0.3-0.1 0.4-0.3 0.1-0.3 0.1-0.6-0.1-0.3-0.3-0.5-0.3-0.1-0.6-0.1 0 0 0 0-0.1 0-0.1 0 0 0-0.1 0 0 0-0.1 0l-1 0.5c-0.2-1.8-0.2-3-0.2-3.1q-0.1-0.1-0.1-0.3-0.1-0.1-0.2-0.2-0.1-0.1-0.3-0.2-0.1-0.1-0.3-0.1-0.1 0-0.3 0.1-0.1 0.1-0.2 0.2-0.1 0.1-0.2 0.2-0.1 0.2 0 0.4c0 0 0 1.6 0.3 3.8-1 0.5-2.1 1.2-3.5 2-0.1-1.1-0.2-1.7-0.2-1.8q0-0.1-0.1-0.3 0-0.1-0.1-0.2-0.2-0.1-0.3-0.2-0.2 0-0.3 0-0.2 0-0.3 0.1-0.2 0-0.3 0.2-0.1 0.1-0.1 0.2-0.1 0.2-0.1 0.4 0.1 0.3 0.1 0.6 0 0.3 0.1 0.6 0 0.3 0.1 0.7 0 0.3 0.1 0.6-1.1 0.7-2.2 1.4-1 0.7-2.1 1.5-1 0.8-2 1.6-1 0.9-1.9 1.7zm25.6 23.2q0-0.3 0.1-0.7 0-0.4-0.1-0.7 0-0.4-0.1-0.8-0.2-0.4-0.3-0.8-0.1-0.5-0.3-0.9-0.2-0.5-0.3-0.9-0.2-0.4-0.4-0.8c-1.7-4-3.2-6.5-5.1-8-1.9-1.6-4.3-2.2-8.1-2.2-1.8 0-3.6 1.1-6 1q-0.6-0.1-1.3-0.2-0.7-0.1-1.3-0.3-0.7-0.2-1.3-0.4-0.7-0.2-1.3-0.4-0.6-0.2-1.2-0.4-0.6-0.2-1.3-0.3-0.6-0.2-1.2-0.3-0.6-0.1-1.3-0.1c-7.3 0-11.3 4.7-11.3 10.5 0 5.9 4 10.5 11.3 10.5q0.6 0 1.1-0.1 0.6-0.1 1.1-0.2 0.5-0.1 1.1-0.2 0.5-0.1 1-0.3 0.6-0.1 1.1-0.3 0.6-0.1 1.2-0.2 0.5-0.1 1.1-0.2 0.6-0.1 1.2-0.1 0.5 0 1 0.1 0.5 0.1 1 0.2 0.4 0.1 0.9 0.2 0.5 0.2 1 0.4 0.4 0.1 0.8 0.2 0.4 0.2 0.8 0.3 0.5 0.1 0.9 0.1 0.4 0.1 0.9 0.1c4.1 0 6.3-0.3 9-1.9q0.4-0.3 0.8-0.4 0.5-0.2 0.9-0.3 0.5-0.1 1-0.1 0.4 0 0.9 0.1 0.1 0 0.3 0 0.1 0 0.3 0 0.1 0 0.2-0.1 0.2 0 0.3 0 0.1 0 0.2 0 0.1-0.1 0.2-0.1 0-0.1 0.1-0.2 0.1 0 0.1-0.1 0.2-0.3 0.3-0.7z"/>
	<path id="Layer" class="s0" d="m54 48.3h-0.1l-1.2-0.1q0.1-0.4 0.2-0.8 0.1-0.3 0.3-0.7 0.1-0.4 0.3-0.7 0.1-0.4 0.2-0.7 0.2-0.3 0.1-0.7-0.1-0.3-0.4-0.4-0.3-0.1-0.7 0-0.3 0.1-0.4 0.4-0.2 0.4-0.4 0.8-0.2 0.4-0.3 0.9-0.2 0.4-0.3 0.8-0.2 0.5-0.3 0.9-1.3-0.1-3-0.3c0.3-0.7 0.5-1.1 0.5-1.1q0-0.2 0-0.4 0-0.2-0.1-0.4-0.1-0.2-0.3-0.3-0.2-0.1-0.4-0.1-0.1 0.1-0.2 0.1-0.2 0-0.2 0.1-0.1 0.1-0.2 0.1-0.1 0.1-0.1 0.2c0 0.1-0.3 0.7-0.7 1.7q-1.8-0.2-3.5-0.3-1.8-0.1-3.6-0.2-1.8 0-3.5 0-1.8 0-3.6 0 0.2-0.5 0.3-1 0.2-0.5 0.4-1 0.1-0.5 0.3-1 0.2-0.5 0.4-1 0.1-0.2 0.1-0.3 0-0.2 0-0.3-0.1-0.2-0.2-0.3-0.1-0.1-0.2-0.2-0.1 0-0.1 0 0 0-0.1-0.1 0 0-0.1 0 0 0-0.1 0-0.2 0-0.3 0.1-0.1 0-0.2 0.1 0 0-0.1 0.1-0.1 0.1-0.1 0.2-0.3 0.6-0.5 1.2-0.3 0.6-0.5 1.2-0.2 0.6-0.4 1.2-0.2 0.6-0.3 1.2c-0.7 0-1.3 0.1-1.9 0.2q-0.1 0-0.3 0-0.1 0.1-0.2 0.2-0.1 0.2-0.2 0.3 0 0.2 0 0.3 0 0.2 0.1 0.3 0 0.2 0.1 0.3 0.2 0.1 0.3 0.1 0.2 0.1 0.3 0.1h0.1q0.6-0.1 1.2-0.1 0 0.4-0.1 0.8-0.1 0.5-0.2 0.9 0 0.5-0.1 0.9 0 0.5 0 0.9c-1.6 0-2.8-0.1-4-0.1q0.1-1 0.4-2 0.2-0.9 0.5-1.9 0.2-1 0.6-1.9 0.3-1 0.7-1.9 0.1-0.2 0.1-0.3 0-0.2 0-0.4-0.1-0.1-0.2-0.2-0.1-0.1-0.2-0.2-0.1 0-0.1-0.1-0.1 0-0.1 0 0 0-0.1 0 0 0-0.1 0-0.1 0-0.2 0-0.1 0.1-0.2 0.1-0.1 0.1-0.2 0.2-0.1 0.1-0.1 0.2-0.5 1-0.9 2-0.3 1-0.7 2.1-0.3 1.1-0.5 2.1-0.2 1.1-0.4 2.2h-2.5q-0.1 0-0.3 0.1-0.1 0-0.3 0.1-0.1 0.2-0.1 0.3-0.1 0.2-0.1 0.3 0 0.2 0.1 0.3 0 0.2 0.1 0.3 0.2 0.1 0.3 0.2 0.2 0 0.3 0h2.4q-0.1 0.4-0.1 0.8 0 0.4 0 0.8 0 0.4 0.1 0.8 0 0.4 0.1 0.8 0 0.4 0.2 0.6 0.3 0.3 0.6 0.2 0.4 0 0.6-0.3 0.2-0.3 0.2-0.6c-0.1-0.2 0 0 0-0.1q-0.1-0.4-0.1-0.7 0-0.4 0-0.8-0.1-0.4 0-0.7 0-0.4 0-0.8c1.3 0 2.6 0 4.2 0.1q0 0.2 0 0.4 0 0.2 0 0.4 0 0.2 0 0.4 0.1 0.2 0.1 0.4 0 0.4 0.3 0.6 0.3 0.2 0.6 0.1 0.3 0 0.5-0.3 0.2-0.3 0.2-0.6 0-0.2 0-0.3-0.1-0.2-0.1-0.4 0-0.1 0-0.3 0-0.2 0-0.3 1.2 0 2.4 0.1 1.2 0 2.4 0.1 1.2 0.1 2.4 0.3 1.2 0.1 2.4 0.2 0.1 0.1 0.3 0.1 0.2-0.1 0.3-0.2 0.2-0.1 0.2-0.2 0.1-0.1 0.2-0.3 0-0.2 0-0.3 0-0.2-0.1-0.3-0.1-0.2-0.3-0.3-0.1-0.1-0.3-0.1-1.2-0.2-2.4-0.3-1.3-0.1-2.5-0.2-1.2-0.1-2.4-0.2-1.3-0.1-2.5-0.1 0-0.5 0.1-0.9 0-0.5 0.1-1 0.1-0.4 0.2-0.9 0.1-0.5 0.2-0.9 1.7-0.1 3.5 0 1.8 0 3.5 0 1.8 0.1 3.5 0.2 1.8 0.1 3.5 0.2-0.3 1.1-0.6 2.2-0.2 1.1-0.3 2.2-0.2 1.1-0.2 2.2 0 1.1 0.1 2.3 0.1 0.3 0.3 0.5 0.3 0.3 0.7 0.2 0.3 0 0.5-0.3 0.2-0.3 0.2-0.7-0.1-1-0.1-2.1 0-1.1 0.2-2.2 0.1-1 0.4-2.1 0.2-1 0.6-2 1.7 0.1 3.1 0.3-0.3 0.8-0.5 1.7-0.1 0.9-0.2 1.8-0.1 0.9-0.1 1.8 0 0.9 0.1 1.8 0 0.3 0.3 0.5 0.2 0.2 0.6 0.2 0.3 0 0.5-0.3 0.2-0.2 0.2-0.6c0-0.2 0 0 0-0.1q-0.1-0.8-0.1-1.6 0-0.9 0.1-1.7 0.1-0.9 0.2-1.7 0.2-0.8 0.4-1.6l1.5 0.1q0.2 0.1 0.4 0 0.1 0 0.2-0.1 0.2-0.1 0.3-0.2 0-0.2 0.1-0.3 0-0.2 0-0.4-0.1-0.1-0.2-0.2-0.1-0.2-0.2-0.3-0.1-0.1-0.3-0.1z"/>
</svg>