<svg version="1.2" xmlns="http://www.w3.org/2000/svg" viewBox="0 0 80 80" width="80" height="80">
	<title>Sesame-svg</title>
	<style>
		.s0 { fill: #000000 } 
	</style>
	<path id="Layer" fill-rule="evenodd" class="s0" d="m40 80c-16.2 0-30.8-9.7-37-24.7-6.1-14.9-2.7-32.1 8.7-43.6 11.5-11.4 28.7-14.8 43.6-8.7 15 6.2 24.7 20.8 24.7 37 0 5.3-1 10.5-3 15.3-2.1 4.9-5 9.3-8.7 13-3.7 3.7-8.1 6.6-13 8.7-4.8 2-10 3-15.3 3zm0-75.8c-14.5 0-27.6 8.7-33.1 22.1-5.5 13.4-2.5 28.8 7.8 39 10.2 10.3 25.6 13.3 39 7.8 13.4-5.5 22.1-18.6 22.1-33.1 0-4.7-0.9-9.4-2.7-13.7-1.8-4.4-4.4-8.3-7.8-11.6-3.3-3.4-7.2-6-11.6-7.8-4.3-1.8-9-2.7-13.7-2.7z"/>
	<path id="Layer" class="s0" d="m45.4 40.5q0.7-0.8 1.3-1.8 0.6-0.9 1-1.9 0.4-1.1 0.6-2.2 0.2-1.1 0.2-2.2c0-6.5-5.8-15.2-8.5-15.2-2.7 0-8.5 8.7-8.5 15.2 0 6.5 5.6 11.4 8.5 11.4 1.5 0 3.7-1.3 5.4-3.3z"/>
	<path id="Layer" class="s0" d="m33.1 47.1c-4.6-4.6-14.8-6.5-16.7-4.7-1.9 1.9 0.1 12.2 4.7 16.8q0.8 0.8 1.7 1.4 1 0.6 2 1.1 1 0.4 2.1 0.7 1.1 0.2 2.2 0.3h0.9c2.2 0 4.2-0.6 5.2-1.6 1-0.9 1.7-3.5 1.5-6.1q0-1.1-0.3-2.1-0.3-1.1-0.7-2.1-0.5-1-1.1-2-0.7-0.9-1.5-1.7z"/>
	<path id="Layer" class="s0" d="m63.6 42.4c-1.9-1.9-12.2 0.1-16.8 4.7q-0.8 0.8-1.4 1.8-0.6 0.9-1.1 1.9-0.4 1-0.7 2.1-0.2 1.1-0.3 2.2c-0.2 2.6 0.4 5 1.5 6.1 1.1 1.1 3 1.6 5.2 1.6q0.5 0 0.9 0 1.1-0.1 2.2-0.3 1.1-0.3 2.2-0.8 1-0.4 1.9-1 0.9-0.7 1.7-1.5c4.6-4.6 6.6-14.9 4.7-16.8z"/>
</svg>