<svg version="1.2" xmlns="http://www.w3.org/2000/svg" viewBox="0 0 80 80" width="80" height="80">
	<title>Soya-svg</title>
	<style>
		.s0 { fill: #000000 } 
	</style>
	<path id="Layer" fill-rule="evenodd" class="s0" d="m40 80c-16.2 0-30.8-9.7-37-24.7-6.1-14.9-2.7-32.1 8.7-43.6 11.5-11.4 28.7-14.8 43.6-8.7 15 6.2 24.7 20.8 24.7 37 0 5.3-1 10.5-3 15.3-2.1 4.9-5 9.3-8.7 13-3.7 3.7-8.1 6.6-13 8.7-4.8 2-10 3-15.3 3zm0-75.8c-14.5 0-27.6 8.7-33.1 22.1-5.5 13.4-2.5 28.8 7.8 39 10.2 10.3 25.6 13.3 39 7.8 13.4-5.5 22.1-18.6 22.1-33.1 0-4.7-0.9-9.4-2.7-13.7-1.8-4.4-4.4-8.3-7.8-11.6-3.3-3.4-7.2-6-11.6-7.8-4.3-1.8-9-2.7-13.7-2.7z"/>
	<g id="Folder 1">
	</g>
	<path id="Layer" class="s0" d="m34.9 51c-1.1-1.2-2.9-1.7-4.4-1.1-1.6 0.5-2.7 2-2.8 3.6-0.1 1.7 0.8 3.3 2.3 4 1.5 0.7 3.4 0.5 4.6-0.6q0.6-0.6 1-1.3 0.3-0.8 0.4-1.6 0-0.8-0.3-1.6-0.2-0.8-0.8-1.4z"/>
	<path id="Layer" class="s0" d="m45.9 43.4c-1.1-1.3-2.9-1.7-4.5-1.2-1.5 0.6-2.6 2-2.7 3.7-0.1 1.7 0.8 3.3 2.3 4 1.5 0.7 3.3 0.5 4.6-0.7q0.6-0.5 1-1.3 0.3-0.7 0.4-1.5 0-0.8-0.3-1.6-0.2-0.8-0.8-1.4z"/>
	<path id="Layer" class="s0" d="m54.7 33.3c-1.1-1.3-2.9-1.7-4.5-1.2-1.6 0.6-2.7 2.1-2.7 3.7-0.1 1.7 0.8 3.3 2.3 4 1.5 0.7 3.3 0.5 4.6-0.7q0.6-0.5 0.9-1.2 0.4-0.8 0.4-1.6 0.1-0.8-0.2-1.6-0.2-0.8-0.8-1.4z"/>
	<path id="Layer" fill-rule="evenodd" class="s0" d="m57.7 42.8q-0.3 0.3-0.5 0.5-0.3 0.2-0.6 0.4-0.3 0.2-0.6 0.4-0.4 0.1-0.7 0.3-0.6 0.2-1.2 0.7-0.6 0.4-1.1 0.9-0.5 0.5-0.8 1.2-0.4 0.6-0.6 1.3-0.3 1.3-1 2.4-0.7 1.1-1.7 2-1 0.9-2.2 1.5-1.2 0.5-2.5 0.8-0.7 0.1-1.4 0.3-0.6 0.3-1.2 0.7-0.6 0.4-1.1 1-0.4 0.5-0.8 1.1-0.2 0.3-0.4 0.6-0.2 0.3-0.4 0.6-0.2 0.3-0.5 0.6-0.2 0.2-0.5 0.5c-1.8 1.6-5.4 2.3-8.9 2.1-3.5-0.2-7-1.2-8.7-3.1-3.8-4.3 2.9-10.3 5.4-12.6q0.6-0.5 1.2-0.9 0.6-0.4 1.3-0.7 0.6-0.3 1.4-0.5 0.7-0.2 1.4-0.2 0.6-0.1 1.1-0.3 0.5-0.2 1-0.6 0.5-0.3 0.8-0.8 0.4-0.4 0.6-0.9 0.4-0.8 1-1.5 0.5-0.7 1.2-1.3 0.6-0.6 1.4-1 0.7-0.5 1.5-0.8 0.6-0.1 1.1-0.5 0.5-0.3 0.8-0.7 0.4-0.5 0.7-1 0.3-0.5 0.4-1 0.1-0.8 0.4-1.5 0.2-0.6 0.6-1.3 0.4-0.6 0.8-1.2 0.5-0.6 1-1c2-1.8 6.6-5.9 10.3-5.5q0-0.1 0-0.3l0.1-0.4c0.1-0.2 0.2-0.5 0.2-0.8q0.2-0.7 0.3-1.5c0.1-0.5 0.1-1 0.2-1.5q0.1-0.1 0.1-0.2 0-0.1 0.1-0.2 0-0.1 0.1-0.2 0-0.1 0.1-0.2 0-0.1 0.1-0.2 0.1-0.1 0.2-0.2 0-0.1 0.1-0.2 0.1-0.1 0.2-0.2l0.1-0.1q0.2-0.2 0.4-0.2 0.2-0.1 0.4-0.1 0.2 0 0.4 0.1 0.2 0 0.4 0.2 0.2 0.2 0.4 0.4 0.2 0.2 0.3 0.5 0.1 0.3 0.2 0.6 0.1 0.3 0.1 0.6 0 0 0 0.1 0 0.1 0 0.1 0 0.1 0 0.2 0 0 0 0.1c0 0.2-0.1 0.4-0.1 0.6q0 0.1-0.1 0.2 0 0.2 0 0.3-0.1 0.1-0.1 0.3-0.1 0.1-0.1 0.2-0.1 0.3-0.2 0.5-0.1 0.3-0.3 0.5-0.1 0.3-0.3 0.5-0.1 0.2-0.3 0.5-0.1 0.1-0.2 0.2-0.1 0.1-0.2 0.2-0.1 0.1-0.2 0.2-0.1 0.1-0.2 0.2 0.1 0 0.2 0.1 0.1 0.1 0.2 0.2 0.1 0.1 0.2 0.2 0.1 0.1 0.1 0.2c3.4 3.7 2.8 14.2-0.9 17.5zm-20.1 11.3c0.1-1.5-0.4-3.1-1.5-4.2-1-1.2-2.4-1.8-4-1.9-1.5-0.1-3 0.4-4.2 1.4-1 1.1-1.7 2.5-1.7 4-0.1 1.5 0.4 3 1.4 4.1 1.1 1.1 2.5 1.8 4 1.9 1.5 0.1 2.9-0.3 4.1-1.3 1.1-1 1.8-2.5 1.9-4zm11-7.6c0.1-1.5-0.5-3-1.5-4.2-1-1.1-2.4-1.8-3.9-1.9-1.5-0.1-3 0.4-4.2 1.4h-0.1c-1.2 1-1.9 2.5-2 4.1-0.1 1.5 0.4 3.1 1.4 4.2 1.1 1.2 2.6 1.9 4.2 2 1.5 0 3.1-0.6 4.2-1.6 1.1-1.1 1.8-2.5 1.9-4zm8.7-10.1c0-1.5-0.5-3-1.5-4.1-1-1.1-2.4-1.8-3.9-1.9-1.5-0.1-3 0.3-4.2 1.3-1.1 1.1-1.7 2.5-1.8 4 0 1.5 0.5 3 1.5 4.1 1 1.1 2.4 1.8 3.9 1.9 1.5 0.1 3-0.4 4.2-1.3 1.1-1.1 1.7-2.5 1.8-4z"/>
</svg>