<svg width="40" height="40" viewBox="0 0 40 40" fill="none" xmlns="http://www.w3.org/2000/svg">
<path fill-rule="evenodd" clip-rule="evenodd" d="M15.9012 12.0613L11.7009 14.1123L16.1042 16.2442L20.5075 18.3761L24.9033 16.2434L29.2992 14.1108L25.0522 12.0503C22.7162 10.9169 20.6469 9.9944 20.4533 10C20.2598 10.0058 18.2113 10.9334 15.9012 12.0613ZM11 19.9764V24.7267L15.4041 26.8635L19.8082 29L19.7547 24.1186L19.7013 19.2371L15.6007 17.243C13.3454 16.1463 11.3877 15.2437 11.25 15.2373C11.0564 15.2284 11 16.2991 11 19.9764ZM25.3588 17.2007L21.2148 19.171L21.1582 24.0024C21.127 26.6598 21.1344 28.8656 21.1744 28.9042C21.288 29.014 29.6847 24.9028 29.8499 24.6565C29.9307 24.5361 29.9981 22.365 29.9999 19.8317C30.0023 16.2735 29.9461 15.2265 29.7529 15.2282C29.6155 15.2294 27.638 16.117 25.3588 17.2007Z" fill="#087C0D"/>
<path d="M36.5 31L34.7815 32.9166L27.7689 27.338L30 26L36.5 31Z" fill="#087C0D"/>
<path d="M5.14714 7.845L6.81427 5.88357L13.9722 11.2744L11.7773 12.671L5.14714 7.845Z" fill="#087C0D"/>
<path fill-rule="evenodd" clip-rule="evenodd" d="M20 38.3333C30.1252 38.3333 38.3333 30.1252 38.3333 20C38.3333 9.87478 30.1252 1.66667 20 1.66667C9.87478 1.66667 1.66667 9.87478 1.66667 20C1.66667 30.1252 9.87478 38.3333 20 38.3333ZM20 40C31.0457 40 40 31.0457 40 20C40 8.9543 31.0457 0 20 0C8.9543 0 0 8.9543 0 20C0 31.0457 8.9543 40 20 40Z" fill="#087C0D"/>
</svg>
