<svg version="1.2" xmlns="http://www.w3.org/2000/svg" viewBox="0 0 80 80" width="80" height="80">
	<title>Sulphur_Dioxide-svg</title>
	<style>
		.s0 { fill: #000000 } 
	</style>
	<path id="Layer" fill-rule="evenodd" class="s0" d="m40 80c-16.2 0-30.8-9.7-37-24.7-6.1-14.9-2.7-32.1 8.7-43.6 11.5-11.4 28.7-14.8 43.6-8.7 15 6.2 24.7 20.8 24.7 37 0 5.3-1 10.5-3 15.3-2.1 4.9-5 9.3-8.7 13-3.7 3.7-8.1 6.6-13 8.7-4.8 2-10 3-15.3 3zm0-75.8c-14.5 0-27.6 8.7-33.1 22.1-5.5 13.4-2.5 28.8 7.8 39 10.2 10.3 25.6 13.3 39 7.8 13.4-5.5 22.1-18.6 22.1-33.1 0-4.7-0.9-9.4-2.7-13.7-1.8-4.4-4.4-8.3-7.8-11.6-3.3-3.4-7.2-6-11.6-7.8-4.3-1.8-9-2.7-13.7-2.7z"/>
	<path id="Layer" fill-rule="evenodd" class="s0" d="m57 56.1q0.2 0.6 0.2 1.3 0 0.8-0.1 1.4-0.2 0.7-0.6 1.3-0.4 0.6-1 1.1-0.5 0.5-1.1 0.8-0.7 0.4-1.4 0.6-0.7 0.1-1.4 0.1c-7.7 0-15.4 0.1-23 0q-0.8 0-1.5-0.1-0.7-0.2-1.3-0.6-0.7-0.3-1.2-0.8-0.6-0.5-1-1.1-0.4-0.6-0.6-1.3-0.2-0.6-0.2-1.3 0-0.7 0.2-1.4 0.2-0.7 0.6-1.3c3.8-6 7.6-12 11.5-17.9v-13.6c-0.6-0.3-1.1-0.9-1.4-1.5-0.2-0.7-0.3-1.4-0.1-2.1 0.2-0.7 0.6-1.3 1.2-1.7 0.5-0.5 1.2-0.7 1.9-0.7h6.5c0.7 0 1.4 0.2 2 0.7 0.5 0.4 0.9 1 1.1 1.7 0.2 0.7 0.2 1.4-0.1 2-0.3 0.7-0.7 1.2-1.3 1.6v13.5 0.1c3.9 5.9 7.7 11.9 11.5 17.9q0.4 0.6 0.6 1.3zm-21.5-36.8c-0.3 0.3-0.5 0.8-0.5 1.2 0 0.5 0.2 0.9 0.5 1.2 0.3 0.3 0.8 0.5 1.2 0.4h6.5c0.4 0 0.8-0.2 1.1-0.5 0.3-0.3 0.4-0.7 0.4-1.1 0-0.4-0.1-0.8-0.4-1.1-0.3-0.3-0.7-0.5-1.1-0.5h-6.5c-0.4-0.1-0.9 0.1-1.2 0.4zm5.9 32q0.2-0.1 0.4-0.3 0.1-0.1 0.2-0.3 0.1-0.2 0.1-0.4c0-0.5-0.3-0.9-0.7-1.1-0.4-0.1-0.9 0-1.2 0.3-0.3 0.3-0.4 0.8-0.2 1.2 0.2 0.4 0.6 0.6 1 0.6q0.2 0 0.4 0zm2.3 3.8q0 0 0 0 0 0 0 0zm0 0q0.3 0 0.6-0.1 0.3-0.1 0.5-0.3 0.3-0.3 0.4-0.6 0.1-0.3 0.1-0.6c0-0.7-0.4-1.2-1-1.5-0.6-0.3-1.3-0.1-1.8 0.3-0.4 0.5-0.6 1.2-0.3 1.8 0.2 0.6 0.8 1 1.5 1zm1.1-6.2q0.1 0 0.3-0.1 0.1 0 0.2-0.1 0.2-0.2 0.2-0.3 0.1-0.2 0.1-0.3 0-0.2-0.1-0.3 0-0.2-0.2-0.3-0.1-0.1-0.2-0.1-0.2-0.1-0.3-0.1-0.2 0-0.3 0.1-0.2 0-0.3 0.1-0.1 0.1-0.2 0.3 0 0.1 0 0.3 0 0.1 0.1 0.3 0 0.1 0.1 0.2 0.1 0.2 0.3 0.2 0.1 0.1 0.3 0.1zm-2.6-5.8q0.9 0.3 1.8 0.5 0.8 0.2 1.7 0.3 0.9 0.1 1.9 0.1l-4-6.2-0.2-0.2q0-0.1-0.1-0.1 0-0.1 0-0.2 0 0 0-0.1-0.1-0.1-0.1-0.1v-13.4h-6.5v13.4q0 0 0 0.1 0 0.1 0 0.1 0 0.1-0.1 0.2 0 0-0.1 0.1 0 0 0 0 0 0 0 0.1 0 0-0.1 0 0 0 0 0.1l-2 3.1q0.8 0.1 1.6 0.2 0.8 0.1 1.5 0.3 0.8 0.2 1.5 0.5 0.8 0.3 1.5 0.6 0.8 0.4 1.7 0.6z"/>
	<g id="Folder 1">
	</g>
</svg>