<svg version="1.2" xmlns="http://www.w3.org/2000/svg" viewBox="0 0 80 80" width="80" height="80">
	<title>Vegan-svg</title>
	<style>
		.s0 { fill: #008000 } 
	</style>
	<path id="Layer" fill-rule="evenodd" class="s0" d="m40 80c-16.2 0-30.8-9.7-37-24.7-6.1-14.9-2.7-32.1 8.7-43.6 11.5-11.4 28.7-14.8 43.6-8.7 15 6.2 24.7 20.8 24.7 37 0 5.3-1 10.5-3 15.3-2.1 4.9-5 9.3-8.7 13-3.7 3.7-8.1 6.6-13 8.7-4.8 2-10 3-15.3 3zm0-75.8c-14.5 0-27.6 8.7-33.1 22.1-5.5 13.4-2.5 28.8 7.8 39 10.2 10.3 25.6 13.3 39 7.8 13.4-5.5 22.1-18.6 22.1-33.1 0-4.7-0.9-9.4-2.7-13.7-1.8-4.4-4.4-8.3-7.8-11.6-3.3-3.4-7.2-6-11.6-7.8-4.3-1.8-9-2.7-13.7-2.7z"/>
	<g id="Folder 1">
	</g>
	<path id="Layer" class="s0" d="m36.3 31.6c0 0-2.6-6.4-7.3-7 0 0 0.7 0.7 1.8 2.1 3.2 4.1 9.8 13.7 12.1 25.4 0 0 3.4-27.8 18.5-34.7 0 0-13.3 14.7-16.3 45.4h-4.3c0 0-0.9-18.2-9.1-28.6 0 0-6.4 0.6-8.6-3.7-2.3-4.4-1.7-8.8-4.5-13.1 20.8-1.8 17.7 14.2 17.7 14.2z"/>
</svg>