<svg version="1.2" xmlns="http://www.w3.org/2000/svg" viewBox="0 0 80 80" width="80" height="80">
	<title>Vegetarian-svg</title>
	<style>
		.s0 { fill: #008000 } 
	</style>
	<path id="Layer" fill-rule="evenodd" class="s0" d="m40 80c-16.2 0-30.8-9.7-37-24.7-6.1-14.9-2.7-32.1 8.7-43.6 11.5-11.4 28.7-14.8 43.6-8.7 15 6.2 24.7 20.8 24.7 37 0 5.3-1 10.5-3 15.3-2.1 4.9-5 9.3-8.7 13-3.7 3.7-8.1 6.6-13 8.7-4.8 2-10 3-15.3 3zm0-75.8c-14.5 0-27.6 8.7-33.1 22.1-5.5 13.4-2.5 28.8 7.8 39 10.2 10.3 25.6 13.3 39 7.8 13.4-5.5 22.1-18.6 22.1-33.1 0-4.7-0.9-9.4-2.7-13.7-1.8-4.4-4.4-8.3-7.8-11.6-3.3-3.4-7.2-6-11.6-7.8-4.3-1.8-9-2.7-13.7-2.7z"/>
	<path id="Layer" class="s0" d="m43.6 54.4v0.1l-1.4 2.8c-0.3-1.2-0.7-2.6-1.1-3.8q0.2-0.1 0.4-0.3 0.2-0.1 0.3-0.3 0.2-0.1 0.3-0.3 0.2-0.2 0.3-0.4 0.1 0.3 0.3 0.6 0.1 0.2 0.3 0.5 0.1 0.3 0.3 0.6 0.1 0.3 0.3 0.5z"/>
	<path id="Layer" class="s0" d="m47.3 39.2q0.2-0.2 0.4-0.4 0.2-0.1 0.5-0.3 0.2-0.2 0.4-0.3 0.3-0.2 0.5-0.4c3.9-2.3 8.3-3.8 12.4-5.7 0.4 0.3 1 12.7 0 18.5-0.6 3.9-3.7 6-7.5 6q-0.7 0-1.4 0-0.6-0.1-1.2-0.3-0.7-0.1-1.3-0.3-0.6-0.2-1.2-0.5c2.5-5.2 5.1-10.4 8-16.2-5.7 6.5-8 14.3-11.6 21.3q-0.3-1-0.7-2.1l1.4-2.7q0.1-0.2 0.2-0.3 0.1-0.2 0.2-0.4 0-0.1 0.1-0.3 0.1-0.2 0.1-0.3c0-0.4-0.1-0.7-0.7-1.6-2.9-4.3-2.8-9.1 0.2-12.6q0.2-0.1 0.3-0.2 0.2-0.2 0.3-0.3 0.2-0.1 0.3-0.3 0.1-0.1 0.3-0.3z"/>
	<path id="Layer" class="s0" d="m44.9 32.5c1 1.7 1.4 3.4 0.2 4.9q-0.5 0.4-0.9 0.9l-0.4 0.3c-2.4 1.7-3.4 4.7-3.5 7.6q0 0.6 0 1.2-0.1 0.6-0.1 1.2-0.1 0.6-0.2 1.2-0.1 0.6-0.1 1.2c-3.3-8.6-7.4-16.8-13.7-23.6 1.8 3.2 4 6.4 5.5 9.8 2 4.2 3.5 8.6 5.2 12.9 0.8 1.7 3.5 11.3 3.5 11.3l-2 1.4c-0.5-5.3-1.4-8-1.8-9.1q-0.2 0.1-0.3 0.2-0.2 0.1-0.4 0.1-0.1 0.1-0.3 0.1-0.2 0.1-0.4 0.1-0.3 0.1-0.7 0.2-0.4 0.1-0.8 0.1-0.3 0-0.7 0.1-0.4 0-0.8 0c-7.3 0-13.4-6.5-14.1-14.9-0.7-9.1 1.3-18.2 1.5-22.4 8.6 2.4 16.6 5.5 22.9 11.8q0.3 0.4 0.7 0.8 0.3 0.4 0.6 0.8 0.3 0.4 0.5 0.9 0.3 0.4 0.6 0.9z"/>
</svg>