<?xml version="1.0" encoding="UTF-8"?>
<svg id="Layer_2" data-name="Layer 2" xmlns="http://www.w3.org/2000/svg" viewBox="0 0 296.45 75.65">
  <defs>
    <style>
      .cls-1 {
        fill: #2a1a42;
      }

      .cls-1, .cls-2 {
        stroke-width: 0px;
      }

      .cls-2 {
        fill: #ec8fdc;
      }
    </style>
  </defs>
  <g id="Layer_1-2" data-name="Layer 1">
    <g>
      <g>
        <g>
          <path class="cls-1" d="m90.48,24.03c0,6.99-4.87,11.24-11.28,11.24-7.19,0-12.35-5.29-12.35-11.86s5.26-11.93,11.99-11.93c4.38,0,8.07,2.16,10,5.23l-4.44,2.55c-.95-1.5-3.01-2.68-5.59-2.68-3.86,0-6.73,2.84-6.73,6.86s2.75,6.73,7.19,6.73c3.04,0,5.03-1.34,5.85-3.53h-6.11v-4.58h11.47v1.96Z"/>
          <path class="cls-1" d="m92.93,10.96h4.9v23.86h-4.9V10.96Z"/>
          <path class="cls-1" d="m100.28,26.64c0-4.87,3.86-8.63,8.66-8.63s8.66,3.76,8.66,8.63-3.86,8.63-8.66,8.63-8.66-3.76-8.66-8.63Zm12.42,0c0-2.32-1.63-3.86-3.76-3.86s-3.76,1.54-3.76,3.86,1.63,3.86,3.76,3.86,3.76-1.54,3.76-3.86Z"/>
          <path class="cls-1" d="m137.64,26.64c0,4.87-3.53,8.63-7.81,8.63-2.19,0-3.79-.75-4.87-1.99v1.54h-4.9V11.94h4.9v8.07c1.08-1.24,2.68-1.99,4.87-1.99,4.28,0,7.81,3.76,7.81,8.63Zm-4.9,0c0-2.45-1.63-3.99-3.89-3.99s-3.89,1.54-3.89,3.99,1.63,3.99,3.89,3.99,3.89-1.54,3.89-3.99Z"/>
          <path class="cls-1" d="m156.85,18.47v16.34h-4.9v-1.54c-1.08,1.24-2.68,1.99-4.87,1.99-4.28,0-7.81-3.76-7.81-8.63s3.53-8.63,7.81-8.63c2.19,0,3.79.75,4.87,1.99v-1.54h4.9Zm-4.9,8.17c0-2.45-1.63-3.99-3.89-3.99s-3.89,1.54-3.89,3.99,1.63,3.99,3.89,3.99,3.89-1.54,3.89-3.99Z"/>
          <path class="cls-1" d="m160.12,10.96h4.9v23.86h-4.9V10.96Z"/>
          <path class="cls-1" d="m174.33,11.94h5.72l5.07,16.83,5.07-16.83h5.72l-7.45,22.88h-6.67l-7.45-22.88Z"/>
          <path class="cls-1" d="m203.71,30.89c1.34,0,2.48-.52,3.14-1.24l3.92,2.26c-1.6,2.22-4.02,3.37-7.12,3.37-5.59,0-9.05-3.76-9.05-8.63s3.53-8.63,8.69-8.63c4.77,0,8.3,3.69,8.3,8.63,0,.69-.07,1.34-.2,1.96h-11.6c.62,1.7,2.12,2.29,3.92,2.29Zm3.01-5.95c-.52-1.9-1.99-2.58-3.46-2.58-1.86,0-3.1.92-3.56,2.58h7.03Z"/>
          <path class="cls-1" d="m229.72,24.78v10.03h-4.9v-9.31c0-2.03-1.27-2.97-2.84-2.97-1.8,0-3.04,1.05-3.04,3.37v8.92h-4.9v-16.34h4.9v1.54c.88-1.21,2.52-1.99,4.67-1.99,3.3,0,6.11,2.35,6.11,6.76Z"/>
          <path class="cls-1" d="m249.53,11.94v22.88h-4.9v-1.54c-1.08,1.24-2.68,1.99-4.87,1.99-4.28,0-7.81-3.76-7.81-8.63s3.53-8.63,7.81-8.63c2.19,0,3.79.75,4.87,1.99v-8.07h4.9Zm-4.9,14.71c0-2.45-1.63-3.99-3.89-3.99s-3.89,1.54-3.89,3.99,1.63,3.99,3.89,3.99,3.89-1.54,3.89-3.99Z"/>
          <path class="cls-1" d="m252.3,14.09c0-1.6,1.34-2.94,2.94-2.94s2.94,1.34,2.94,2.94-1.34,2.94-2.94,2.94-2.94-1.34-2.94-2.94Zm.49,4.38h4.9v16.34h-4.9v-16.34Z"/>
          <path class="cls-1" d="m276.65,24.78v10.03h-4.9v-9.31c0-2.03-1.27-2.97-2.84-2.97-1.8,0-3.04,1.05-3.04,3.37v8.92h-4.9v-16.34h4.9v1.54c.88-1.21,2.52-1.99,4.67-1.99,3.3,0,6.11,2.35,6.11,6.76Z"/>
          <path class="cls-1" d="m296.45,18.47v15.52c0,5.49-4.28,7.81-8.63,7.81-3.4,0-6.24-1.27-7.75-3.95l4.18-2.42c.62,1.14,1.57,2.06,3.73,2.06,2.29,0,3.69-1.18,3.69-3.5v-1.5c-1.08,1.34-2.65,2.12-4.77,2.12-4.64,0-8.04-3.79-8.04-8.3s3.4-8.3,8.04-8.3c2.12,0,3.69.78,4.77,2.12v-1.67h4.77Zm-4.77,7.84c0-2.25-1.63-3.79-3.95-3.79s-3.95,1.54-3.95,3.79,1.63,3.79,3.95,3.79,3.95-1.54,3.95-3.79Z"/>
        </g>
        <g>
          <path class="cls-1" d="m67.05,61.4l2.61-1.5c.82,2.52,2.78,4.15,6.11,4.15s4.84-1.47,4.84-3.53c0-2.35-2.03-3.14-5.39-4.18-3.66-1.18-7.19-2.32-7.19-6.57s3.37-6.47,7.19-6.47,6.47,2.12,7.75,5l-2.55,1.47c-.82-1.96-2.42-3.53-5.2-3.53-2.45,0-4.15,1.31-4.15,3.4s1.6,2.91,4.8,3.92c3.99,1.31,7.75,2.48,7.75,6.9,0,4.02-3.24,6.57-7.91,6.57-4.35,0-7.45-2.19-8.66-5.62Z"/>
          <path class="cls-1" d="m86.07,58.42c0-4.84,3.82-8.6,8.6-8.6s8.63,3.76,8.63,8.6-3.86,8.6-8.63,8.6-8.6-3.76-8.6-8.6Zm14.38,0c0-3.3-2.52-5.82-5.78-5.82s-5.75,2.52-5.75,5.82,2.52,5.82,5.75,5.82,5.78-2.52,5.78-5.82Z"/>
          <path class="cls-1" d="m106.33,42.74h2.84v23.86h-2.84v-23.86Z"/>
          <path class="cls-1" d="m127.31,50.25v16.34h-2.84v-2.35c-1.21,1.93-3.01,2.78-5.29,2.78-3.82,0-6.34-2.55-6.34-6.73v-10.03h2.84v9.87c0,2.68,1.54,4.18,4.05,4.18s4.74-1.54,4.74-5.39v-8.66h2.84Z"/>
          <path class="cls-1" d="m135.84,53v8.86c0,2.48,1.44,2.32,4.35,2.19v2.55c-4.9.65-7.19-.65-7.19-4.74v-8.86h-3.24v-2.75h3.24v-3.73l2.84-.85v4.58h4.35v2.75h-4.35Z"/>
          <path class="cls-1" d="m142.73,45.38c0-1.05.85-1.93,1.93-1.93s1.9.88,1.9,1.93-.85,1.9-1.9,1.9-1.93-.85-1.93-1.9Zm.49,4.87h2.84v16.34h-2.84v-16.34Z"/>
          <path class="cls-1" d="m149.17,58.42c0-4.84,3.82-8.6,8.6-8.6s8.63,3.76,8.63,8.6-3.86,8.6-8.63,8.6-8.6-3.76-8.6-8.6Zm14.38,0c0-3.3-2.52-5.82-5.78-5.82s-5.75,2.52-5.75,5.82,2.52,5.82,5.75,5.82,5.78-2.52,5.78-5.82Z"/>
          <path class="cls-1" d="m183.91,56.56v10.03h-2.84v-9.87c0-2.68-1.54-4.18-4.05-4.18s-4.74,1.54-4.74,5.39v8.66h-2.84v-16.34h2.84v2.35c1.21-1.93,3.01-2.78,5.29-2.78,3.82,0,6.34,2.55,6.34,6.73Z"/>
          <path class="cls-1" d="m199.14,62.12c0,3.04-2.61,4.9-6.11,4.9-3.27,0-5.56-1.57-6.5-3.82l2.45-1.41c.52,1.57,2.03,2.55,4.05,2.55,1.73,0,3.24-.62,3.24-2.22,0-3.5-9.15-1.5-9.15-7.42,0-2.88,2.48-4.87,5.78-4.87,2.68,0,4.84,1.27,5.88,3.4l-2.39,1.34c-.62-1.47-2.06-2.09-3.5-2.09s-2.91.72-2.91,2.19c0,3.5,9.15,1.44,9.15,7.45Z"/>
        </g>
      </g>
      <g>
        <path class="cls-1" d="m40.82,19.67c.74,1.82,1.16,3.81,1.16,5.9,0,8.68-7.06,15.74-15.74,15.74s-15.74-7.06-15.74-15.74,7.06-15.74,15.74-15.74c.43,0,.86-.03,1.29,0h24.28V0h-25.56C12.14,0,.66,11.47.66,25.58s11.47,25.58,25.58,25.58,25.58-11.47,25.58-25.58c0-2.03-.26-4.01-.71-5.9h-10.29Z"/>
        <polygon class="cls-2" points="0 55.83 5.77 46.36 11.27 55.94 5.65 53.38 0 55.83"/>
        <path class="cls-1" d="m41.22,75.65H12.47c-5.93,0-10.75-4.82-10.75-10.75v-7.72h7.8v7.72c0,1.63,1.32,2.95,2.95,2.95h28.75c1.63,0,2.95-1.32,2.95-2.95v-12.89l7.8-7.39v20.28c0,5.93-4.82,10.75-10.75,10.75Z"/>
      </g>
    </g>
  </g>
</svg>