<svg width="32" height="32" viewBox="0 0 32 32" fill="none" xmlns="http://www.w3.org/2000/svg">
<path d="M30.8966 16C30.8966 24.832 23.9834 32 15.4483 32C6.9131 32 0 24.832 0 16C0 7.16 6.9131 0 15.4483 0C23.9834 0 30.8966 7.16 30.8966 16Z" fill="#283544"/>
<path d="M23.6245 12.1396C23.535 12.1897 21.4028 13.2478 21.4028 15.5938C21.5033 18.2694 24.0935 19.2076 24.1379 19.2076C24.0935 19.2578 23.7469 20.4858 22.7201 21.7731C21.9052 22.882 21.0008 24 19.6274 24C18.321 24 17.852 23.261 16.3446 23.261C14.7258 23.261 14.2678 24 13.0284 24C11.655 24 10.6835 22.8221 9.82423 21.7236C8.70789 20.2859 7.75903 18.0297 7.72554 15.8634C7.70296 14.7155 7.9491 13.587 8.5739 12.6286C9.45576 11.2905 11.0301 10.3821 12.7495 10.3522C14.0668 10.3125 15.2392 11.1609 16.0431 11.1609C16.8136 11.1609 18.254 10.3522 19.8837 10.3522C20.5872 10.3528 22.463 10.5423 23.6245 12.1396ZM15.9317 10.123C15.6972 9.07466 16.3446 8.02633 16.9476 7.35762C17.718 6.54891 18.9349 6 19.9842 6C20.0512 7.04833 19.6267 8.07647 18.8679 8.82528C18.187 9.63399 17.0146 10.2428 15.9317 10.123Z" fill="white"/>
</svg>
