<svg width="50" height="50" viewBox="0 0 50 50" fill="none" xmlns="http://www.w3.org/2000/svg">
<path fill-rule="evenodd" clip-rule="evenodd" d="M6.29714 16.2121C7.30857 17.2429 7.66857 17.545 7.77143 17.545C7.85714 17.545 11.2171 14.1507 15.2286 9.99222L22.5143 2.43947L21.1429 1L6.29714 16.2121ZM28.1714 1.72862L27.4857 2.43947C38.7828 14.1507 42.1257 17.545 42.2286 17.545C42.3143 17.545 42.6743 17.2606 43 16.923L43.6 16.2832L28.8571 1L28.1714 1.72862ZM1 25.1866V19.3221H49V25.1866L46.5486 25.2755L44.3543 35.1385C43.1371 40.5765 41.9543 45.9078 41.2857 49H25.3428C16.5143 49 9.22857 48.9289 9.00571 48.8578C8.66286 48.6979 8.44 47.8449 6.43428 38.8526C5.21714 33.4502 4.05143 28.1544 3.4 25.1866H1ZM2.88572 23.2318V21.277H47.1143V23.2318H2.88572ZM7.80572 36.2937C6.50287 30.4292 5.4743 25.5243 5.52572 25.4177V25.3999C5.5943 25.24 9.62286 25.1867 24.8629 25.1867C35.4571 25.1867 44.2171 25.2577 44.3371 25.3288C44.5086 25.4177 44.0457 27.7279 42.3143 35.5828C41.08 41.163 40 46.0145 39.7429 47.0452L10.1714 46.9564L7.80572 36.2937ZM27.9143 42.9577L27.9314 36.0092V29.0784L29.7143 29.1851L29.7486 36.027C29.7829 39.7945 29.7314 42.94 29.6629 43.0111C29.5943 43.0821 29.1829 43.1177 27.9143 42.9577ZM11.2857 29.3628C11.2857 29.5049 11.8343 32.5261 12.4857 36.0803C13.1543 39.6168 13.7371 42.6556 13.7714 42.8333C13.84 43.0644 14.0286 43.1355 14.5943 43.1355C14.9886 43.1355 15.4 43.0644 15.52 42.9933C15.6743 42.9044 15.4 41.1806 14.4743 36.2047C13.7886 32.5438 13.1714 29.4339 13.12 29.3272C13.0514 29.1851 12.6571 29.0962 12.1429 29.0962C11.4914 29.0962 11.2857 29.1673 11.2857 29.3628ZM20.2 43.1355H22.0857V29.0962H20.2V43.1355ZM36.88 29.3095C36.7943 29.4339 36.16 32.5261 35.4914 36.1869C34.5143 41.4294 34.3086 42.8867 34.48 42.9933C34.6 43.0644 34.9771 43.1177 35.3371 43.1177C35.8343 43.1177 36.0229 43.0466 36.1429 42.7267C36.2457 42.5135 36.8629 39.4035 37.5143 35.8315C38.1828 32.2773 38.7143 29.2917 38.7143 29.2206C38.7314 29.1495 38.3543 29.0784 37.8914 29.0784C37.4114 29.0784 36.9657 29.1851 36.88 29.3095Z" fill="#666666" stroke="#666666"/>
</svg>
