<svg version="1.1" id="Layer_1" xmlns="http://www.w3.org/2000/svg" xmlns:xlink="http://www.w3.org/1999/xlink" x="0px" y="0px"
	 width="100%" viewBox="0 0 590 85" enable-background="new 0 0 590 85" xml:space="preserve">
<path fill="#FCFCFD" opacity="1.000000" stroke="none" 
	d="
M239.000000,86.000000 
	C169.645767,86.000000 100.291542,86.000000 30.611601,85.635818 
	C34.004162,83.983131 38.051186,83.246536 41.362186,81.274300 
	C46.101913,78.451035 47.355595,73.594437 46.569675,68.210670 
	C45.805065,62.972870 42.403107,60.391056 37.554337,59.648487 
	C32.472858,58.870285 27.332907,58.124260 22.212576,58.081898 
	C19.189322,58.056881 16.126101,57.648045 15.991385,54.771053 
	C15.818570,51.080414 19.145929,51.808228 21.927940,51.830589 
	C25.527298,51.859524 29.252895,51.434139 32.708492,50.448406 
	C37.633835,49.043419 40.951603,45.659252 42.151817,40.462578 
	C44.119129,31.944534 40.426487,24.338531 32.529484,20.754906 
	C23.829350,16.806824 13.042842,19.149027 8.142602,26.050325 
	C3.138282,33.098198 4.277397,40.721615 10.814982,47.668072 
	C8.755166,50.739727 5.571557,53.495327 5.261551,56.543209 
	C4.984653,59.265587 7.880382,62.310658 9.448605,65.353935 
	C5.900483,66.894562 2.010598,69.231720 2.839079,75.166748 
	C3.680978,81.197906 8.099038,83.136559 13.031147,84.676514 
	C14.058366,84.997246 15.012296,85.552711 16.000000,86.000000 
	C11.014432,86.000000 6.028863,86.000000 1.021648,86.000000 
	C1.021648,57.762894 1.021648,29.525764 1.021648,1.000000 
	C18.019808,1.000000 35.041245,1.000000 52.501175,1.467819 
	C52.939671,23.979237 52.939671,46.022835 52.939671,67.963997 
	C56.368473,67.963997 59.185406,67.963997 62.245720,68.052795 
	C62.654007,68.090248 62.818916,68.038902 63.438713,67.911392 
	C64.051567,61.702301 64.354355,55.569027 64.339394,49.436531 
	C64.300003,33.290840 64.122498,17.145487 64.000000,1.000000 
	C82.354225,1.000000 100.708458,1.000000 119.532578,1.468656 
	C119.972099,22.603125 120.010521,43.269493 119.842621,63.934193 
	C119.815147,67.315765 121.032356,68.480240 124.199402,68.211624 
	C125.508713,68.100586 126.835297,68.193214 128.412079,68.193214 
	C128.856033,66.672974 129.244324,65.343277 129.761230,63.573219 
	C130.923141,64.429771 131.675156,64.997047 132.440201,65.546173 
	C141.552902,72.087013 153.346100,69.901031 158.555984,60.025173 
	C164.182495,49.359577 164.225739,38.175926 158.263443,27.572735 
	C153.166199,18.507910 143.172989,16.473032 134.224411,21.989773 
	C133.440445,22.473091 132.508316,22.716085 131.000000,23.335653 
	C131.000000,15.521413 131.000000,8.260706 131.000000,1.000000 
	C159.020889,1.000000 187.041794,1.000000 215.413330,1.455873 
	C215.763992,23.939667 215.763992,45.967587 215.763992,67.952507 
	C219.872314,67.952507 223.298309,67.952507 227.000000,67.952507 
	C227.000000,45.483631 227.000000,23.241816 227.000000,1.000000 
	C348.258331,1.000000 469.516693,1.000000 590.887512,1.000000 
	C590.887512,29.240435 590.887512,57.481464 590.887512,86.000000 
	C504.979309,86.000000 418.958313,86.000000 332.651245,85.684677 
	C336.908966,84.907356 340.122955,82.421227 342.052155,78.455383 
	C343.786316,74.890419 345.265503,71.183456 346.610504,67.450264 
	C352.107239,52.193527 357.509399,36.902737 362.953491,21.604515 
	C359.368134,20.188059 357.190826,20.844122 356.395752,24.560118 
	C356.051514,26.168949 355.403046,27.716261 354.849365,29.276117 
	C351.206909,39.538445 347.552643,49.796577 343.504456,61.173996 
	C338.979553,48.310074 334.723053,36.642174 330.816284,24.858322 
	C329.519073,20.945591 327.546936,20.059978 323.775909,21.624418 
	C328.994202,36.284649 334.215179,50.771046 339.297791,65.305847 
	C341.954376,72.902977 336.414581,80.848442 328.455688,81.098625 
	C327.011749,81.144012 325.565186,81.105103 324.000000,81.105103 
	C324.000000,83.021545 324.000000,84.510773 324.000000,86.000000 
	C297.645782,86.000000 271.291534,86.000000 244.519409,85.533722 
	C244.101486,77.546097 244.101486,70.024750 244.101486,61.746990 
	C245.837128,63.184860 246.705460,63.952221 247.622299,64.656441 
	C258.842773,73.274918 271.693787,69.376877 276.158691,55.935043 
	C278.869476,47.774048 278.722595,39.538746 275.925903,31.451330 
	C272.842682,22.535467 264.733704,17.203960 256.738708,19.379520 
	C252.418152,20.555208 248.513138,23.257944 244.254318,25.353626 
	C244.200577,25.254154 243.834045,24.575764 243.393890,23.466864 
	C243.263672,19.613579 241.424515,19.417076 238.553726,20.520880 
	C238.553726,36.437252 238.514160,52.313366 238.574203,68.189110 
	C238.596649,74.126518 238.851242,80.063065 239.000000,86.000000 
M541.071594,61.044575 
	C541.042969,49.028927 541.014343,37.013283 541.832336,24.728086 
	C543.829773,24.709755 545.889526,24.982874 547.803406,24.573700 
	C549.147034,24.286432 550.291931,23.069487 551.525574,22.267689 
	C551.253845,21.802149 550.982117,21.336611 550.710327,20.871071 
	C547.620605,20.871071 544.530884,20.871071 541.023865,20.871071 
	C541.023865,17.403456 540.801819,14.257362 541.076294,11.155205 
	C541.481140,6.579555 539.933228,4.806162 534.986328,6.594339 
	C534.986328,10.867935 534.986328,15.286645 534.986328,20.033321 
	C532.494812,20.033321 530.392090,20.033321 527.918274,20.033321 
	C528.065247,21.769215 528.179565,23.119318 528.291016,24.435648 
	C530.796021,24.641485 532.868713,24.811794 535.207581,25.003979 
	C535.207581,36.168339 535.156494,46.968327 535.223022,57.767593 
	C535.280518,67.105797 538.542664,69.855972 547.851624,69.174286 
	C551.626709,68.897865 552.256470,67.321518 551.323059,64.447090 
	C551.015930,64.829514 550.708862,65.211929 550.401794,65.594345 
	C547.300598,64.389282 544.199341,63.184227 541.071594,61.044575 
M521.965576,30.278379 
	C518.315186,16.565996 509.494507,15.460114 492.310944,26.436592 
	C491.871948,24.401863 491.418823,22.301622 490.086060,20.001064 
	C488.817322,20.001064 487.548584,20.001064 486.266968,20.001064 
	C486.266968,36.271130 486.266968,52.147774 486.266968,68.257553 
	C488.017456,68.119461 489.493958,68.002975 491.745056,67.526291 
	C491.782196,57.267319 491.810211,47.008293 491.867859,36.749435 
	C491.875244,35.435818 491.721222,33.997746 492.183807,32.832447 
	C493.843781,28.651163 503.368896,23.754025 508.510498,24.021486 
	C514.945312,24.356220 515.749512,29.238386 516.699158,34.880436 
	C516.699158,45.924332 516.699158,56.968227 516.699158,67.960373 
	C518.851074,67.960373 520.279968,67.960373 521.861511,67.960373 
	C521.861511,55.508247 521.861511,43.270935 521.965576,30.278379 
M446.924744,43.981850 
	C457.280365,43.981850 467.635986,43.981850 478.169342,43.981850 
	C478.045105,41.648563 477.948914,39.841961 477.968109,37.241283 
	C477.737122,36.104641 477.534454,34.961376 477.270660,33.832401 
	C475.094818,24.521650 470.048279,19.763885 461.572815,19.015043 
	C453.039459,18.261080 445.481842,22.741827 442.213531,30.940828 
	C439.034607,38.915619 438.877014,47.175621 441.393127,55.350136 
	C443.920532,63.561272 450.209503,68.586403 457.910522,69.039932 
	C467.930542,69.630013 473.847839,66.078232 478.103882,56.699867 
	C476.917206,56.052570 475.709381,55.393753 474.408630,54.684223 
	C473.179291,56.424831 472.213196,57.964787 471.078735,59.368679 
	C466.615662,64.891762 458.975677,66.567047 453.222229,62.768345 
	C446.494080,58.326122 445.338318,51.389549 446.924744,43.981850 
M375.556671,32.606815 
	C376.944031,31.172745 378.204895,29.582670 379.743439,28.334991 
	C383.737579,25.095865 388.114380,22.453827 393.418945,24.819633 
	C398.568817,27.116461 397.934753,32.092552 397.966766,36.534988 
	C398.042206,46.997257 397.990936,57.460438 397.990936,68.004868 
	C400.037537,68.004868 401.639740,68.004868 403.718994,68.004868 
	C403.718994,57.670246 403.714172,47.543438 403.720856,37.416637 
	C403.724731,31.510111 409.655060,25.222881 416.227203,24.137165 
	C421.973541,23.187870 424.545959,25.347023 426.696320,33.963531 
	C426.696320,45.316422 426.696320,56.669312 426.696320,67.941910 
	C428.852600,67.941910 430.271057,67.941910 431.799896,67.941910 
	C431.799896,55.489777 431.799896,43.270096 431.868378,30.300629 
	C430.983795,25.951214 429.572235,21.809885 425.005737,20.095798 
	C416.014832,16.720955 409.648163,22.040051 403.128387,27.638544 
	C400.456787,21.381042 395.801544,17.897823 389.668213,19.336868 
	C384.513275,20.546362 379.821838,23.731499 375.289459,25.870125 
	C374.926666,24.285360 374.451691,22.210470 373.078156,19.992302 
	C370.558044,19.571743 369.599854,20.433207 369.663849,23.171207 
	C369.846588,30.991587 369.728027,38.819008 369.728027,46.643658 
	C369.727997,53.736935 369.727997,60.830215 369.727997,68.234573 
	C371.889038,68.105560 373.427338,68.013725 375.020111,67.918633 
	C375.020111,55.956123 375.020111,44.479317 375.556671,32.606815 
M204.817673,28.341629 
	C202.617538,22.791092 198.087402,20.427231 192.589325,19.321455 
	C182.535309,17.299377 172.662003,21.145414 168.976624,28.664909 
	C171.349304,30.121908 173.732132,31.585150 176.217407,33.111290 
	C180.424149,28.292675 185.638168,26.037727 191.343430,28.804541 
	C193.308197,29.757366 193.807449,33.732113 195.196274,36.814915 
	C191.906494,37.369701 190.013168,37.393909 188.348465,38.023075 
	C182.523605,40.224567 176.324707,41.911560 171.127457,45.166500 
	C165.794189,48.506618 164.717087,55.866726 167.157669,61.813698 
	C169.166428,66.708389 174.800247,69.813477 181.264786,68.787842 
	C185.566177,68.105392 189.705231,66.399841 194.175980,65.075493 
	C195.917801,70.213097 200.524231,67.955605 204.181839,67.787331 
	C204.610367,67.767616 204.838989,63.403324 205.401764,60.133305 
	C205.206314,49.768410 205.010880,39.403515 204.817673,28.341629 
M74.783684,28.472843 
	C69.992363,37.579929 69.919250,47.029484 73.244995,56.501007 
	C76.093422,64.613167 82.911545,69.040558 91.697220,69.134613 
	C101.496880,69.239525 108.401382,65.393761 111.025711,56.622944 
	C112.741356,50.889050 113.107841,44.526745 112.885979,38.489742 
	C112.540306,29.083794 106.863213,22.203524 98.879250,19.874985 
	C89.457115,17.126999 81.142899,19.894329 74.783684,28.472843 
M283.478241,49.356667 
	C280.709015,56.552952 281.404144,62.819706 286.255737,66.169922 
	C295.585236,72.612282 303.818939,68.253784 311.773102,62.510956 
	C311.967194,63.376141 311.902924,64.223381 312.295197,64.627220 
	C313.511566,65.879509 314.901428,66.963257 316.223938,68.112427 
	C316.816925,66.597824 317.903290,65.089615 317.923035,63.567585 
	C318.054596,53.419857 317.921356,43.269066 317.953156,33.119514 
	C317.967133,28.664112 316.509003,24.902634 312.840424,22.324934 
	C304.128967,16.203897 289.031158,18.740696 284.777954,29.083359 
	C286.072632,29.798100 287.408539,30.535603 288.653503,31.222908 
	C294.934875,23.968000 301.495789,21.947912 307.704834,25.093513 
	C312.799286,27.674452 312.462646,32.012127 311.668915,36.581497 
	C309.146362,37.081238 306.839966,37.392750 304.616364,38.005070 
	C296.965607,40.111866 288.933960,41.531277 283.478241,49.356667 
M560.851624,32.267136 
	C560.538818,28.491529 562.101257,25.524187 565.595947,24.361481 
	C572.847046,21.949032 578.475769,25.218176 583.162109,30.753666 
	C584.657837,29.575840 585.794373,28.680885 588.252136,26.745544 
	C583.014343,23.980391 578.817749,20.833652 574.108582,19.509359 
	C567.919495,17.768890 561.763123,19.295082 557.344482,24.463301 
	C552.672729,29.927588 554.116272,37.994232 560.644531,41.435947 
	C566.187073,44.357998 572.424377,45.988422 577.876831,49.042747 
	C580.168030,50.326229 582.692444,53.947163 582.468323,56.248085 
	C582.206787,58.932617 579.494629,61.993843 577.015747,63.646729 
	C575.129883,64.904221 571.619568,65.067398 569.411377,64.215599 
	C565.051636,62.533855 561.093506,59.811001 556.422180,57.214561 
	C555.989807,57.576229 554.779785,58.588402 553.591492,59.582420 
	C559.510315,67.721611 568.287598,70.910667 577.417297,68.463417 
	C584.140747,66.661163 587.859131,62.709167 588.549377,56.632072 
	C589.224304,50.689976 586.804260,46.859665 579.866516,43.657261 
	C575.815674,41.787418 571.404114,40.660084 567.461304,38.609341 
	C565.000671,37.329525 563.111328,34.951412 560.851624,32.267136 
M44.980755,20.653421 
	C47.656841,16.372227 47.342140,12.412536 43.630489,11.231165 
	C41.510445,10.556382 37.954945,10.930258 36.588432,12.333862 
	C35.252270,13.706295 34.941284,17.427231 35.840717,19.334085 
	C37.518822,22.891796 40.985012,22.874758 44.980755,20.653421 
z"/>
<path fill="#063D72" opacity="1.000000" stroke="none" 
	d="
M16.399998,86.000000 
	C15.012296,85.552711 14.058366,84.997246 13.031147,84.676514 
	C8.099038,83.136559 3.680978,81.197906 2.839079,75.166748 
	C2.010598,69.231720 5.900483,66.894562 9.448605,65.353935 
	C7.880382,62.310658 4.984653,59.265587 5.261551,56.543209 
	C5.571557,53.495327 8.755166,50.739727 10.814982,47.668072 
	C4.277397,40.721615 3.138282,33.098198 8.142602,26.050325 
	C13.042842,19.149027 23.829350,16.806824 32.529484,20.754906 
	C40.426487,24.338531 44.119129,31.944534 42.151817,40.462578 
	C40.951603,45.659252 37.633835,49.043419 32.708492,50.448406 
	C29.252895,51.434139 25.527298,51.859524 21.927940,51.830589 
	C19.145929,51.808228 15.818570,51.080414 15.991385,54.771053 
	C16.126101,57.648045 19.189322,58.056881 22.212576,58.081898 
	C27.332907,58.124260 32.472858,58.870285 37.554337,59.648487 
	C42.403107,60.391056 45.805065,62.972870 46.569675,68.210670 
	C47.355595,73.594437 46.101913,78.451035 41.362186,81.274300 
	C38.051186,83.246536 34.004162,83.983131 30.142944,85.635818 
	C29.555555,86.000000 29.111111,86.000000 28.115215,85.667168 
	C25.042509,85.556221 22.521254,85.778107 20.000000,86.000000 
	C18.933331,86.000000 17.866661,86.000000 16.399998,86.000000 
M31.945419,37.960674 
	C32.021820,36.975639 32.522697,35.720661 32.098663,35.053879 
	C30.543098,32.607811 29.064848,29.029320 26.831707,28.382370 
	C24.267076,27.639389 19.855690,28.650276 18.231178,30.574696 
	C16.586779,32.522675 16.281773,36.952541 17.310678,39.527985 
	C19.533106,45.090897 27.658985,44.445568 31.945419,37.960674 
M30.207436,76.952522 
	C31.797325,76.114014 33.662727,75.565613 34.917362,74.374084 
	C37.231407,72.176445 36.393089,68.786263 33.286366,68.287315 
	C28.702875,67.551186 23.963554,66.940880 19.392179,67.366936 
	C17.413881,67.551300 15.688930,70.454033 13.848898,72.121979 
	C15.421741,73.762367 16.769894,76.414467 18.615995,76.824463 
	C22.053602,77.587929 25.781105,77.046082 30.207436,76.952522 
z"/>
<path fill="#023C71" opacity="1.000000" stroke="none" 
	d="
M130.541931,1.000000 
	C131.000000,8.260706 131.000000,15.521413 131.000000,23.335653 
	C132.508316,22.716085 133.440445,22.473091 134.224411,21.989773 
	C143.172989,16.473032 153.166199,18.507910 158.263443,27.572735 
	C164.225739,38.175926 164.182495,49.359577 158.555984,60.025173 
	C153.346100,69.901031 141.552902,72.087013 132.440201,65.546173 
	C131.675156,64.997047 130.923141,64.429771 129.761230,63.573219 
	C129.244324,65.343277 128.856033,66.672974 128.412079,68.193214 
	C126.835297,68.193214 125.508713,68.100586 124.199402,68.211624 
	C121.032356,68.480240 119.815147,67.315765 119.842621,63.934193 
	C120.010521,43.269493 119.972099,22.603125 120.001236,1.468656 
	C123.361290,1.000000 126.722572,1.000000 130.541931,1.000000 
M138.916656,28.313913 
	C131.532272,30.815300 131.315170,31.116730 131.314896,38.871994 
	C131.314758,42.871288 131.639099,46.904148 131.229477,50.861038 
	C130.760178,55.394371 132.980576,57.599476 136.762161,59.053581 
	C140.805878,60.608479 144.342636,59.792637 147.220688,56.685791 
	C152.442917,51.048416 152.363464,36.281860 146.794388,31.127975 
	C145.032227,29.497181 142.088760,29.142866 138.916656,28.313913 
z"/>
<path fill="#063D72" opacity="1.000000" stroke="none" 
	d="
M243.467529,23.897385 
	C243.834045,24.575764 244.200577,25.254154 244.254318,25.353626 
	C248.513138,23.257944 252.418152,20.555208 256.738708,19.379520 
	C264.733704,17.203960 272.842682,22.535467 275.925903,31.451330 
	C278.722595,39.538746 278.869476,47.774048 276.158691,55.935043 
	C271.693787,69.376877 258.842773,73.274918 247.622299,64.656441 
	C246.705460,63.952221 245.837128,63.184860 244.101486,61.746990 
	C244.101486,70.024750 244.101486,77.546097 244.050751,85.533722 
	C242.933334,86.000000 241.866653,86.000000 240.400421,85.531342 
	C240.000854,63.886940 240.000854,42.711193 240.000854,20.565575 
	C241.876389,22.368156 242.671951,23.132774 243.467529,23.897385 
M270.917572,33.920403 
	C267.608551,25.532906 263.194183,22.623594 255.997971,24.087564 
	C249.097977,25.491274 244.114761,31.714155 244.114456,38.927635 
	C244.114273,42.926533 244.109039,46.925438 244.115692,50.924324 
	C244.126038,57.144802 250.311615,63.464241 257.479126,64.585976 
	C263.270721,65.492371 269.213013,62.081879 270.391083,55.416267 
	C271.579315,48.693333 270.905060,41.641239 270.917572,33.920403 
z"/>
<path fill="#093D73" opacity="1.000000" stroke="none" 
	d="
M324.444153,86.000000 
	C324.000000,84.510773 324.000000,83.021545 324.000000,81.105103 
	C325.565186,81.105103 327.011749,81.144012 328.455688,81.098625 
	C336.414581,80.848442 341.954376,72.902977 339.297791,65.305847 
	C334.215179,50.771046 328.994202,36.284649 323.775909,21.624418 
	C327.546936,20.059978 329.519073,20.945591 330.816284,24.858322 
	C334.723053,36.642174 338.979553,48.310074 343.504456,61.173996 
	C347.552643,49.796577 351.206909,39.538445 354.849365,29.276117 
	C355.403046,27.716261 356.051514,26.168949 356.395752,24.560118 
	C357.190826,20.844122 359.368134,20.188059 362.953491,21.604515 
	C357.509399,36.902737 352.107239,52.193527 346.610504,67.450264 
	C345.265503,71.183456 343.786316,74.890419 342.052155,78.455383 
	C340.122955,82.421227 336.908966,84.907356 332.182617,85.684677 
	C329.629425,86.000000 327.258881,86.000000 324.444153,86.000000 
z"/>
<path fill="#003C71" opacity="1.000000" stroke="none" 
	d="
M62.983822,67.987564 
	C62.818916,68.038902 62.654007,68.090248 61.955399,67.771149 
	C59.044048,67.098877 56.666397,66.797050 54.000000,66.458565 
	C54.000000,44.354115 54.000000,22.677057 54.000000,1.000000 
	C56.700630,1.000000 59.401260,1.000000 62.551014,1.468657 
	C62.994698,23.954065 62.989258,45.970814 62.983822,67.987564 
z"/>
<path fill="#003C71" opacity="1.000000" stroke="none" 
	d="
M217.000000,1.000000 
	C219.700623,1.000000 222.401260,1.000000 225.550446,1.468657 
	C225.998856,21.884457 225.939148,41.831944 226.054153,61.778423 
	C226.074554,65.315025 225.638229,67.213699 221.277573,67.156662 
	C216.983109,67.100494 216.950577,64.970299 216.961685,61.838692 
	C217.033661,41.559338 216.999420,21.279608 217.000000,1.000000 
z"/>
<path fill="#002B68" opacity="1.000000" stroke="none" 
	d="
M216.750000,1.000000 
	C216.999420,21.279608 217.033661,41.559338 216.961685,61.838692 
	C216.950577,64.970299 216.983109,67.100494 221.277573,67.156662 
	C225.638229,67.213699 226.074554,65.315025 226.054153,61.778423 
	C225.939148,41.831944 225.998856,21.884457 225.999512,1.468657 
	C226.000000,1.000000 226.500000,1.000000 226.750000,1.000000 
	C227.000000,23.241816 227.000000,45.483631 227.000000,67.952507 
	C223.298309,67.952507 219.872314,67.952507 215.763992,67.952507 
	C215.763992,45.967587 215.763992,23.939667 215.881989,1.455873 
	C216.000000,1.000000 216.500000,1.000000 216.750000,1.000000 
z"/>
<path fill="#002465" opacity="1.000000" stroke="none" 
	d="
M53.750000,1.000000 
	C54.000000,22.677057 54.000000,44.354115 54.000000,66.458565 
	C56.666397,66.797050 59.044048,67.098877 61.712021,67.682350 
	C59.185406,67.963997 56.368473,67.963997 52.939671,67.963997 
	C52.939671,46.022835 52.939671,23.979237 52.969833,1.467819 
	C53.000000,1.000000 53.500000,1.000000 53.750000,1.000000 
z"/>
<path fill="#00316B" opacity="1.000000" stroke="none" 
	d="
M243.393890,23.466873 
	C242.671951,23.132774 241.876389,22.368156 240.000854,20.565575 
	C240.000854,42.711193 240.000854,63.886940 240.000427,85.531342 
	C240.000000,86.000000 239.500000,86.000000 239.250000,86.000000 
	C238.851242,80.063065 238.596649,74.126518 238.574203,68.189110 
	C238.514160,52.313366 238.553726,36.437252 238.553726,20.520880 
	C241.424515,19.417076 243.263672,19.613579 243.393890,23.466873 
z"/>
<path fill="#00316B" opacity="1.000000" stroke="none" 
	d="
M63.438713,67.911392 
	C62.989258,45.970814 62.994698,23.954065 63.000069,1.468657 
	C63.000000,1.000000 63.500000,1.000000 63.750000,1.000000 
	C64.122498,17.145487 64.300003,33.290840 64.339394,49.436531 
	C64.354355,55.569027 64.051567,61.702301 63.438713,67.911392 
z"/>
<path fill="#69809E" opacity="1.000000" stroke="none" 
	d="
M20.444164,86.000000 
	C22.521254,85.778107 25.042509,85.556221 27.781883,85.667168 
	C25.629442,86.000000 23.258884,86.000000 20.444164,86.000000 
z"/>
<path fill="#043D72" opacity="1.000000" stroke="none" 
	d="
M74.938782,28.132313 
	C81.142899,19.894329 89.457115,17.126999 98.879250,19.874985 
	C106.863213,22.203524 112.540306,29.083794 112.885979,38.489742 
	C113.107841,44.526745 112.741356,50.889050 111.025711,56.622944 
	C108.401382,65.393761 101.496880,69.239525 91.697220,69.134613 
	C82.911545,69.040558 76.093422,64.613167 73.244995,56.501007 
	C69.919250,47.029484 69.992363,37.579929 74.938782,28.132313 
M84.251114,53.825348 
	C86.108536,57.873913 89.091026,60.122936 93.698624,59.404388 
	C98.376328,58.674919 100.606018,55.316246 100.918228,51.080448 
	C101.291496,46.016224 101.360970,40.825623 100.651878,35.818661 
	C100.089577,31.848194 97.422440,29.031813 92.795509,28.863012 
	C88.046097,28.689739 84.691269,31.009565 84.181824,35.375908 
	C83.503555,41.189144 84.038849,47.143978 84.251114,53.825348 
z"/>
<path fill="#053D72" opacity="1.000000" stroke="none" 
	d="
M205.160294,61.053112 
	C204.838989,63.403324 204.610367,67.767616 204.181839,67.787331 
	C200.524231,67.955605 195.917801,70.213097 194.175980,65.075493 
	C189.705231,66.399841 185.566177,68.105392 181.264786,68.787842 
	C174.800247,69.813477 169.166428,66.708389 167.157669,61.813698 
	C164.717087,55.866726 165.794189,48.506618 171.127457,45.166500 
	C176.324707,41.911560 182.523605,40.224567 188.348465,38.023075 
	C190.013168,37.393909 191.906494,37.369701 195.196274,36.814915 
	C193.807449,33.732113 193.308197,29.757366 191.343430,28.804541 
	C185.638168,26.037727 180.424149,28.292675 176.217407,33.111290 
	C173.732132,31.585150 171.349304,30.121908 168.976624,28.664909 
	C172.662003,21.145414 182.535309,17.299377 192.589325,19.321455 
	C198.087402,20.427231 202.617538,22.791092 204.559189,29.010479 
	C204.204178,39.275429 204.077744,48.871479 204.062241,58.467712 
	C204.060837,59.328918 204.777237,60.191284 205.160294,61.053112 
M181.125839,48.608452 
	C177.777649,51.122749 176.251801,54.569462 178.623062,58.101349 
	C180.981750,61.614536 184.828522,60.442703 188.115814,59.065125 
	C194.006744,56.596443 194.718674,54.623241 193.447311,44.325451 
	C189.446533,45.632839 185.597275,46.890713 181.125839,48.608452 
z"/>
<path fill="#093F74" opacity="1.000000" stroke="none" 
	d="
M426.833344,33.039520 
	C424.545959,25.347023 421.973541,23.187870 416.227203,24.137165 
	C409.655060,25.222881 403.724731,31.510111 403.720856,37.416637 
	C403.714172,47.543438 403.718994,57.670246 403.718994,68.004868 
	C401.639740,68.004868 400.037537,68.004868 397.990936,68.004868 
	C397.990936,57.460438 398.042206,46.997257 397.966766,36.534988 
	C397.934753,32.092552 398.568817,27.116461 393.418945,24.819633 
	C388.114380,22.453827 383.737579,25.095865 379.743439,28.334991 
	C378.204895,29.582670 376.944031,31.172745 374.984497,33.092793 
	C374.160492,44.649509 373.908691,55.720249 373.656860,66.790993 
	C373.046265,66.830635 372.435699,66.870277 371.825104,66.909920 
	C371.551666,65.787560 371.045258,64.666199 371.040375,63.542679 
	C370.984070,50.553204 370.907562,37.561726 371.133972,24.575966 
	C371.160065,23.079769 372.985535,21.614944 373.976715,20.135576 
	C374.451691,22.210470 374.926666,24.285360 375.289459,25.870125 
	C379.821838,23.731499 384.513275,20.546362 389.668213,19.336868 
	C395.801544,17.897823 400.456787,21.381042 403.128387,27.638544 
	C409.648163,22.040051 416.014832,16.720955 425.005737,20.095798 
	C429.572235,21.809885 430.983795,25.951214 431.579529,30.996763 
	C431.097626,43.393417 430.904572,55.093933 430.711548,66.794449 
	C430.025055,66.817932 429.338562,66.841415 428.652100,66.864906 
	C428.435181,65.247261 428.044067,63.631042 428.030884,62.011742 
	C427.965973,54.040154 428.067230,46.066765 427.948181,38.096424 
	C427.922943,36.405617 427.222626,34.724892 426.833344,33.039520 
z"/>
<path fill="#093E73" opacity="1.000000" stroke="none" 
	d="
M283.681152,49.027237 
	C288.933960,41.531277 296.965607,40.111866 304.616364,38.005070 
	C306.839966,37.392750 309.146362,37.081238 311.668915,36.581497 
	C312.462646,32.012127 312.799286,27.674452 307.704834,25.093513 
	C301.495789,21.947912 294.934875,23.968000 288.653503,31.222908 
	C287.408539,30.535603 286.072632,29.798100 284.777954,29.083359 
	C289.031158,18.740696 304.128967,16.203897 312.840424,22.324934 
	C316.509003,24.902634 317.967133,28.664112 317.953156,33.119514 
	C317.921356,43.269066 318.054596,53.419857 317.923035,63.567585 
	C317.903290,65.089615 316.816925,66.597824 316.223938,68.112419 
	C314.901428,66.963257 313.511566,65.879509 312.295197,64.627220 
	C311.902924,64.223381 311.967194,63.376141 311.773102,62.510956 
	C303.818939,68.253784 295.585236,72.612282 286.255737,66.169922 
	C281.404144,62.819706 280.709015,56.552952 283.681152,49.027237 
M305.155792,61.795898 
	C312.547363,56.408772 313.860138,52.014473 311.241058,41.273895 
	C310.116791,41.528255 308.951569,41.672764 307.871246,42.056480 
	C302.588013,43.933064 297.095856,45.416035 292.129028,47.930092 
	C287.843201,50.099472 286.539246,55.913784 288.375763,60.169498 
	C290.026123,63.993835 294.318665,65.616310 299.457245,64.181313 
	C301.188568,63.697823 302.806274,62.807373 305.155792,61.795898 
z"/>
<path fill="#083D72" opacity="1.000000" stroke="none" 
	d="
M445.987213,43.929092 
	C445.338318,51.389549 446.494080,58.326122 453.222229,62.768345 
	C458.975677,66.567047 466.615662,64.891762 471.078735,59.368679 
	C472.213196,57.964787 473.179291,56.424831 474.408630,54.684223 
	C475.709381,55.393753 476.917206,56.052570 478.103882,56.699867 
	C473.847839,66.078232 467.930542,69.630013 457.910522,69.039932 
	C450.209503,68.586403 443.920532,63.561272 441.393127,55.350136 
	C438.877014,47.175621 439.034607,38.915619 442.213531,30.940828 
	C445.481842,22.741827 453.039459,18.261080 461.572815,19.015043 
	C470.048279,19.763885 475.094818,24.521650 477.270660,33.832401 
	C477.534454,34.961376 477.737122,36.104641 477.652222,37.920876 
	C477.317322,42.139557 475.655792,43.323692 472.072021,43.085308 
	C466.955109,42.744938 461.795258,42.884468 456.660278,43.037827 
	C453.096893,43.144253 449.544525,43.618938 445.987213,43.929092 
M446.591370,40.610638 
	C454.706757,40.731049 462.822021,40.880802 470.937775,40.917309 
	C471.601471,40.920296 472.268616,40.151093 472.850647,38.971485 
	C471.599823,29.308947 468.283844,24.736238 461.940704,23.926805 
	C452.484344,22.720100 445.980072,29.286606 446.591370,40.610638 
z"/>
<path fill="#093D72" opacity="1.000000" stroke="none" 
	d="
M560.908569,32.666645 
	C563.111328,34.951412 565.000671,37.329525 567.461304,38.609341 
	C571.404114,40.660084 575.815674,41.787418 579.866516,43.657261 
	C586.804260,46.859665 589.224304,50.689976 588.549377,56.632072 
	C587.859131,62.709167 584.140747,66.661163 577.417297,68.463417 
	C568.287598,70.910667 559.510315,67.721611 553.591492,59.582420 
	C554.779785,58.588402 555.989807,57.576229 556.422180,57.214561 
	C561.093506,59.811001 565.051636,62.533855 569.411377,64.215599 
	C571.619568,65.067398 575.129883,64.904221 577.015747,63.646729 
	C579.494629,61.993843 582.206787,58.932617 582.468323,56.248085 
	C582.692444,53.947163 580.168030,50.326229 577.876831,49.042747 
	C572.424377,45.988422 566.187073,44.357998 560.644531,41.435947 
	C554.116272,37.994232 552.672729,29.927588 557.344482,24.463301 
	C561.763123,19.295082 567.919495,17.768890 574.108582,19.509359 
	C578.817749,20.833652 583.014343,23.980391 588.252136,26.745544 
	C585.794373,28.680885 584.657837,29.575840 583.162109,30.753666 
	C578.475769,25.218176 572.847046,21.949032 565.595947,24.361481 
	C562.101257,25.524187 560.538818,28.491529 560.908569,32.666645 
z"/>
<path fill="#094074" opacity="1.000000" stroke="none" 
	d="
M490.965698,20.201382 
	C491.418823,22.301622 491.871948,24.401863 492.310944,26.436592 
	C509.494507,15.460114 518.315186,16.565996 521.642639,30.967209 
	C521.112183,43.367973 520.904602,55.079910 520.697083,66.791847 
	C520.014709,66.818138 519.332275,66.844421 518.649902,66.870712 
	C518.434204,65.413635 518.043640,63.957939 518.032043,62.499233 
	C517.970032,54.683857 518.068420,46.866741 517.950684,39.052643 
	C517.924927,37.345737 517.244080,35.648693 516.864929,33.947109 
	C515.749512,29.238386 514.945312,24.356220 508.510498,24.021486 
	C503.368896,23.754025 493.843781,28.651163 492.183807,32.832447 
	C491.721222,33.997746 491.875244,35.435818 491.867859,36.749435 
	C491.810211,47.008293 491.782196,57.267319 491.083649,67.444061 
	C487.411163,67.119759 486.920258,65.310730 486.949493,62.602699 
	C487.080597,50.463142 487.165894,38.317913 486.903259,26.182617 
	C486.830170,22.804888 487.792084,20.966766 490.965698,20.201382 
z"/>
<path fill="#124678" opacity="1.000000" stroke="none" 
	d="
M541.098083,61.979172 
	C544.199341,63.184227 547.300598,64.389282 550.401794,65.594345 
	C550.708862,65.211929 551.015930,64.829514 551.323059,64.447090 
	C552.256470,67.321518 551.626709,68.897865 547.851624,69.174286 
	C538.542664,69.855972 535.280518,67.105797 535.223022,57.767593 
	C535.156494,46.968327 535.207581,36.168339 535.207581,25.003979 
	C532.868713,24.811794 530.796021,24.641485 528.291016,24.435648 
	C528.179565,23.119318 528.065247,21.769215 527.918274,20.033321 
	C530.392090,20.033321 532.494812,20.033321 534.986328,20.033321 
	C534.986328,15.286645 534.986328,10.867935 534.986328,6.594339 
	C539.933228,4.806162 541.481140,6.579555 541.076294,11.155205 
	C540.801819,14.257362 541.023865,17.403456 541.023865,20.871071 
	C544.530884,20.871071 547.620605,20.871071 550.710327,20.871071 
	C550.982117,21.336611 551.253845,21.802149 551.525574,22.267689 
	C550.291931,23.069487 549.147034,24.286432 547.803406,24.573700 
	C545.889526,24.982874 543.829773,24.709755 541.108032,25.154274 
	C540.274658,37.179104 540.151489,48.777691 540.101196,60.376598 
	C540.098877,60.909340 540.750793,61.444920 541.098083,61.979172 
z"/>
<path fill="#093F74" opacity="1.000000" stroke="none" 
	d="
M44.657478,20.886635 
	C40.985012,22.874758 37.518822,22.891796 35.840717,19.334085 
	C34.941284,17.427231 35.252270,13.706295 36.588432,12.333862 
	C37.954945,10.930258 41.510445,10.556382 43.630489,11.231165 
	C47.342140,12.412536 47.656841,16.372227 44.657478,20.886635 
z"/>
<path fill="#002968" opacity="1.000000" stroke="none" 
	d="
M373.527435,20.063938 
	C372.985535,21.614944 371.160065,23.079769 371.133972,24.575966 
	C370.907562,37.561726 370.984070,50.553204 371.040375,63.542679 
	C371.045258,64.666199 371.551666,65.787560 371.825104,66.909920 
	C372.435699,66.870277 373.046265,66.830635 373.656860,66.790993 
	C373.908691,55.720249 374.160492,44.649509 374.716187,33.290638 
	C375.020111,44.479317 375.020111,55.956123 375.020111,67.918633 
	C373.427338,68.013725 371.889038,68.105560 369.727997,68.234573 
	C369.727997,60.830215 369.727997,53.736935 369.728027,46.643658 
	C369.728027,38.819008 369.846588,30.991587 369.663849,23.171207 
	C369.599854,20.433207 370.558044,19.571743 373.527435,20.063938 
z"/>
<path fill="#002968" opacity="1.000000" stroke="none" 
	d="
M426.764832,33.501526 
	C427.222626,34.724892 427.922943,36.405617 427.948181,38.096424 
	C428.067230,46.066765 427.965973,54.040154 428.030884,62.011742 
	C428.044067,63.631042 428.435181,65.247261 428.652100,66.864906 
	C429.338562,66.841415 430.025055,66.817932 430.711548,66.794449 
	C430.904572,55.093933 431.097626,43.393417 431.545288,31.371658 
	C431.799896,43.270096 431.799896,55.489777 431.799896,67.941910 
	C430.271057,67.941910 428.852600,67.941910 426.696320,67.941910 
	C426.696320,56.669312 426.696320,45.316422 426.764832,33.501526 
z"/>
<path fill="#002B68" opacity="1.000000" stroke="none" 
	d="
M516.782043,34.413773 
	C517.244080,35.648693 517.924927,37.345737 517.950684,39.052643 
	C518.068420,46.866741 517.970032,54.683857 518.032043,62.499233 
	C518.043640,63.957939 518.434204,65.413635 518.649902,66.870712 
	C519.332275,66.844421 520.014709,66.818138 520.697083,66.791847 
	C520.904602,55.079910 521.112183,43.367973 521.590576,31.344830 
	C521.861511,43.270935 521.861511,55.508247 521.861511,67.960373 
	C520.279968,67.960373 518.851074,67.960373 516.699158,67.960373 
	C516.699158,56.968227 516.699158,45.924332 516.782043,34.413773 
z"/>
<path fill="#002465" opacity="1.000000" stroke="none" 
	d="
M490.525879,20.101225 
	C487.792084,20.966766 486.830170,22.804888 486.903259,26.182617 
	C487.165894,38.317913 487.080597,50.463142 486.949493,62.602699 
	C486.920258,65.310730 487.411163,67.119759 490.696350,67.624168 
	C489.493958,68.002975 488.017456,68.119461 486.266968,68.257553 
	C486.266968,52.147774 486.266968,36.271130 486.266968,20.001064 
	C487.548584,20.001064 488.817322,20.001064 490.525879,20.101225 
z"/>
<path fill="#002B68" opacity="1.000000" stroke="none" 
	d="
M446.455994,43.955471 
	C449.544525,43.618938 453.096893,43.144253 456.660278,43.037827 
	C461.795258,42.884468 466.955109,42.744938 472.072021,43.085308 
	C475.655792,43.323692 477.317322,42.139557 477.594513,38.317913 
	C477.948914,39.841961 478.045105,41.648563 478.169342,43.981850 
	C467.635986,43.981850 457.280365,43.981850 446.455994,43.955471 
z"/>
<path fill="#002465" opacity="1.000000" stroke="none" 
	d="
M541.084839,61.511875 
	C540.750793,61.444920 540.098877,60.909340 540.101196,60.376598 
	C540.151489,48.777691 540.274658,37.179104 540.684753,25.289047 
	C541.014343,37.013283 541.042969,49.028927 541.084839,61.511875 
z"/>
<path fill="#00316B" opacity="1.000000" stroke="none" 
	d="
M205.281036,60.593208 
	C204.777237,60.191284 204.060837,59.328918 204.062241,58.467712 
	C204.077744,48.871479 204.204178,39.275429 204.558075,29.358976 
	C205.010880,39.403515 205.206314,49.768410 205.281036,60.593208 
z"/>
<path fill="#FAFBFC" opacity="1.000000" stroke="none" 
	d="
M31.851597,38.361366 
	C27.658985,44.445568 19.533106,45.090897 17.310678,39.527985 
	C16.281773,36.952541 16.586779,32.522675 18.231178,30.574696 
	C19.855690,28.650276 24.267076,27.639389 26.831707,28.382370 
	C29.064848,29.029320 30.543098,32.607811 32.098663,35.053879 
	C32.522697,35.720661 32.021820,36.975639 31.851597,38.361366 
z"/>
<path fill="#F5F6F8" opacity="1.000000" stroke="none" 
	d="
M29.797691,77.000031 
	C25.781105,77.046082 22.053602,77.587929 18.615995,76.824463 
	C16.769894,76.414467 15.421741,73.762367 13.848898,72.121979 
	C15.688930,70.454033 17.413881,67.551300 19.392179,67.366936 
	C23.963554,66.940880 28.702875,67.551186 33.286366,68.287315 
	C36.393089,68.786263 37.231407,72.176445 34.917362,74.374084 
	C33.662727,75.565613 31.797325,76.114014 29.797691,77.000031 
z"/>
<path fill="#F7F8FA" opacity="1.000000" stroke="none" 
	d="
M139.301270,28.259148 
	C142.088760,29.142866 145.032227,29.497181 146.794388,31.127975 
	C152.363464,36.281860 152.442917,51.048416 147.220688,56.685791 
	C144.342636,59.792637 140.805878,60.608479 136.762161,59.053581 
	C132.980576,57.599476 130.760178,55.394371 131.229477,50.861038 
	C131.639099,46.904148 131.314758,42.871288 131.314896,38.871994 
	C131.315170,31.116730 131.532272,30.815300 139.301270,28.259148 
z"/>
<path fill="#FBFCFD" opacity="1.000000" stroke="none" 
	d="
M270.982178,34.326878 
	C270.905060,41.641239 271.579315,48.693333 270.391083,55.416267 
	C269.213013,62.081879 263.270721,65.492371 257.479126,64.585976 
	C250.311615,63.464241 244.126038,57.144802 244.115692,50.924324 
	C244.109039,46.925438 244.114273,42.926533 244.114456,38.927635 
	C244.114761,31.714155 249.097977,25.491274 255.997971,24.087564 
	C263.194183,22.623594 267.608551,25.532906 270.982178,34.326878 
z"/>
<path fill="#FAFBFC" opacity="1.000000" stroke="none" 
	d="
M84.151962,53.431664 
	C84.038849,47.143978 83.503555,41.189144 84.181824,35.375908 
	C84.691269,31.009565 88.046097,28.689739 92.795509,28.863012 
	C97.422440,29.031813 100.089577,31.848194 100.651878,35.818661 
	C101.360970,40.825623 101.291496,46.016224 100.918228,51.080448 
	C100.606018,55.316246 98.376328,58.674919 93.698624,59.404388 
	C89.091026,60.122936 86.108536,57.873913 84.151962,53.431664 
z"/>
<path fill="#FAFBFC" opacity="1.000000" stroke="none" 
	d="
M181.436920,48.378521 
	C185.597275,46.890713 189.446533,45.632839 193.447311,44.325451 
	C194.718674,54.623241 194.006744,56.596443 188.115814,59.065125 
	C184.828522,60.442703 180.981750,61.614536 178.623062,58.101349 
	C176.251801,54.569462 177.777649,51.122749 181.436920,48.378521 
z"/>
<path fill="#FAFBFC" opacity="1.000000" stroke="none" 
	d="
M304.815857,61.949413 
	C302.806274,62.807373 301.188568,63.697823 299.457245,64.181313 
	C294.318665,65.616310 290.026123,63.993835 288.375763,60.169498 
	C286.539246,55.913784 287.843201,50.099472 292.129028,47.930092 
	C297.095856,45.416035 302.588013,43.933064 307.871246,42.056480 
	C308.951569,41.672764 310.116791,41.528255 311.241058,41.273895 
	C313.860138,52.014473 312.547363,56.408772 304.815857,61.949413 
z"/>
<path fill="#FAFBFC" opacity="1.000000" stroke="none" 
	d="
M445.994659,40.025482 
	C445.980072,29.286606 452.484344,22.720100 461.940704,23.926805 
	C468.283844,24.736238 471.599823,29.308947 472.435059,39.443764 
	C463.344543,39.952522 454.669617,39.989002 445.994659,40.025482 
z"/>
<path fill="#002465" opacity="1.000000" stroke="none" 
	d="
M446.293030,40.318062 
	C454.669617,39.989002 463.344543,39.952522 472.476807,39.828365 
	C472.268616,40.151093 471.601471,40.920296 470.937775,40.917309 
	C462.822021,40.880802 454.706757,40.731049 446.293030,40.318062 
z"/>
</svg>